font.ufo
<glyph name="exclam" format="1">
  <advance width="234"/>
  <unicode hex="0021"/>
  <outline>
    <contour>
      <point x="85" y="668" type="line"/>
      <point x="92" y="164" type="line"/>
      <point x="141" y="164" type="line"/>
      <point x="148" y="668" type="line"/>
    </contour>
    <contour>
      <point x="79" y="35" type="curve" smooth="yes"/>
      <point x="79" y="10"/>
      <point x="89" y="-5"/>
      <point x="116" y="-5" type="curve" smooth="yes"/>
      <point x="143" y="-5"/>
      <point x="153" y="10"/>
      <point x="153" y="35" type="curve" smooth="yes"/>
      <point x="153" y="59"/>
      <point x="143" y="75"/>
      <point x="116" y="75" type="curve" smooth="yes"/>
      <point x="89" y="75"/>
      <point x="79" y="59"/>
    </contour>
  </outline>
</glyph>
<glyph name="quotedbl" format="1">
  <advance width="324"/>
  <unicode hex="0022"/>
  <outline>
    <contour>
      <point x="191" y="739" type="line"/>
      <point x="191" y="549" type="line"/>
      <point x="243" y="549" type="line"/>
      <point x="243" y="739" type="line"/>
    </contour>
    <contour>
      <point x="80" y="739" type="line"/>
      <point x="80" y="549" type="line"/>
      <point x="132" y="549" type="line"/>
      <point x="132" y="739" type="line"/>
    </contour>
  </outline>
</glyph>
<glyph name="numbersign" format="1">
  <advance width="514"/>
  <unicode hex="0023"/>
  <outline>
    <contour>
      <point x="389" y="648" type="line"/>
      <point x="295" y="0" type="line"/>
      <point x="345" y="0" type="line"/>
      <point x="439" y="648" type="line"/>
    </contour>
    <contour>
      <point x="37" y="209" type="line"/>
      <point x="37" y="165" type="line"/>
      <point x="453" y="165" type="line"/>
      <point x="453" y="209" type="line"/>
    </contour>
    <contour>
      <point x="188" y="648" type="line"/>
      <point x="94" y="0" type="line"/>
      <point x="144" y="0" type="line"/>
      <point x="238" y="648" type="line"/>
    </contour>
    <contour>
      <point x="77" y="482" type="line"/>
      <point x="77" y="439" type="line"/>
      <point x="493" y="439" type="line"/>
      <point x="493" y="482" type="line"/>
    </contour>
  </outline>
</glyph>
<glyph name="dollar" format="1">
  <advance width="379"/>
  <unicode hex="0024"/>
  <outline>
    <contour>
      <point x="162" y="734" type="line"/>
      <point x="162" y="646" type="line"/>
      <point x="214" y="646" type="line"/>
      <point x="214" y="734" type="line"/>
    </contour>
    <contour>
      <point x="152" y="10" type="line"/>
      <point x="152" y="-78" type="line"/>
      <point x="204" y="-78" type="line"/>
      <point x="204" y="10" type="line"/>
    </contour>
    <component base="S"/>
  </outline>
</glyph>
<glyph name="percent" format="1">
  <advance width="541"/>
  <unicode hex="0025"/>
  <outline>
    <contour>
      <point x="378" y="668" type="line"/>
      <point x="118" y="0" type="line"/>
      <point x="164" y="0" type="line"/>
      <point x="424" y="668" type="line"/>
    </contour>
    <contour>
      <point x="196" y="540" type="curve" smooth="yes"/>
      <point x="196" y="475"/>
      <point x="176" y="448"/>
      <point x="140" y="448" type="curve" smooth="yes"/>
      <point x="104" y="448"/>
      <point x="84" y="475"/>
      <point x="84" y="540" type="curve" smooth="yes"/>
      <point x="84" y="605"/>
      <point x="104" y="632"/>
      <point x="140" y="632" type="curve" smooth="yes"/>
      <point x="176" y="632"/>
      <point x="196" y="605"/>
    </contour>
    <contour>
      <point x="35" y="540" type="curve" smooth="yes"/>
      <point x="35" y="452"/>
      <point x="72" y="402"/>
      <point x="140" y="402" type="curve" smooth="yes"/>
      <point x="208" y="402"/>
      <point x="245" y="452"/>
      <point x="245" y="540" type="curve" smooth="yes"/>
      <point x="245" y="628"/>
      <point x="208" y="678"/>
      <point x="140" y="678" type="curve" smooth="yes"/>
      <point x="72" y="678"/>
      <point x="35" y="628"/>
    </contour>
    <contour>
      <point x="456" y="128" type="curve"/>
      <point x="456" y="63"/>
      <point x="436" y="36"/>
      <point x="401" y="36" type="curve" smooth="yes"/>
      <point x="365" y="36"/>
      <point x="345" y="63"/>
      <point x="345" y="128" type="curve" smooth="yes"/>
      <point x="345" y="193"/>
      <point x="365" y="220"/>
      <point x="401" y="220" type="curve" smooth="yes"/>
      <point x="436" y="220"/>
      <point x="456" y="193"/>
    </contour>
    <contour>
      <point x="295" y="128" type="curve"/>
      <point x="295" y="40"/>
      <point x="332" y="-10"/>
      <point x="401" y="-10" type="curve" smooth="yes"/>
      <point x="469" y="-10"/>
      <point x="506" y="40"/>
      <point x="506" y="128" type="curve" smooth="yes"/>
      <point x="506" y="216"/>
      <point x="469" y="266"/>
      <point x="401" y="266" type="curve" smooth="yes"/>
      <point x="332" y="266"/>
      <point x="295" y="216"/>
    </contour>
  </outline>
</glyph>
<glyph name="ampersand" format="1">
  <advance width="449"/>
  <unicode hex="0026"/>
  <outline>
    <contour>
      <point x="54" y="526" type="curve"/>
      <point x="54" y="472" type="line" smooth="yes"/>
      <point x="54" y="409"/>
      <point x="78" y="363"/>
      <point x="132" y="343" type="curve"/>
      <point x="78" y="322"/>
      <point x="53" y="276"/>
      <point x="53" y="215" type="curve" smooth="yes"/>
      <point x="53" y="145" type="line" smooth="yes"/>
      <point x="53" y="58"/>
      <point x="112" y="-10"/>
      <point x="224" y="-10" type="curve" smooth="yes"/>
      <point x="337" y="-10"/>
      <point x="392" y="58"/>
      <point x="392" y="145" type="curve" smooth="yes"/>
      <point x="392" y="426" type="line"/>
      <point x="335" y="426" type="line"/>
      <point x="335" y="146" type="line" smooth="yes"/>
      <point x="335" y="84"/>
      <point x="300" y="42"/>
      <point x="224" y="42" type="curve" smooth="yes"/>
      <point x="148" y="42"/>
      <point x="111" y="84"/>
      <point x="111" y="146" type="curve" smooth="yes"/>
      <point x="111" y="214" type="line" smooth="yes"/>
      <point x="111" y="274"/>
      <point x="137" y="317"/>
      <point x="209" y="317" type="curve" smooth="yes"/>
      <point x="433" y="317" type="line"/>
      <point x="433" y="369" type="line"/>
      <point x="207" y="369" type="line" smooth="yes"/>
      <point x="135" y="369"/>
      <point x="112" y="411"/>
      <point x="112" y="472" type="curve" smooth="yes"/>
      <point x="112" y="525" type="line" smooth="yes"/>
      <point x="112" y="578"/>
      <point x="137" y="618"/>
      <point x="237" y="618" type="curve" smooth="yes"/>
      <point x="285" y="618"/>
      <point x="331" y="609"/>
      <point x="362" y="598" type="curve"/>
      <point x="362" y="655" type="line"/>
      <point x="334" y="664"/>
      <point x="288" y="673"/>
      <point x="237" y="673" type="curve" smooth="yes"/>
      <point x="107" y="673"/>
      <point x="54" y="612"/>
    </contour>
  </outline>
</glyph>
<glyph name="quotesingle" format="1">
  <advance width="211"/>
  <unicode hex="0027"/>
  <outline>
    <contour>
      <point x="80" y="739" type="line"/>
      <point x="80" y="549" type="line"/>
      <point x="131" y="549" type="line"/>
      <point x="131" y="739" type="line"/>
    </contour>
  </outline>
</glyph>
<glyph name="parenleft" format="1">
  <advance width="272"/>
  <unicode hex="0028"/>
  <outline>
    <contour>
      <point x="161" y="770" type="line"/>
      <point x="101" y="641"/>
      <point x="69" y="464"/>
      <point x="69" y="323" type="curve" smooth="yes"/>
      <point x="69" y="183"/>
      <point x="101" y="4"/>
      <point x="161" y="-124" type="curve"/>
      <point x="212" y="-124" type="line"/>
      <point x="154" y="13"/>
      <point x="121" y="183"/>
      <point x="121" y="323" type="curve" smooth="yes"/>
      <point x="121" y="463"/>
      <point x="154" y="632"/>
      <point x="212" y="770" type="curve"/>
    </contour>
  </outline>
</glyph>
<glyph name="parenright" format="1">
  <advance width="272"/>
  <unicode hex="0029"/>
  <outline>
    <contour>
      <point x="59" y="770" type="line"/>
      <point x="118" y="632"/>
      <point x="151" y="463"/>
      <point x="151" y="323" type="curve" smooth="yes"/>
      <point x="151" y="183"/>
      <point x="118" y="13"/>
      <point x="59" y="-124" type="curve"/>
      <point x="111" y="-124" type="line"/>
      <point x="171" y="4"/>
      <point x="202" y="183"/>
      <point x="202" y="323" type="curve" smooth="yes"/>
      <point x="202" y="464"/>
      <point x="171" y="641"/>
      <point x="111" y="770" type="curve"/>
    </contour>
  </outline>
</glyph>
<glyph name="asterisk" format="1">
  <advance width="485"/>
  <unicode hex="002A"/>
  <outline>
    <contour>
      <point x="270" y="521" type="curve" smooth="yes"/>
      <point x="331" y="438" type="line"/>
      <point x="370" y="466" type="line"/>
      <point x="308" y="550" type="line" smooth="yes"/>
      <point x="271" y="601"/>
      <point x="245" y="597"/>
      <point x="245" y="597" type="curve"/>
      <point x="245" y="597"/>
      <point x="232" y="572"/>
    </contour>
    <contour>
      <point x="180" y="549" type="curve" smooth="yes"/>
      <point x="120" y="466" type="line"/>
      <point x="159" y="438" type="line"/>
      <point x="219" y="522" type="line" smooth="yes"/>
      <point x="256" y="572"/>
      <point x="245" y="597"/>
      <point x="245" y="597" type="curve"/>
      <point x="245" y="597"/>
      <point x="217" y="601"/>
    </contour>
    <contour>
      <point x="67" y="629" type="line"/>
      <point x="165" y="597" type="line" smooth="yes"/>
      <point x="225" y="578"/>
      <point x="245" y="597"/>
      <point x="245" y="597" type="curve"/>
      <point x="245" y="597"/>
      <point x="239" y="624"/>
      <point x="179" y="644" type="curve" smooth="yes"/>
      <point x="81" y="675" type="line"/>
    </contour>
    <contour>
      <point x="220" y="776" type="line"/>
      <point x="220" y="673" type="line"/>
      <point x="220" y="610"/>
      <point x="245" y="597"/>
      <point x="245" y="597" type="curve"/>
      <point x="245" y="597"/>
      <point x="268" y="611"/>
      <point x="268" y="673" type="curve"/>
      <point x="268" y="776" type="line"/>
    </contour>
    <contour>
      <point x="309" y="643" type="line"/>
      <point x="249" y="624"/>
      <point x="245" y="597"/>
      <point x="245" y="597" type="curve"/>
      <point x="245" y="597"/>
      <point x="264" y="578"/>
      <point x="325" y="598" type="curve" smooth="yes"/>
      <point x="423" y="630" type="line"/>
      <point x="407" y="676" type="line"/>
    </contour>
  </outline>
</glyph>
<glyph name="plus" format="1">
  <advance width="428"/>
  <unicode hex="002B"/>
  <outline>
    <contour>
      <point x="188" y="497" type="line"/>
      <point x="188" y="150" type="line"/>
      <point x="240" y="150" type="line"/>
      <point x="240" y="497" type="line"/>
    </contour>
    <contour>
      <point x="40" y="347" type="line"/>
      <point x="40" y="300" type="line"/>
      <point x="387" y="300" type="line"/>
      <point x="387" y="347" type="line"/>
    </contour>
  </outline>
</glyph>
<glyph name="comma" format="1">
  <advance width="133"/>
  <unicode hex="002C"/>
  <outline>
    <contour>
      <point x="45" y="75" type="line"/>
      <point x="5" y="-125" type="line"/>
      <point x="40" y="-125" type="line"/>
      <point x="60" y="-83"/>
      <point x="105" y="13"/>
      <point x="105" y="46" type="curve" smooth="yes"/>
      <point x="105" y="66"/>
      <point x="91" y="75"/>
      <point x="74" y="75" type="curve" smooth="yes"/>
    </contour>
  </outline>
</glyph>
<glyph name="hyphen" format="1">
  <advance width="214"/>
  <unicode hex="002D"/>
  <outline>
    <contour>
      <point x="40" y="347" type="line"/>
      <point x="40" y="300" type="line"/>
      <point x="179" y="300" type="line"/>
      <point x="179" y="347" type="line"/>
    </contour>
  </outline>
</glyph>
<glyph name="period" format="1">
  <advance width="135"/>
  <unicode hex="002E"/>
  <outline>
    <contour>
      <point x="31" y="35" type="curve" smooth="yes"/>
      <point x="31" y="10"/>
      <point x="40" y="-5"/>
      <point x="67" y="-5" type="curve" smooth="yes"/>
      <point x="94" y="-5"/>
      <point x="104" y="10"/>
      <point x="104" y="35" type="curve" smooth="yes"/>
      <point x="104" y="59"/>
      <point x="94" y="75"/>
      <point x="67" y="75" type="curve" smooth="yes"/>
      <point x="40" y="75"/>
      <point x="31" y="59"/>
    </contour>
  </outline>
</glyph>
<glyph name="slash" format="1">
  <advance width="365"/>
  <unicode hex="002F"/>
  <outline>
    <contour>
      <point x="300" y="771" type="line"/>
      <point x="31" y="-124" type="line"/>
      <point x="82" y="-124" type="line"/>
      <point x="350" y="771" type="line"/>
    </contour>
  </outline>
</glyph>
<glyph name="six" format="1">
  <advance width="428"/>
  <unicode hex="0036"/>
  <outline>
    <contour>
      <point x="63" y="520" type="curve" smooth="yes"/>
      <point x="63" y="145" type="line"/>
      <point x="63" y="57"/>
      <point x="109" y="-10"/>
      <point x="221" y="-10" type="curve" smooth="yes"/>
      <point x="333" y="-10"/>
      <point x="379" y="57"/>
      <point x="379" y="145" type="curve" smooth="yes"/>
      <point x="379" y="273" type="line" smooth="yes"/>
      <point x="379" y="366"/>
      <point x="323" y="413"/>
      <point x="231" y="413" type="curve" smooth="yes"/>
      <point x="190" y="413"/>
      <point x="151" y="405"/>
      <point x="120" y="390" type="curve"/>
      <point x="120" y="519" type="line" smooth="yes"/>
      <point x="120" y="572"/>
      <point x="145" y="620"/>
      <point x="235" y="620" type="curve" smooth="yes"/>
      <point x="284" y="620"/>
      <point x="326" y="612"/>
      <point x="357" y="601" type="curve"/>
      <point x="357" y="656" type="line"/>
      <point x="330" y="665"/>
      <point x="288" y="673"/>
      <point x="235" y="673" type="curve" smooth="yes"/>
      <point x="112" y="673"/>
      <point x="63" y="606"/>
    </contour>
    <contour>
      <point x="322" y="272" type="curve" smooth="yes"/>
      <point x="322" y="145" type="line" smooth="yes"/>
      <point x="322" y="84"/>
      <point x="297" y="42"/>
      <point x="221" y="42" type="curve" smooth="yes"/>
      <point x="145" y="42"/>
      <point x="120" y="84"/>
      <point x="120" y="145" type="curve"/>
      <point x="120" y="334" type="line"/>
      <point x="147" y="350"/>
      <point x="188" y="361"/>
      <point x="228" y="361" type="curve" smooth="yes"/>
      <point x="288" y="361"/>
      <point x="322" y="336"/>
    </contour>
  </outline>
</glyph>
<glyph name="seven" format="1">
  <advance width="319"/>
  <unicode hex="0037"/>
  <outline>
    <contour>
      <point x="5" y="668" type="line"/>
      <point x="5" y="616" type="line"/>
      <point x="234" y="616" type="line"/>
      <point x="174" y="424" type="line"/>
      <point x="135" y="303"/>
      <point x="113" y="223"/>
      <point x="113" y="99" type="curve"/>
      <point x="113" y="0" type="line"/>
      <point x="172" y="0" type="line"/>
      <point x="172" y="98" type="line"/>
      <point x="172" y="219"/>
      <point x="193" y="299"/>
      <point x="231" y="422" type="curve"/>
      <point x="294" y="623" type="line"/>
      <point x="294" y="668" type="line"/>
    </contour>
  </outline>
</glyph>
<glyph name="eight" format="1">
  <advance width="452"/>
  <unicode hex="0038"/>
  <outline>
    <contour>
      <point x="65" y="527" type="curve" smooth="yes"/>
      <point x="65" y="462" type="line" smooth="yes"/>
      <point x="65" y="374"/>
      <point x="114" y="318"/>
      <point x="226" y="318" type="curve" smooth="yes"/>
      <point x="338" y="318"/>
      <point x="386" y="374"/>
      <point x="386" y="462" type="curve" smooth="yes"/>
      <point x="386" y="527" type="line" smooth="yes"/>
      <point x="386" y="615"/>
      <point x="338" y="678"/>
      <point x="226" y="678" type="curve" smooth="yes"/>
      <point x="114" y="678"/>
      <point x="65" y="615"/>
    </contour>
    <contour>
      <point x="63" y="203" type="curve" smooth="yes"/>
      <point x="63" y="141" type="line" smooth="yes"/>
      <point x="63" y="53"/>
      <point x="114" y="-10"/>
      <point x="226" y="-10" type="curve" smooth="yes"/>
      <point x="338" y="-10"/>
      <point x="389" y="53"/>
      <point x="389" y="141" type="curve" smooth="yes"/>
      <point x="389" y="203" type="line" smooth="yes"/>
      <point x="389" y="291"/>
      <point x="338" y="347"/>
      <point x="226" y="347" type="curve" smooth="yes"/>
      <point x="114" y="347"/>
      <point x="63" y="291"/>
    </contour>
    <contour>
      <point x="332" y="204" type="curve" smooth="yes"/>
      <point x="332" y="141" type="line" smooth="yes"/>
      <point x="332" y="80"/>
      <point x="302" y="41"/>
      <point x="226" y="41" type="curve" smooth="yes"/>
      <point x="150" y="41"/>
      <point x="120" y="80"/>
      <point x="120" y="141" type="curve" smooth="yes"/>
      <point x="120" y="204" type="line" smooth="yes"/>
      <point x="120" y="265"/>
      <point x="150" y="307"/>
      <point x="226" y="307" type="curve" smooth="yes"/>
      <point x="302" y="307"/>
      <point x="332" y="265"/>
    </contour>
    <contour>
      <point x="329" y="527" type="curve" smooth="yes"/>
      <point x="329" y="461" type="line" smooth="yes"/>
      <point x="329" y="400"/>
      <point x="302" y="358"/>
      <point x="226" y="358" type="curve" smooth="yes"/>
      <point x="150" y="358"/>
      <point x="123" y="400"/>
      <point x="123" y="461" type="curve" smooth="yes"/>
      <point x="123" y="527" type="line" smooth="yes"/>
      <point x="123" y="588"/>
      <point x="150" y="627"/>
      <point x="226" y="627" type="curve" smooth="yes"/>
      <point x="302" y="627"/>
      <point x="329" y="588"/>
    </contour>
  </outline>
</glyph>
<glyph name="nine" format="1">
  <advance width="428"/>
  <unicode hex="0039"/>
  <outline>
    <contour>
      <point x="48" y="523" type="curve" smooth="yes"/>
      <point x="48" y="393" type="line" smooth="yes"/>
      <point x="48" y="300"/>
      <point x="106" y="247"/>
      <point x="198" y="247" type="curve" smooth="yes"/>
      <point x="239" y="247"/>
      <point x="277" y="253"/>
      <point x="308" y="269" type="curve"/>
      <point x="308" y="147" type="line" smooth="yes"/>
      <point x="308" y="94"/>
      <point x="281" y="48"/>
      <point x="191" y="48" type="curve" smooth="yes"/>
      <point x="142" y="48"/>
      <point x="97" y="59"/>
      <point x="66" y="70" type="curve"/>
      <point x="66" y="14" type="line"/>
      <point x="93" y="5"/>
      <point x="139" y="-5"/>
      <point x="191" y="-5" type="curve" smooth="yes"/>
      <point x="313" y="-5"/>
      <point x="365" y="60"/>
      <point x="365" y="145" type="curve"/>
      <point x="365" y="523" type="line"/>
      <point x="365" y="611"/>
      <point x="319" y="678"/>
      <point x="207" y="678" type="curve" smooth="yes"/>
      <point x="95" y="678"/>
      <point x="48" y="611"/>
    </contour>
    <contour>
      <point x="308" y="523" type="curve"/>
      <point x="308" y="325" type="line"/>
      <point x="281" y="308"/>
      <point x="242" y="300"/>
      <point x="202" y="300" type="curve" smooth="yes"/>
      <point x="141" y="300"/>
      <point x="106" y="329"/>
      <point x="106" y="394" type="curve" smooth="yes"/>
      <point x="106" y="523" type="line" smooth="yes"/>
      <point x="106" y="584"/>
      <point x="131" y="626"/>
      <point x="207" y="626" type="curve" smooth="yes"/>
      <point x="283" y="626"/>
      <point x="308" y="584"/>
    </contour>
  </outline>
</glyph>
<glyph name="colon" format="1">
  <advance width="193"/>
  <unicode hex="003A"/>
  <outline>
    <contour>
      <point x="31" y="385" type="curve" smooth="yes"/>
      <point x="31" y="360"/>
      <point x="40" y="345"/>
      <point x="67" y="345" type="curve" smooth="yes"/>
      <point x="94" y="345"/>
      <point x="104" y="360"/>
      <point x="104" y="385" type="curve" smooth="yes"/>
      <point x="104" y="410"/>
      <point x="94" y="425"/>
      <point x="67" y="425" type="curve" smooth="yes"/>
      <point x="40" y="425"/>
      <point x="31" y="410"/>
    </contour>
    <contour>
      <point x="31" y="35" type="curve" smooth="yes"/>
      <point x="31" y="10"/>
      <point x="40" y="-5"/>
      <point x="67" y="-5" type="curve" smooth="yes"/>
      <point x="94" y="-5"/>
      <point x="104" y="10"/>
      <point x="104" y="35" type="curve" smooth="yes"/>
      <point x="104" y="59"/>
      <point x="94" y="75"/>
      <point x="67" y="75" type="curve" smooth="yes"/>
      <point x="40" y="75"/>
      <point x="31" y="59"/>
    </contour>
  </outline>
</glyph>
<glyph name="semicolon" format="1">
  <advance width="189"/>
  <unicode hex="003B"/>
  <outline>
    <contour>
      <point x="45" y="75" type="line"/>
      <point x="5" y="-125" type="line"/>
      <point x="40" y="-125" type="line"/>
      <point x="60" y="-83"/>
      <point x="105" y="13"/>
      <point x="105" y="46" type="curve" smooth="yes"/>
      <point x="105" y="66"/>
      <point x="91" y="75"/>
      <point x="74" y="75" type="curve" smooth="yes"/>
    </contour>
    <contour>
      <point x="31" y="385" type="curve" smooth="yes"/>
      <point x="31" y="360"/>
      <point x="40" y="345"/>
      <point x="67" y="345" type="curve" smooth="yes"/>
      <point x="94" y="345"/>
      <point x="104" y="360"/>
      <point x="104" y="385" type="curve" smooth="yes"/>
      <point x="104" y="410"/>
      <point x="94" y="425"/>
      <point x="67" y="425" type="curve" smooth="yes"/>
      <point x="40" y="425"/>
      <point x="31" y="410"/>
    </contour>
  </outline>
</glyph>
<glyph name="less" format="1">
  <advance width="451"/>
  <unicode hex="003C"/>
  <outline>
    <contour>
      <point x="44" y="356" type="line"/>
      <point x="44" y="306" type="line"/>
      <point x="392" y="442" type="line"/>
      <point x="392" y="494" type="line"/>
    </contour>
    <contour>
      <point x="44" y="289" type="line"/>
      <point x="392" y="152" type="line"/>
      <point x="392" y="204" type="line"/>
      <point x="44" y="339" type="line"/>
    </contour>
  </outline>
</glyph>
<glyph name="equal" format="1">
  <advance width="427"/>
  <unicode hex="003D"/>
  <outline>
    <contour>
      <point x="39" y="433" type="line"/>
      <point x="39" y="387" type="line"/>
      <point x="387" y="387" type="line"/>
      <point x="387" y="433" type="line"/>
    </contour>
    <contour>
      <point x="39" y="259" type="line"/>
      <point x="39" y="212" type="line"/>
      <point x="387" y="212" type="line"/>
      <point x="387" y="259" type="line"/>
    </contour>
  </outline>
</glyph>
<glyph name="greater" format="1">
  <advance width="451"/>
  <unicode hex="003E"/>
  <outline>
    <contour>
      <point x="58" y="442" type="line"/>
      <point x="406" y="306" type="line"/>
      <point x="406" y="356" type="line"/>
      <point x="58" y="494" type="line"/>
    </contour>
    <contour>
      <point x="58" y="204" type="line"/>
      <point x="58" y="152" type="line"/>
      <point x="406" y="289" type="line"/>
      <point x="406" y="339" type="line"/>
    </contour>
  </outline>
</glyph>
<glyph name="question" format="1">
  <advance width="371"/>
  <unicode hex="003F"/>
  <outline>
    <contour>
      <point x="36" y="665" type="curve"/>
      <point x="36" y="608" type="line"/>
      <point x="67" y="617"/>
      <point x="109" y="623"/>
      <point x="151" y="623" type="curve" smooth="yes"/>
      <point x="241" y="623"/>
      <point x="265" y="594"/>
      <point x="265" y="540" type="curve" smooth="yes"/>
      <point x="265" y="441" type="line" smooth="yes"/>
      <point x="265" y="380"/>
      <point x="239" y="339"/>
      <point x="166" y="339" type="curve" smooth="yes"/>
      <point x="111" y="339" type="line"/>
      <point x="115" y="164" type="line"/>
      <point x="165" y="164" type="line"/>
      <point x="170" y="288" type="line"/>
      <point x="286" y="291"/>
      <point x="322" y="359"/>
      <point x="322" y="441" type="curve" smooth="yes"/>
      <point x="322" y="541" type="line" smooth="yes"/>
      <point x="322" y="627"/>
      <point x="270" y="678"/>
      <point x="150" y="678" type="curve" smooth="yes"/>
      <point x="105" y="678"/>
      <point x="63" y="672"/>
    </contour>
    <contour>
      <point x="103" y="35" type="curve" smooth="yes"/>
      <point x="103" y="10"/>
      <point x="113" y="-5"/>
      <point x="140" y="-5" type="curve" smooth="yes"/>
      <point x="167" y="-5"/>
      <point x="177" y="10"/>
      <point x="177" y="35" type="curve" smooth="yes"/>
      <point x="177" y="59"/>
      <point x="167" y="75"/>
      <point x="140" y="75" type="curve" smooth="yes"/>
      <point x="113" y="75"/>
      <point x="103" y="59"/>
    </contour>
  </outline>
</glyph>
<glyph name="at" format="1">
  <advance width="847"/>
  <unicode hex="0040"/>
  <outline>
    <contour>
      <point x="75" y="272" type="curve" smooth="yes"/>
      <point x="75" y="33"/>
      <point x="169" y="-109"/>
      <point x="427" y="-109" type="curve" smooth="yes"/>
      <point x="512" y="-109" type="line"/>
      <point x="512" y="-61" type="line"/>
      <point x="427" y="-61" type="line" smooth="yes"/>
      <point x="203" y="-61"/>
      <point x="128" y="63"/>
      <point x="128" y="272" type="curve" smooth="yes"/>
      <point x="128" y="481"/>
      <point x="203" y="605"/>
      <point x="427" y="605" type="curve" smooth="yes"/>
      <point x="652" y="605"/>
      <point x="727" y="491"/>
      <point x="727" y="282" type="curve" smooth="yes"/>
      <point x="727" y="124"/>
      <point x="686" y="79"/>
      <point x="630" y="79" type="curve" smooth="yes"/>
      <point x="582" y="79"/>
      <point x="559" y="101"/>
      <point x="559" y="159" type="curve" smooth="yes"/>
      <point x="559" y="384" type="line" smooth="yes"/>
      <point x="559" y="457"/>
      <point x="521" y="508"/>
      <point x="428" y="508" type="curve" smooth="yes"/>
      <point x="386" y="508"/>
      <point x="342" y="501"/>
      <point x="306" y="492" type="curve"/>
      <point x="306" y="443" type="line"/>
      <point x="361" y="455"/>
      <point x="389" y="460"/>
      <point x="428" y="460" type="curve" smooth="yes"/>
      <point x="492" y="460"/>
      <point x="508" y="429"/>
      <point x="508" y="384" type="curve" smooth="yes"/>
      <point x="508" y="329" type="line"/>
      <point x="401" y="296" type="line" smooth="yes"/>
      <point x="330" y="274"/>
      <point x="281" y="247"/>
      <point x="281" y="171" type="curve" smooth="yes"/>
      <point x="281" y="159" type="line" smooth="yes"/>
      <point x="281" y="85"/>
      <point x="328" y="45"/>
      <point x="406" y="45" type="curve" smooth="yes"/>
      <point x="493" y="45"/>
      <point x="531" y="83"/>
      <point x="531" y="83" type="curve"/>
      <point x="513" y="116" type="line"/>
      <point x="520" y="67"/>
      <point x="555" y="31"/>
      <point x="629" y="31" type="curve" smooth="yes"/>
      <point x="724" y="31"/>
      <point x="780" y="100"/>
      <point x="780" y="282" type="curve" smooth="yes"/>
      <point x="780" y="521"/>
      <point x="685" y="653"/>
      <point x="427" y="653" type="curve" smooth="yes"/>
      <point x="173" y="653"/>
      <point x="75" y="511"/>
    </contour>
    <contour>
      <point x="508" y="123" type="line"/>
      <point x="508" y="123"/>
      <point x="473" y="91"/>
      <point x="408" y="91" type="curve" smooth="yes"/>
      <point x="364" y="91"/>
      <point x="336" y="109"/>
      <point x="336" y="158" type="curve" smooth="yes"/>
      <point x="336" y="171" type="line" smooth="yes"/>
      <point x="336" y="224"/>
      <point x="364" y="236"/>
      <point x="411" y="250" type="curve" smooth="yes"/>
      <point x="508" y="279" type="line"/>
    </contour>
  </outline>
</glyph>
<glyph name="A" format="1">
  <advance width="429"/>
  <unicode hex="0041"/>
  <outline>
    <contour>
      <point x="200" y="668" type="line"/>
      <point x="351" y="0" type="line"/>
      <point x="410" y="0" type="line"/>
      <point x="256" y="668" type="line"/>
    </contour>
    <contour>
      <point x="85" y="244" type="line"/>
      <point x="85" y="192" type="line"/>
      <point x="335" y="192" type="line"/>
      <point x="335" y="244" type="line"/>
    </contour>
    <contour>
      <point x="173" y="668" type="line"/>
      <point x="19" y="0" type="line"/>
      <point x="78" y="0" type="line"/>
      <point x="228" y="668" type="line"/>
    </contour>
  </outline>
</glyph>
<glyph name="B" format="1">
  <advance width="463"/>
  <unicode hex="0042"/>
  <outline>
    <contour>
      <point x="108" y="348" type="line"/>
      <point x="108" y="310" type="line"/>
      <point x="239" y="310" type="line" smooth="yes"/>
      <point x="314" y="310"/>
      <point x="343" y="271"/>
      <point x="343" y="210" type="curve" smooth="yes"/>
      <point x="343" y="151" type="line" smooth="yes"/>
      <point x="343" y="90"/>
      <point x="314" y="51"/>
      <point x="239" y="51" type="curve" smooth="yes"/>
      <point x="103" y="51" type="line"/>
      <point x="103" y="0" type="line"/>
      <point x="241" y="0" type="line" smooth="yes"/>
      <point x="351" y="0"/>
      <point x="401" y="62"/>
      <point x="401" y="151" type="curve" smooth="yes"/>
      <point x="401" y="209" type="line" smooth="yes"/>
      <point x="401" y="293"/>
      <point x="354" y="348"/>
      <point x="249" y="348" type="curve" smooth="yes"/>
    </contour>
    <contour>
      <point x="73" y="668" type="line"/>
      <point x="73" y="0" type="line"/>
      <point x="130" y="0" type="line"/>
      <point x="130" y="668" type="line"/>
    </contour>
    <contour>
      <point x="103" y="668" type="line"/>
      <point x="103" y="617" type="line"/>
      <point x="233" y="617" type="line" smooth="yes"/>
      <point x="308" y="617"/>
      <point x="337" y="578"/>
      <point x="337" y="517" type="curve" smooth="yes"/>
      <point x="337" y="462" type="line" smooth="yes"/>
      <point x="337" y="400"/>
      <point x="308" y="361"/>
      <point x="233" y="361" type="curve" smooth="yes"/>
      <point x="108" y="361" type="line"/>
      <point x="108" y="324" type="line"/>
      <point x="243" y="324" type="line" smooth="yes"/>
      <point x="348" y="324"/>
      <point x="395" y="378"/>
      <point x="395" y="463" type="curve" smooth="yes"/>
      <point x="395" y="517" type="line" smooth="yes"/>
      <point x="395" y="606"/>
      <point x="345" y="668"/>
      <point x="235" y="668" type="curve" smooth="yes"/>
    </contour>
  </outline>
</glyph>
<glyph name="C" format="1">
  <advance width="391"/>
  <unicode hex="0043"/>
  <outline>
    <contour>
      <point x="63" y="535" type="curve" smooth="yes"/>
      <point x="63" y="133" type="line" smooth="yes"/>
      <point x="63" y="47"/>
      <point x="116" y="-5"/>
      <point x="236" y="-5" type="curve" smooth="yes"/>
      <point x="280" y="-5"/>
      <point x="324" y="2"/>
      <point x="352" y="11" type="curve"/>
      <point x="352" y="65" type="line"/>
      <point x="322" y="56"/>
      <point x="278" y="48"/>
      <point x="236" y="48" type="curve" smooth="yes"/>
      <point x="146" y="48"/>
      <point x="120" y="81"/>
      <point x="120" y="134" type="curve" smooth="yes"/>
      <point x="120" y="534" type="line" smooth="yes"/>
      <point x="120" y="587"/>
      <point x="146" y="620"/>
      <point x="236" y="620" type="curve" smooth="yes"/>
      <point x="278" y="620"/>
      <point x="320" y="612"/>
      <point x="350" y="603" type="curve"/>
      <point x="350" y="657" type="line"/>
      <point x="322" y="665"/>
      <point x="281" y="673"/>
      <point x="236" y="673" type="curve" smooth="yes"/>
      <point x="116" y="673"/>
      <point x="63" y="621"/>
    </contour>
  </outline>
</glyph>
<glyph name="D" format="1">
  <advance width="461"/>
  <unicode hex="0044"/>
  <outline>
    <contour>
      <point x="73" y="668" type="line"/>
      <point x="73" y="0" type="line"/>
      <point x="239" y="0" type="line" smooth="yes"/>
      <point x="349" y="0"/>
      <point x="398" y="64"/>
      <point x="398" y="151" type="curve" smooth="yes"/>
      <point x="398" y="518" type="line" smooth="yes"/>
      <point x="398" y="605"/>
      <point x="348" y="668"/>
      <point x="238" y="668" type="curve" smooth="yes"/>
    </contour>
    <contour>
      <point x="340" y="517" type="curve"/>
      <point x="340" y="152" type="line" smooth="yes"/>
      <point x="340" y="91"/>
      <point x="312" y="51"/>
      <point x="237" y="51" type="curve" smooth="yes"/>
      <point x="130" y="51" type="line"/>
      <point x="130" y="617" type="line"/>
      <point x="237" y="617" type="line" smooth="yes"/>
      <point x="312" y="617"/>
      <point x="340" y="578"/>
    </contour>
  </outline>
</glyph>
<glyph name="E" format="1">
  <advance width="393"/>
  <unicode hex="0045"/>
  <outline>
    <contour>
      <point x="73" y="668" type="line"/>
      <point x="73" y="0" type="line"/>
      <point x="354" y="0" type="line"/>
      <point x="354" y="51" type="line"/>
      <point x="130" y="51" type="line"/>
      <point x="130" y="311" type="line"/>
      <point x="326" y="311" type="line"/>
      <point x="326" y="362" type="line"/>
      <point x="130" y="362" type="line"/>
      <point x="130" y="617" type="line"/>
      <point x="354" y="617" type="line"/>
      <point x="354" y="668" type="line"/>
    </contour>
  </outline>
</glyph>
<glyph name="F" format="1">
  <advance width="365"/>
  <unicode hex="0046"/>
  <outline>
    <contour>
      <point x="73" y="668" type="line"/>
      <point x="73" y="0" type="line"/>
      <point x="130" y="0" type="line"/>
      <point x="130" y="300" type="line"/>
      <point x="336" y="300" type="line"/>
      <point x="336" y="351" type="line"/>
      <point x="130" y="351" type="line"/>
      <point x="130" y="617" type="line"/>
      <point x="345" y="617" type="line"/>
      <point x="345" y="668" type="line"/>
    </contour>
  </outline>
</glyph>
<glyph name="G" format="1">
  <advance width="445"/>
  <unicode hex="0047"/>
  <outline>
    <contour>
      <point x="63" y="530" type="curve" smooth="yes"/>
      <point x="63" y="133" type="line" smooth="yes"/>
      <point x="63" y="30"/>
      <point x="134" y="-5"/>
      <point x="221" y="-5" type="curve" smooth="yes"/>
      <point x="309" y="-5"/>
      <point x="350" y="18"/>
      <point x="378" y="34" type="curve"/>
      <point x="378" y="323" type="line"/>
      <point x="321" y="323" type="line"/>
      <point x="321" y="70" type="line"/>
      <point x="311" y="63"/>
      <point x="274" y="47"/>
      <point x="221" y="47" type="curve" smooth="yes"/>
      <point x="158" y="47"/>
      <point x="120" y="71"/>
      <point x="120" y="134" type="curve" smooth="yes"/>
      <point x="120" y="528" type="line" smooth="yes"/>
      <point x="120" y="586"/>
      <point x="150" y="620"/>
      <point x="242" y="620" type="curve" smooth="yes"/>
      <point x="288" y="620"/>
      <point x="328" y="611"/>
      <point x="359" y="601" type="curve"/>
      <point x="359" y="657" type="line"/>
      <point x="331" y="665"/>
      <point x="288" y="673"/>
      <point x="241" y="673" type="curve" smooth="yes"/>
      <point x="112" y="673"/>
      <point x="63" y="615"/>
    </contour>
  </outline>
</glyph>
<glyph name="H" format="1">
  <advance width="489"/>
  <unicode hex="0048"/>
  <outline>
    <contour>
      <point x="357" y="668" type="line"/>
      <point x="357" y="0" type="line"/>
      <point x="416" y="0" type="line"/>
      <point x="416" y="668" type="line"/>
    </contour>
    <contour>
      <point x="73" y="668" type="line"/>
      <point x="73" y="0" type="line"/>
      <point x="130" y="0" type="line"/>
      <point x="130" y="668" type="line"/>
    </contour>
    <contour>
      <point x="113" y="353" type="line"/>
      <point x="113" y="302" type="line"/>
      <point x="373" y="302" type="line"/>
      <point x="373" y="353" type="line"/>
    </contour>
  </outline>
</glyph>
<glyph name="J" format="1">
  <advance width="204"/>
  <unicode hex="004A"/>
  <outline>
    <contour>
      <point x="73" y="668" type="line"/>
      <point x="73" y="195" type="line" smooth="yes"/>
      <point x="73" y="95"/>
      <point x="60" y="32"/>
      <point x="38" y="-43" type="curve" smooth="yes"/>
      <point x="8" y="-149" type="line"/>
      <point x="67" y="-149" type="line"/>
      <point x="98" y="-44" type="line" smooth="yes"/>
      <point x="114" y="12"/>
      <point x="131" y="82"/>
      <point x="131" y="196" type="curve" smooth="yes"/>
      <point x="131" y="668" type="line"/>
    </contour>
  </outline>
</glyph>
<glyph name="K" format="1">
  <advance width="424"/>
  <unicode hex="004B"/>
  <outline>
    <contour>
      <point x="335" y="668" type="line"/>
      <point x="192" y="332" type="line"/>
      <point x="341" y="0" type="line"/>
      <point x="405" y="0" type="line"/>
      <point x="254" y="334" type="line"/>
      <point x="398" y="668" type="line"/>
    </contour>
    <contour>
      <point x="73" y="668" type="line"/>
      <point x="73" y="0" type="line"/>
      <point x="130" y="0" type="line"/>
      <point x="130" y="668" type="line"/>
    </contour>
  </outline>
</glyph>
<glyph name="L" format="1">
  <advance width="343"/>
  <unicode hex="004C"/>
  <outline>
    <contour>
      <point x="73" y="668" type="line"/>
      <point x="73" y="0" type="line"/>
      <point x="338" y="0" type="line"/>
      <point x="338" y="51" type="line"/>
      <point x="130" y="51" type="line"/>
      <point x="130" y="668" type="line"/>
    </contour>
  </outline>
</glyph>
<glyph name="M" format="1">
  <advance width="605"/>
  <unicode hex="004D"/>
  <outline>
    <contour>
      <point x="458" y="668" type="line"/>
      <point x="302" y="236" type="line"/>
      <point x="145" y="668" type="line"/>
      <point x="73" y="668" type="line"/>
      <point x="73" y="0" type="line"/>
      <point x="127" y="0" type="line"/>
      <point x="127" y="374" type="line"/>
      <point x="127" y="478"/>
      <point x="122" y="572"/>
      <point x="122" y="572" type="curve"/>
      <point x="268" y="180" type="line"/>
      <point x="336" y="180" type="line"/>
      <point x="481" y="572" type="line"/>
      <point x="481" y="572"/>
      <point x="477" y="490"/>
      <point x="477" y="373" type="curve"/>
      <point x="477" y="0" type="line"/>
      <point x="532" y="0" type="line"/>
      <point x="532" y="668" type="line"/>
    </contour>
  </outline>
</glyph>
<glyph name="O" format="1">
  <advance width="451"/>
  <unicode hex="004F"/>
  <outline>
    <contour>
      <point x="63" y="523" type="curve" smooth="yes"/>
      <point x="63" y="145" type="line" smooth="yes"/>
      <point x="63" y="57"/>
      <point x="113" y="-10"/>
      <point x="226" y="-10" type="curve" smooth="yes"/>
      <point x="338" y="-10"/>
      <point x="388" y="57"/>
      <point x="388" y="145" type="curve" smooth="yes"/>
      <point x="388" y="523" type="line" smooth="yes"/>
      <point x="388" y="611"/>
      <point x="338" y="678"/>
      <point x="226" y="678" type="curve" smooth="yes"/>
      <point x="113" y="678"/>
      <point x="63" y="611"/>
    </contour>
    <contour>
      <point x="331" y="522" type="curve" smooth="yes"/>
      <point x="331" y="146" type="line" smooth="yes"/>
      <point x="331" y="84"/>
      <point x="302" y="42"/>
      <point x="226" y="42" type="curve" smooth="yes"/>
      <point x="149" y="42"/>
      <point x="120" y="84"/>
      <point x="120" y="146" type="curve" smooth="yes"/>
      <point x="120" y="522" type="line" smooth="yes"/>
      <point x="120" y="584"/>
      <point x="149" y="626"/>
      <point x="226" y="626" type="curve" smooth="yes"/>
      <point x="302" y="626"/>
      <point x="331" y="584"/>
    </contour>
  </outline>
</glyph>
<glyph name="P" format="1">
  <advance width="434"/>
  <unicode hex="0050"/>
  <outline>
    <contour>
      <point x="73" y="668" type="line"/>
      <point x="73" y="0" type="line"/>
      <point x="130" y="0" type="line"/>
      <point x="130" y="236" type="line"/>
      <point x="226" y="236" type="line" smooth="yes"/>
      <point x="335" y="236"/>
      <point x="386" y="299"/>
      <point x="386" y="386" type="curve" smooth="yes"/>
      <point x="386" y="518" type="line" smooth="yes"/>
      <point x="386" y="605"/>
      <point x="335" y="668"/>
      <point x="226" y="668" type="curve" smooth="yes"/>
    </contour>
    <contour>
      <point x="328" y="516" type="curve" smooth="yes"/>
      <point x="328" y="388" type="line" smooth="yes"/>
      <point x="328" y="326"/>
      <point x="300" y="287"/>
      <point x="224" y="287" type="curve" smooth="yes"/>
      <point x="130" y="287" type="line"/>
      <point x="130" y="617" type="line"/>
      <point x="224" y="617" type="line" smooth="yes"/>
      <point x="300" y="617"/>
      <point x="328" y="578"/>
    </contour>
  </outline>
</glyph>
<glyph name="Q" format="1">
  <advance width="451"/>
  <unicode hex="0051"/>
  <outline>
    <contour>
      <point x="231" y="42" type="line"/>
      <point x="360" y="-103" type="line"/>
      <point x="433" y="-103" type="line"/>
      <point x="303" y="42" type="line"/>
    </contour>
    <component base="O"/>
  </outline>
</glyph>
<glyph name="R" format="1">
  <advance width="452"/>
  <unicode hex="0052"/>
  <outline>
    <contour>
      <point x="73" y="668" type="line"/>
      <point x="73" y="0" type="line"/>
      <point x="130" y="0" type="line"/>
      <point x="130" y="273" type="line"/>
      <point x="227" y="273" type="line" smooth="yes"/>
      <point x="337" y="273"/>
      <point x="386" y="336"/>
      <point x="386" y="424" type="curve" smooth="yes"/>
      <point x="386" y="518" type="line" smooth="yes"/>
      <point x="386" y="605"/>
      <point x="335" y="668"/>
      <point x="226" y="668" type="curve" smooth="yes"/>
    </contour>
    <contour>
      <point x="235" y="297" type="line"/>
      <point x="342" y="0" type="line"/>
      <point x="405" y="0" type="line"/>
      <point x="295" y="297" type="line"/>
    </contour>
    <contour>
      <point x="328" y="517" type="curve" smooth="yes"/>
      <point x="328" y="424" type="line" smooth="yes"/>
      <point x="328" y="362"/>
      <point x="300" y="326"/>
      <point x="224" y="326" type="curve" smooth="yes"/>
      <point x="130" y="326" type="line"/>
      <point x="130" y="617" type="line"/>
      <point x="224" y="617" type="line" smooth="yes"/>
      <point x="299" y="617"/>
      <point x="328" y="578"/>
    </contour>
  </outline>
</glyph>
<glyph name="S" format="1">
  <advance width="379"/>
  <unicode hex="0053"/>
  <outline>
    <contour>
      <point x="29" y="537" type="curve" smooth="yes"/>
      <point x="29" y="478" type="line" smooth="yes"/>
      <point x="29" y="411"/>
      <point x="59" y="370"/>
      <point x="114" y="340" type="curve" smooth="yes"/>
      <point x="230" y="276" type="line"/>
      <point x="274" y="253"/>
      <point x="287" y="230"/>
      <point x="287" y="184" type="curve" smooth="yes"/>
      <point x="287" y="138" type="line" smooth="yes"/>
      <point x="287" y="86"/>
      <point x="254" y="48"/>
      <point x="164" y="48" type="curve" smooth="yes"/>
      <point x="115" y="48"/>
      <point x="65" y="58"/>
      <point x="34" y="70" type="curve"/>
      <point x="34" y="14" type="line"/>
      <point x="61" y="4"/>
      <point x="112" y="-5"/>
      <point x="165" y="-5" type="curve" smooth="yes"/>
      <point x="288" y="-5"/>
      <point x="345" y="49"/>
      <point x="345" y="136" type="curve" smooth="yes"/>
      <point x="345" y="189" type="line"/>
      <point x="345" y="251"/>
      <point x="319" y="291"/>
      <point x="264" y="321" type="curve" smooth="yes"/>
      <point x="147" y="386" type="line" smooth="yes"/>
      <point x="105" y="409"/>
      <point x="87" y="435"/>
      <point x="87" y="483" type="curve" smooth="yes"/>
      <point x="87" y="537" type="line" smooth="yes"/>
      <point x="87" y="592"/>
      <point x="123" y="620"/>
      <point x="196" y="620" type="curve" smooth="yes"/>
      <point x="245" y="620"/>
      <point x="292" y="613"/>
      <point x="321" y="602" type="curve"/>
      <point x="321" y="658" type="line"/>
      <point x="294" y="666"/>
      <point x="248" y="673"/>
      <point x="196" y="673" type="curve" smooth="yes"/>
      <point x="84" y="673"/>
      <point x="29" y="620"/>
    </contour>
  </outline>
</glyph>
<glyph name="T" format="1">
  <advance width="340"/>
  <unicode hex="0054"/>
  <outline>
    <contour>
      <point x="141" y="668" type="line"/>
      <point x="141" y="0" type="line"/>
      <point x="199" y="0" type="line"/>
      <point x="199" y="668" type="line"/>
    </contour>
    <contour>
      <point x="10" y="668" type="line"/>
      <point x="10" y="617" type="line"/>
      <point x="330" y="617" type="line"/>
      <point x="330" y="668" type="line"/>
    </contour>
  </outline>
</glyph>
<glyph name="U" format="1">
  <advance width="461"/>
  <unicode hex="0055"/>
  <outline>
    <contour>
      <point x="335" y="668" type="line"/>
      <point x="335" y="146" type="line" smooth="yes"/>
      <point x="335" y="84"/>
      <point x="307" y="42"/>
      <point x="230" y="42" type="curve" smooth="yes"/>
      <point x="154" y="42"/>
      <point x="125" y="84"/>
      <point x="125" y="146" type="curve" smooth="yes"/>
      <point x="125" y="668" type="line"/>
      <point x="68" y="668" type="line"/>
      <point x="68" y="145" type="line" smooth="yes"/>
      <point x="68" y="57"/>
      <point x="118" y="-10"/>
      <point x="230" y="-10" type="curve" smooth="yes"/>
      <point x="343" y="-10"/>
      <point x="393" y="57"/>
      <point x="393" y="145" type="curve" smooth="yes"/>
      <point x="393" y="668" type="line"/>
    </contour>
  </outline>
</glyph>
<glyph name="V" format="1">
  <advance width="408"/>
  <unicode hex="0056"/>
  <outline>
    <contour>
      <point x="334" y="668" type="line"/>
      <point x="260" y="329" type="line"/>
      <point x="242" y="239"/>
      <point x="222" y="142"/>
      <point x="204" y="59" type="curve"/>
      <point x="187" y="142"/>
      <point x="167" y="238"/>
      <point x="148" y="328" type="curve"/>
      <point x="74" y="668" type="line"/>
      <point x="14" y="668" type="line"/>
      <point x="163" y="0" type="line"/>
      <point x="245" y="0" type="line"/>
      <point x="394" y="668" type="line"/>
    </contour>
  </outline>
</glyph>
<glyph name="W" format="1">
  <advance width="611"/>
  <unicode hex="0057"/>
  <outline>
    <contour>
      <point x="530" y="668" type="line"/>
      <point x="459" y="239" type="line" smooth="yes"/>
      <point x="448" y="169"/>
      <point x="434" y="63"/>
      <point x="434" y="63" type="curve"/>
      <point x="434" y="63"/>
      <point x="419" y="169"/>
      <point x="408" y="239" type="curve" smooth="yes"/>
      <point x="338" y="668" type="line"/>
      <point x="274" y="668" type="line"/>
      <point x="203" y="240" type="line" smooth="yes"/>
      <point x="189" y="151"/>
      <point x="178" y="62"/>
      <point x="178" y="62" type="curve"/>
      <point x="178" y="62"/>
      <point x="166" y="152"/>
      <point x="152" y="239" type="curve" smooth="yes"/>
      <point x="81" y="668" type="line"/>
      <point x="23" y="668" type="line"/>
      <point x="137" y="0" type="line"/>
      <point x="215" y="0" type="line"/>
      <point x="274" y="346" type="line" smooth="yes"/>
      <point x="296" y="469"/>
      <point x="305" y="578"/>
      <point x="305" y="578" type="curve"/>
      <point x="305" y="578"/>
      <point x="315" y="472"/>
      <point x="338" y="345" type="curve" smooth="yes"/>
      <point x="397" y="0" type="line"/>
      <point x="474" y="0" type="line"/>
      <point x="588" y="668" type="line"/>
    </contour>
  </outline>
</glyph>
<glyph name="X" format="1">
  <advance width="379"/>
  <unicode hex="0058"/>
  <outline>
    <contour>
      <point x="302" y="668" type="line"/>
      <point x="190" y="401" type="line"/>
      <point x="77" y="668" type="line"/>
      <point x="14" y="668" type="line"/>
      <point x="159" y="334" type="line"/>
      <point x="14" y="0" type="line"/>
      <point x="77" y="0" type="line"/>
      <point x="190" y="266" type="line"/>
      <point x="302" y="0" type="line"/>
      <point x="365" y="0" type="line"/>
      <point x="219" y="334" type="line"/>
      <point x="365" y="668" type="line"/>
    </contour>
  </outline>
</glyph>
<glyph name="Y" format="1">
  <advance width="397"/>
  <unicode hex="0059"/>
  <outline>
    <contour>
      <point x="333" y="668" type="line"/>
      <point x="260" y="472" type="line"/>
      <point x="239" y="412"/>
      <point x="219" y="356"/>
      <point x="200" y="300" type="curve"/>
      <point x="179" y="356"/>
      <point x="160" y="413"/>
      <point x="138" y="473" type="curve"/>
      <point x="64" y="668" type="line"/>
      <point x="5" y="668" type="line"/>
      <point x="170" y="229" type="line"/>
      <point x="170" y="0" type="line"/>
      <point x="227" y="0" type="line"/>
      <point x="227" y="229" type="line"/>
      <point x="392" y="668" type="line"/>
    </contour>
  </outline>
</glyph>
<glyph name="Z" format="1">
  <advance width="375"/>
  <unicode hex="005A"/>
  <outline>
    <contour>
      <point x="35" y="668" type="line"/>
      <point x="35" y="617" type="line"/>
      <point x="284" y="617" type="line"/>
      <point x="29" y="51" type="line"/>
      <point x="29" y="0" type="line"/>
      <point x="340" y="0" type="line"/>
      <point x="340" y="51" type="line"/>
      <point x="90" y="51" type="line"/>
      <point x="346" y="617" type="line"/>
      <point x="346" y="668" type="line"/>
    </contour>
  </outline>
</glyph>
<glyph name="bracketleft" format="1">
  <advance width="283"/>
  <unicode hex="005B"/>
  <outline>
    <contour>
      <point x="81" y="408" type="line"/>
      <point x="81" y="-125" type="line"/>
      <point x="255" y="-125" type="line"/>
      <point x="255" y="-79" type="line"/>
      <point x="131" y="-79" type="line"/>
      <point x="131" y="408" type="line"/>
    </contour>
    <contour>
      <point x="81" y="772" type="line"/>
      <point x="81" y="407" type="line"/>
      <point x="131" y="407" type="line"/>
      <point x="131" y="726" type="line"/>
      <point x="255" y="726" type="line"/>
      <point x="255" y="772" type="line"/>
    </contour>
  </outline>
</glyph>
<glyph name="backslash" format="1">
  <advance width="376"/>
  <unicode hex="005C"/>
  <outline>
    <contour>
      <point x="32" y="772" type="line"/>
      <point x="301" y="-125" type="line"/>
      <point x="352" y="-125" type="line"/>
      <point x="83" y="772" type="line"/>
    </contour>
  </outline>
</glyph>
<glyph name="bracketright" format="1">
  <advance width="283"/>
  <unicode hex="005D"/>
  <outline>
    <contour>
      <point x="151" y="408" type="line"/>
      <point x="151" y="-79" type="line"/>
      <point x="27" y="-79" type="line"/>
      <point x="27" y="-125" type="line"/>
      <point x="202" y="-125" type="line"/>
      <point x="202" y="408" type="line"/>
    </contour>
    <contour>
      <point x="27" y="772" type="line"/>
      <point x="27" y="726" type="line"/>
      <point x="151" y="726" type="line"/>
      <point x="151" y="407" type="line"/>
      <point x="202" y="407" type="line"/>
      <point x="202" y="772" type="line"/>
    </contour>
  </outline>
</glyph>
<glyph name="asciicircum" format="1">
  <advance width="297"/>
  <unicode hex="005E"/>
  <outline>
    <contour>
      <point x="136" y="651" type="line"/>
      <point x="234" y="376" type="line"/>
      <point x="288" y="376" type="line"/>
      <point x="187" y="651" type="line"/>
    </contour>
    <contour>
      <point x="106" y="651" type="line"/>
      <point x="4" y="376" type="line"/>
      <point x="58" y="376" type="line"/>
      <point x="156" y="651" type="line"/>
    </contour>
  </outline>
</glyph>
<glyph name="underscore" format="1">
  <advance width="462"/>
  <unicode hex="005F"/>
  <outline>
    <contour>
      <point x="1" y="-14" type="line"/>
      <point x="1" y="-60" type="line"/>
      <point x="461" y="-60" type="line"/>
      <point x="461" y="-14" type="line"/>
    </contour>
  </outline>
</glyph>
<glyph name="grave" format="1">
  <advance width="350"/>
  <unicode hex="0060"/>
  <outline>
    <contour>
      <point x="127" y="716" type="line"/>
      <point x="183" y="610" type="line"/>
      <point x="223" y="610" type="line"/>
      <point x="186" y="716" type="line"/>
    </contour>
  </outline>
</glyph>
<glyph name="a" format="1">
  <advance width="423"/>
  <unicode hex="0061"/>
  <outline>
    <contour>
      <point x="60" y="552" type="curve"/>
      <point x="60" y="496" type="line"/>
      <point x="90" y="506"/>
      <point x="141" y="516"/>
      <point x="188" y="516" type="curve" smooth="yes"/>
      <point x="278" y="516"/>
      <point x="299" y="485"/>
      <point x="299" y="431" type="curve" smooth="yes"/>
      <point x="299" y="339" type="line"/>
      <point x="154" y="298" type="line" smooth="yes"/>
      <point x="70" y="274"/>
      <point x="34" y="229"/>
      <point x="34" y="163" type="curve" smooth="yes"/>
      <point x="34" y="131" type="line" smooth="yes"/>
      <point x="34" y="48"/>
      <point x="75" y="-4"/>
      <point x="173" y="-4" type="curve" smooth="yes"/>
      <point x="241" y="-4"/>
      <point x="270" y="16"/>
      <point x="299" y="40" type="curve"/>
      <point x="299" y="0" type="line"/>
      <point x="355" y="0" type="line"/>
      <point x="355" y="431" type="line" smooth="yes"/>
      <point x="355" y="518"/>
      <point x="308" y="570"/>
      <point x="189" y="570" type="curve" smooth="yes"/>
      <point x="138" y="570"/>
      <point x="88" y="561"/>
    </contour>
    <contour>
      <point x="299" y="89" type="line"/>
      <point x="273" y="66"/>
      <point x="230" y="45"/>
      <point x="180" y="45" type="curve" smooth="yes"/>
      <point x="113" y="45"/>
      <point x="90" y="74"/>
      <point x="90" y="130" type="curve" smooth="yes"/>
      <point x="90" y="161" type="line" smooth="yes"/>
      <point x="90" y="206"/>
      <point x="108" y="232"/>
      <point x="174" y="251" type="curve" smooth="yes"/>
      <point x="299" y="286" type="line"/>
    </contour>
  </outline>
</glyph>
<glyph name="b" format="1">
  <advance width="445"/>
  <unicode hex="0062"/>
  <outline>
    <contour>
      <point x="73" y="716" type="line"/>
      <point x="73" y="0" type="line"/>
      <point x="234" y="0" type="line"/>
      <point x="322" y="0"/>
      <point x="382" y="52"/>
      <point x="382" y="148" type="curve" smooth="yes"/>
      <point x="382" y="435" type="line" smooth="yes"/>
      <point x="382" y="520"/>
      <point x="330" y="568"/>
      <point x="247" y="568" type="curve" smooth="yes"/>
      <point x="201" y="568"/>
      <point x="154" y="552"/>
      <point x="129" y="542" type="curve"/>
      <point x="129" y="716" type="line"/>
    </contour>
    <contour>
      <point x="324" y="432" type="curve" smooth="yes"/>
      <point x="324" y="150" type="line" smooth="yes"/>
      <point x="324" y="82"/>
      <point x="287" y="52"/>
      <point x="221" y="52" type="curve" smooth="yes"/>
      <point x="130" y="52" type="line"/>
      <point x="130" y="487" type="line"/>
      <point x="166" y="501"/>
      <point x="204" y="514"/>
      <point x="243" y="514" type="curve" smooth="yes"/>
      <point x="294" y="514"/>
      <point x="324" y="489"/>
    </contour>
  </outline>
</glyph>
<glyph name="c" format="1">
  <advance width="370"/>
  <unicode hex="0063"/>
  <outline>
    <contour>
      <point x="63" y="432" type="curve" smooth="yes"/>
      <point x="63" y="132" type="line" smooth="yes"/>
      <point x="63" y="46"/>
      <point x="108" y="-5"/>
      <point x="226" y="-5" type="curve" smooth="yes"/>
      <point x="271" y="-5"/>
      <point x="305" y="2"/>
      <point x="331" y="9" type="curve"/>
      <point x="331" y="63" type="line"/>
      <point x="305" y="54"/>
      <point x="269" y="48"/>
      <point x="228" y="48" type="curve" smooth="yes"/>
      <point x="139" y="48"/>
      <point x="120" y="79"/>
      <point x="120" y="133" type="curve" smooth="yes"/>
      <point x="120" y="431" type="line" smooth="yes"/>
      <point x="120" y="485"/>
      <point x="139" y="517"/>
      <point x="228" y="517" type="curve" smooth="yes"/>
      <point x="266" y="517"/>
      <point x="302" y="512"/>
      <point x="329" y="504" type="curve"/>
      <point x="329" y="557" type="line"/>
      <point x="305" y="564"/>
      <point x="270" y="570"/>
      <point x="226" y="570" type="curve" smooth="yes"/>
      <point x="108" y="570"/>
      <point x="63" y="519"/>
    </contour>
  </outline>
</glyph>
<glyph name="d" format="1">
  <advance width="444"/>
  <unicode hex="0064"/>
  <outline>
    <contour>
      <point x="314" y="716" type="line"/>
      <point x="314" y="565" type="line"/>
      <point x="212" y="565" type="line"/>
      <point x="126" y="565"/>
      <point x="63" y="515"/>
      <point x="63" y="420" type="curve"/>
      <point x="63" y="141" type="line" smooth="yes"/>
      <point x="63" y="49"/>
      <point x="111" y="-3"/>
      <point x="206" y="-3" type="curve"/>
      <point x="263" y="-3"/>
      <point x="294" y="15"/>
      <point x="315" y="32" type="curve"/>
      <point x="315" y="0" type="line"/>
      <point x="372" y="0" type="line"/>
      <point x="372" y="716" type="line"/>
    </contour>
    <contour>
      <point x="314" y="87" type="line"/>
      <point x="295" y="68"/>
      <point x="260" y="49"/>
      <point x="210" y="49" type="curve"/>
      <point x="151" y="49"/>
      <point x="120" y="79"/>
      <point x="120" y="142" type="curve" smooth="yes"/>
      <point x="120" y="420" type="line" smooth="yes"/>
      <point x="120" y="482"/>
      <point x="157" y="512"/>
      <point x="224" y="512" type="curve" smooth="yes"/>
      <point x="314" y="512" type="line"/>
    </contour>
  </outline>
</glyph>
<glyph name="e" format="1">
  <advance width="437"/>
  <unicode hex="0065"/>
  <outline>
    <contour>
      <point x="63" y="421" type="curve" smooth="yes"/>
      <point x="63" y="171" type="line"/>
      <point x="120" y="171" type="line"/>
      <point x="120" y="420" type="line" smooth="yes"/>
      <point x="120" y="481"/>
      <point x="146" y="524"/>
      <point x="221" y="524" type="curve" smooth="yes"/>
      <point x="296" y="524"/>
      <point x="323" y="481"/>
      <point x="323" y="420" type="curve" smooth="yes"/>
      <point x="323" y="260" type="line"/>
      <point x="379" y="260" type="line"/>
      <point x="379" y="421" type="line" smooth="yes"/>
      <point x="379" y="507"/>
      <point x="333" y="575"/>
      <point x="221" y="575" type="curve" smooth="yes"/>
      <point x="110" y="575"/>
      <point x="63" y="507"/>
    </contour>
    <contour>
      <point x="63" y="180" type="line"/>
      <point x="63" y="141" type="line" smooth="yes"/>
      <point x="63" y="45"/>
      <point x="122" y="-5"/>
      <point x="248" y="-5" type="curve" smooth="yes"/>
      <point x="297" y="-5"/>
      <point x="334" y="2"/>
      <point x="362" y="10" type="curve"/>
      <point x="362" y="66" type="line"/>
      <point x="332" y="57"/>
      <point x="293" y="48"/>
      <point x="249" y="48" type="curve" smooth="yes"/>
      <point x="155" y="48"/>
      <point x="120" y="82"/>
      <point x="120" y="142" type="curve" smooth="yes"/>
      <point x="120" y="180" type="line"/>
    </contour>
    <contour>
      <point x="100" y="301" type="line"/>
      <point x="100" y="251" type="line"/>
      <point x="379" y="251" type="line"/>
      <point x="379" y="301" type="line"/>
    </contour>
  </outline>
</glyph>
<glyph name="f" format="1">
  <advance width="269"/>
  <unicode hex="0066"/>
  <outline>
    <contour>
      <point x="94" y="604" type="curve" smooth="yes"/>
      <point x="94" y="565" type="line"/>
      <point x="37" y="565" type="line"/>
      <point x="37" y="515" type="line"/>
      <point x="94" y="515" type="line"/>
      <point x="94" y="0" type="line"/>
      <point x="152" y="0" type="line"/>
      <point x="152" y="515" type="line"/>
      <point x="262" y="515" type="line"/>
      <point x="262" y="565" type="line"/>
      <point x="152" y="565" type="line"/>
      <point x="152" y="605" type="line" smooth="yes"/>
      <point x="152" y="662"/>
      <point x="181" y="684"/>
      <point x="228" y="684" type="curve" smooth="yes"/>
      <point x="243" y="684"/>
      <point x="257" y="683"/>
      <point x="269" y="680" type="curve"/>
      <point x="269" y="731" type="line"/>
      <point x="257" y="734"/>
      <point x="240" y="735"/>
      <point x="226" y="735" type="curve" smooth="yes"/>
      <point x="139" y="735"/>
      <point x="94" y="687"/>
    </contour>
  </outline>
</glyph>
<glyph name="h" format="1">
  <advance width="449"/>
  <unicode hex="0068"/>
  <outline>
    <contour>
      <point x="73" y="716" type="line"/>
      <point x="73" y="0" type="line"/>
      <point x="130" y="0" type="line"/>
      <point x="130" y="486" type="line"/>
      <point x="160" y="500"/>
      <point x="203" y="514"/>
      <point x="243" y="514" type="curve" smooth="yes"/>
      <point x="293" y="514"/>
      <point x="324" y="489"/>
      <point x="324" y="432" type="curve" smooth="yes"/>
      <point x="324" y="0" type="line"/>
      <point x="381" y="0" type="line"/>
      <point x="381" y="435" type="line" smooth="yes"/>
      <point x="381" y="520"/>
      <point x="329" y="567"/>
      <point x="246" y="567" type="curve" smooth="yes"/>
      <point x="201" y="567"/>
      <point x="160" y="554"/>
      <point x="129" y="540" type="curve"/>
      <point x="129" y="716" type="line"/>
    </contour>
  </outline>
</glyph>
<glyph name="i" format="1">
  <advance width="203"/>
  <unicode hex="0069"/>
  <outline>
    <contour>
      <point x="73" y="564" type="line"/>
      <point x="73" y="0" type="line"/>
      <point x="130" y="0" type="line"/>
      <point x="130" y="564" type="line"/>
    </contour>
    <contour>
      <point x="65" y="678" type="curve" smooth="yes"/>
      <point x="65" y="653"/>
      <point x="75" y="637"/>
      <point x="102" y="637" type="curve" smooth="yes"/>
      <point x="128" y="637"/>
      <point x="138" y="653"/>
      <point x="138" y="678" type="curve" smooth="yes"/>
      <point x="138" y="702"/>
      <point x="128" y="718"/>
      <point x="102" y="718" type="curve" smooth="yes"/>
      <point x="75" y="718"/>
      <point x="65" y="702"/>
    </contour>
  </outline>
</glyph>
<glyph name="j" format="1">
  <advance width="203"/>
  <unicode hex="006A"/>
  <outline>
    <contour>
      <point x="73" y="564" type="line"/>
      <point x="73" y="-16" type="line" smooth="yes"/>
      <point x="73" y="-75"/>
      <point x="51" y="-98"/>
      <point x="1" y="-98" type="curve" smooth="yes"/>
      <point x="-8" y="-98"/>
      <point x="-17" y="-97"/>
      <point x="-25" y="-96" type="curve"/>
      <point x="-25" y="-148" type="line"/>
      <point x="-16" y="-149"/>
      <point x="-7" y="-150"/>
      <point x="2" y="-150" type="curve" smooth="yes"/>
      <point x="87" y="-150"/>
      <point x="130" y="-102"/>
      <point x="130" y="-16" type="curve" smooth="yes"/>
      <point x="130" y="564" type="line"/>
    </contour>
    <contour>
      <point x="65" y="678" type="curve" smooth="yes"/>
      <point x="65" y="653"/>
      <point x="75" y="637"/>
      <point x="102" y="637" type="curve" smooth="yes"/>
      <point x="128" y="637"/>
      <point x="138" y="653"/>
      <point x="138" y="678" type="curve" smooth="yes"/>
      <point x="138" y="702"/>
      <point x="128" y="718"/>
      <point x="102" y="718" type="curve" smooth="yes"/>
      <point x="75" y="718"/>
      <point x="65" y="702"/>
    </contour>
  </outline>
</glyph>
<glyph name="k" format="1">
  <advance width="397"/>
  <unicode hex="006B"/>
  <outline>
    <contour>
      <point x="307" y="565" type="line"/>
      <point x="174" y="291" type="line"/>
      <point x="314" y="0" type="line"/>
      <point x="378" y="0" type="line"/>
      <point x="238" y="293" type="line"/>
      <point x="370" y="565" type="line"/>
    </contour>
    <contour>
      <point x="73" y="716" type="line"/>
      <point x="73" y="0" type="line"/>
      <point x="130" y="0" type="line"/>
      <point x="130" y="716" type="line"/>
    </contour>
  </outline>
</glyph>
<glyph name="m" format="1">
  <advance width="700"/>
  <unicode hex="006D"/>
  <outline>
    <contour>
      <point x="352" y="525" type="curve"/>
      <point x="328" y="552"/>
      <point x="292" y="567"/>
      <point x="246" y="567" type="curve" smooth="yes"/>
      <point x="200" y="567"/>
      <point x="153" y="549"/>
      <point x="129" y="539" type="curve"/>
      <point x="129" y="565" type="line"/>
      <point x="73" y="565" type="line"/>
      <point x="73" y="0" type="line"/>
      <point x="130" y="0" type="line"/>
      <point x="130" y="485" type="line"/>
      <point x="166" y="502"/>
      <point x="202" y="514"/>
      <point x="242" y="514" type="curve" smooth="yes"/>
      <point x="293" y="514"/>
      <point x="324" y="489"/>
      <point x="324" y="432" type="curve" smooth="yes"/>
      <point x="324" y="0" type="line"/>
      <point x="381" y="0" type="line"/>
      <point x="381" y="432" type="line" smooth="yes"/>
      <point x="381" y="449"/>
      <point x="380" y="464"/>
      <point x="375" y="477" type="curve"/>
      <point x="415" y="502"/>
      <point x="454" y="514"/>
      <point x="493" y="514" type="curve" smooth="yes"/>
      <point x="544" y="514"/>
      <point x="575" y="489"/>
      <point x="575" y="432" type="curve" smooth="yes"/>
      <point x="575" y="0" type="line"/>
      <point x="632" y="0" type="line"/>
      <point x="632" y="435" type="line" smooth="yes"/>
      <point x="632" y="520"/>
      <point x="579" y="567"/>
      <point x="497" y="567" type="curve" smooth="yes"/>
      <point x="453" y="567"/>
      <point x="403" y="555"/>
    </contour>
  </outline>
</glyph>
<glyph name="n" format="1">
  <advance width="449"/>
  <unicode hex="006E"/>
  <outline>
    <contour>
      <point x="129" y="539" type="curve"/>
      <point x="129" y="565" type="line"/>
      <point x="73" y="565" type="line"/>
      <point x="73" y="0" type="line"/>
      <point x="130" y="0" type="line"/>
      <point x="130" y="485" type="line"/>
      <point x="166" y="502"/>
      <point x="202" y="514"/>
      <point x="242" y="514" type="curve"/>
      <point x="293" y="514"/>
      <point x="324" y="489"/>
      <point x="324" y="432" type="curve" smooth="yes"/>
      <point x="324" y="0" type="line"/>
      <point x="381" y="0" type="line"/>
      <point x="381" y="435" type="line" smooth="yes"/>
      <point x="381" y="520"/>
      <point x="328" y="567"/>
      <point x="246" y="567" type="curve"/>
      <point x="200" y="567"/>
      <point x="153" y="549"/>
    </contour>
  </outline>
</glyph>
<glyph name="o" format="1">
  <advance width="441"/>
  <unicode hex="006F"/>
  <outline>
    <contour>
      <point x="63" y="421" type="curve" smooth="yes"/>
      <point x="63" y="144" type="line" smooth="yes"/>
      <point x="63" y="57"/>
      <point x="109" y="-10"/>
      <point x="220" y="-10" type="curve" smooth="yes"/>
      <point x="332" y="-10"/>
      <point x="378" y="57"/>
      <point x="378" y="144" type="curve" smooth="yes"/>
      <point x="378" y="421" type="line" smooth="yes"/>
      <point x="378" y="508"/>
      <point x="332" y="575"/>
      <point x="220" y="575" type="curve" smooth="yes"/>
      <point x="109" y="575"/>
      <point x="63" y="508"/>
    </contour>
    <contour>
      <point x="321" y="421" type="curve" smooth="yes"/>
      <point x="321" y="144" type="line" smooth="yes"/>
      <point x="321" y="83"/>
      <point x="295" y="41"/>
      <point x="220" y="41" type="curve" smooth="yes"/>
      <point x="145" y="41"/>
      <point x="120" y="83"/>
      <point x="120" y="144" type="curve" smooth="yes"/>
      <point x="120" y="421" type="line" smooth="yes"/>
      <point x="120" y="482"/>
      <point x="145" y="524"/>
      <point x="220" y="524" type="curve" smooth="yes"/>
      <point x="295" y="524"/>
      <point x="321" y="482"/>
    </contour>
  </outline>
</glyph>
<glyph name="p" format="1">
  <advance width="445"/>
  <unicode hex="0070"/>
  <outline>
    <contour>
      <point x="129" y="538" type="curve"/>
      <point x="129" y="565" type="line"/>
      <point x="73" y="565" type="line"/>
      <point x="73" y="-149" type="line"/>
      <point x="130" y="-149" type="line"/>
      <point x="130" y="0" type="line"/>
      <point x="235" y="0" type="line" smooth="yes"/>
      <point x="323" y="0"/>
      <point x="382" y="56"/>
      <point x="382" y="150" type="curve" smooth="yes"/>
      <point x="382" y="435" type="line" smooth="yes"/>
      <point x="382" y="520"/>
      <point x="329" y="567"/>
      <point x="247" y="567" type="curve" smooth="yes"/>
      <point x="200" y="567"/>
      <point x="152" y="548"/>
    </contour>
    <contour>
      <point x="324" y="432" type="curve" smooth="yes"/>
      <point x="324" y="152" type="line" smooth="yes"/>
      <point x="324" y="86"/>
      <point x="288" y="52"/>
      <point x="222" y="52" type="curve" smooth="yes"/>
      <point x="130" y="52" type="line"/>
      <point x="130" y="485" type="line"/>
      <point x="166" y="502"/>
      <point x="202" y="514"/>
      <point x="242" y="514" type="curve" smooth="yes"/>
      <point x="293" y="514"/>
      <point x="324" y="489"/>
    </contour>
  </outline>
</glyph>
<glyph name="q" format="1">
  <advance width="444"/>
  <unicode hex="0071"/>
  <outline>
    <contour>
      <point x="215" y="565" type="line"/>
      <point x="124" y="565"/>
      <point x="63" y="509"/>
      <point x="63" y="415" type="curve" smooth="yes"/>
      <point x="63" y="143" type="line" smooth="yes"/>
      <point x="63" y="49"/>
      <point x="110" y="-3"/>
      <point x="205" y="-3" type="curve" smooth="yes"/>
      <point x="262" y="-3"/>
      <point x="294" y="14"/>
      <point x="315" y="30" type="curve"/>
      <point x="315" y="-149" type="line"/>
      <point x="372" y="-149" type="line"/>
      <point x="372" y="565" type="line"/>
    </contour>
    <contour>
      <point x="314" y="87" type="line"/>
      <point x="295" y="68"/>
      <point x="259" y="49"/>
      <point x="210" y="49" type="curve" smooth="yes"/>
      <point x="150" y="49"/>
      <point x="120" y="79"/>
      <point x="120" y="143" type="curve" smooth="yes"/>
      <point x="120" y="414" type="line" smooth="yes"/>
      <point x="120" y="481"/>
      <point x="160" y="512"/>
      <point x="227" y="512" type="curve" smooth="yes"/>
      <point x="314" y="512" type="line"/>
    </contour>
  </outline>
</glyph>
<glyph name="r" format="1">
  <advance width="276"/>
  <unicode hex="0072"/>
  <outline>
    <contour>
      <point x="245" y="568" type="line"/>
      <point x="186" y="568"/>
      <point x="166" y="549"/>
      <point x="129" y="521" type="curve"/>
      <point x="129" y="565" type="line"/>
      <point x="73" y="565" type="line"/>
      <point x="73" y="0" type="line"/>
      <point x="130" y="0" type="line"/>
      <point x="130" y="463" type="line"/>
      <point x="178" y="497"/>
      <point x="194" y="512"/>
      <point x="236" y="512" type="curve"/>
      <point x="271" y="512" type="line"/>
      <point x="271" y="568" type="line"/>
    </contour>
  </outline>
</glyph>
<glyph name="t" format="1">
  <advance width="286"/>
  <unicode hex="0074"/>
  <outline>
    <contour>
      <point x="87" y="669" type="line"/>
      <point x="71" y="565" type="line"/>
      <point x="5" y="565" type="line"/>
      <point x="5" y="514" type="line"/>
      <point x="69" y="514" type="line"/>
      <point x="69" y="118" type="line" smooth="yes"/>
      <point x="69" y="39"/>
      <point x="114" y="-3"/>
      <point x="198" y="-3" type="curve" smooth="yes"/>
      <point x="227" y="-3"/>
      <point x="261" y="3"/>
      <point x="271" y="6" type="curve"/>
      <point x="271" y="59" type="line"/>
      <point x="261" y="55"/>
      <point x="228" y="48"/>
      <point x="201" y="48" type="curve" smooth="yes"/>
      <point x="153" y="48"/>
      <point x="127" y="67"/>
      <point x="127" y="120" type="curve" smooth="yes"/>
      <point x="127" y="514" type="line"/>
      <point x="260" y="514" type="line"/>
      <point x="260" y="565" type="line"/>
      <point x="127" y="565" type="line"/>
      <point x="127" y="669" type="line"/>
    </contour>
  </outline>
</glyph>
<glyph name="u" format="1">
  <advance width="449"/>
  <unicode hex="0075"/>
  <outline>
    <contour>
      <point x="319" y="565" type="line"/>
      <point x="319" y="82" type="line"/>
      <point x="318" y="82"/>
      <point x="277" y="48"/>
      <point x="215" y="48" type="curve" smooth="yes"/>
      <point x="156" y="48"/>
      <point x="126" y="80"/>
      <point x="126" y="144" type="curve" smooth="yes"/>
      <point x="126" y="565" type="line"/>
      <point x="68" y="565" type="line"/>
      <point x="68" y="141" type="line" smooth="yes"/>
      <point x="68" y="49"/>
      <point x="116" y="-3"/>
      <point x="211" y="-3" type="curve" smooth="yes"/>
      <point x="274" y="-3"/>
      <point x="319" y="26"/>
      <point x="321" y="27" type="curve"/>
      <point x="321" y="0" type="line"/>
      <point x="377" y="0" type="line"/>
      <point x="377" y="565" type="line"/>
    </contour>
  </outline>
</glyph>
<glyph name="v" format="1">
  <advance width="377"/>
  <unicode hex="0076"/>
  <outline>
    <contour>
      <point x="299" y="565" type="line"/>
      <point x="241" y="291" type="line" smooth="yes"/>
      <point x="217" y="173"/>
      <point x="189" y="39"/>
      <point x="189" y="39" type="curve"/>
      <point x="189" y="39"/>
      <point x="163" y="173"/>
      <point x="137" y="292" type="curve" smooth="yes"/>
      <point x="78" y="565" type="line"/>
      <point x="19" y="565" type="line"/>
      <point x="145" y="0" type="line"/>
      <point x="232" y="0" type="line"/>
      <point x="358" y="565" type="line"/>
    </contour>
  </outline>
</glyph>
<glyph name="w" format="1">
  <advance width="594"/>
  <unicode hex="0077"/>
  <outline>
    <contour>
      <point x="516" y="565" type="line"/>
      <point x="426" y="52" type="line"/>
      <point x="331" y="565" type="line"/>
      <point x="263" y="565" type="line"/>
      <point x="167" y="52" type="line"/>
      <point x="78" y="565" type="line"/>
      <point x="19" y="565" type="line"/>
      <point x="124" y="0" type="line"/>
      <point x="210" y="0" type="line"/>
      <point x="266" y="297" type="line"/>
      <point x="283" y="382"/>
      <point x="296" y="485"/>
      <point x="297" y="489" type="curve"/>
      <point x="297" y="485"/>
      <point x="314" y="369"/>
      <point x="328" y="297" type="curve" smooth="yes"/>
      <point x="384" y="0" type="line"/>
      <point x="470" y="0" type="line"/>
      <point x="575" y="565" type="line"/>
    </contour>
  </outline>
</glyph>
<glyph name="x" format="1">
  <advance width="354"/>
  <unicode hex="0078"/>
  <outline>
    <contour>
      <point x="285" y="565" type="line"/>
      <point x="177" y="341" type="line"/>
      <point x="69" y="565" type="line"/>
      <point x="10" y="565" type="line"/>
      <point x="147" y="282" type="line"/>
      <point x="10" y="0" type="line"/>
      <point x="69" y="0" type="line"/>
      <point x="177" y="224" type="line"/>
      <point x="285" y="0" type="line"/>
      <point x="345" y="0" type="line"/>
      <point x="206" y="282" type="line"/>
      <point x="345" y="565" type="line"/>
    </contour>
  </outline>
</glyph>
<glyph name="y" format="1">
  <advance width="378"/>
  <unicode hex="0079"/>
  <outline>
    <contour>
      <point x="299" y="565" type="line"/>
      <point x="234" y="265" type="line"/>
      <point x="211" y="156"/>
      <point x="188" y="39"/>
      <point x="188" y="39" type="curve"/>
      <point x="188" y="39"/>
      <point x="167" y="156"/>
      <point x="143" y="266" type="curve" smooth="yes"/>
      <point x="79" y="565" type="line"/>
      <point x="19" y="565" type="line"/>
      <point x="145" y="0" type="line"/>
      <point x="176" y="0" type="line"/>
      <point x="145" y="-149" type="line"/>
      <point x="200" y="-149" type="line"/>
      <point x="359" y="565" type="line"/>
    </contour>
  </outline>
</glyph>
<glyph name="z" format="1">
  <advance width="313"/>
  <unicode hex="007A"/>
  <outline>
    <contour>
      <point x="26" y="565" type="line"/>
      <point x="26" y="514" type="line"/>
      <point x="233" y="514" type="line"/>
      <point x="20" y="49" type="line"/>
      <point x="20" y="0" type="line"/>
      <point x="292" y="0" type="line"/>
      <point x="292" y="51" type="line"/>
      <point x="76" y="51" type="line"/>
      <point x="293" y="517" type="line"/>
      <point x="293" y="565" type="line"/>
    </contour>
  </outline>
</glyph>
<glyph name="braceleft" format="1">
  <advance width="341"/>
  <unicode hex="007B"/>
  <outline>
    <contour>
      <point x="191" y="651" type="line"/>
      <point x="191" y="693"/>
      <point x="213" y="722"/>
      <point x="279" y="722" type="curve" smooth="yes"/>
      <point x="289" y="722" type="line"/>
      <point x="289" y="771" type="line"/>
      <point x="278" y="771" type="line" smooth="yes"/>
      <point x="189" y="771"/>
      <point x="139" y="725"/>
      <point x="139" y="650" type="curve" smooth="yes"/>
      <point x="139" y="420" type="line" smooth="yes"/>
      <point x="139" y="377"/>
      <point x="113" y="347"/>
      <point x="62" y="347" type="curve" smooth="yes"/>
      <point x="60" y="347" type="line"/>
      <point x="60" y="299" type="line"/>
      <point x="62" y="299" type="line" smooth="yes"/>
      <point x="113" y="299"/>
      <point x="139" y="270"/>
      <point x="139" y="226" type="curve" smooth="yes"/>
      <point x="139" y="-4" type="line" smooth="yes"/>
      <point x="139" y="-79"/>
      <point x="189" y="-125"/>
      <point x="278" y="-125" type="curve" smooth="yes"/>
      <point x="289" y="-125" type="line"/>
      <point x="289" y="-76" type="line"/>
      <point x="279" y="-76" type="line" smooth="yes"/>
      <point x="213" y="-76"/>
      <point x="191" y="-47"/>
      <point x="191" y="-5" type="curve" smooth="yes"/>
      <point x="191" y="205" type="line" smooth="yes"/>
      <point x="191" y="275"/>
      <point x="173" y="316"/>
      <point x="106" y="323" type="curve"/>
      <point x="173" y="331"/>
      <point x="191" y="372"/>
      <point x="191" y="442" type="curve" smooth="yes"/>
    </contour>
  </outline>
</glyph>
<glyph name="bar" format="1">
  <advance width="205"/>
  <unicode hex="007C"/>
  <outline>
    <contour>
      <point x="79" y="791" type="line"/>
      <point x="79" y="-144" type="line"/>
      <point x="126" y="-144" type="line"/>
      <point x="126" y="791" type="line"/>
    </contour>
  </outline>
</glyph>
<glyph name="braceright" format="1">
  <advance width="341"/>
  <unicode hex="007D"/>
  <outline>
    <contour>
      <point x="279" y="347" type="line"/>
      <point x="227" y="347"/>
      <point x="201" y="377"/>
      <point x="201" y="420" type="curve" smooth="yes"/>
      <point x="201" y="650" type="line" smooth="yes"/>
      <point x="201" y="725"/>
      <point x="152" y="771"/>
      <point x="63" y="771" type="curve" smooth="yes"/>
      <point x="51" y="771" type="line"/>
      <point x="51" y="722" type="line"/>
      <point x="61" y="722" type="line" smooth="yes"/>
      <point x="128" y="722"/>
      <point x="150" y="693"/>
      <point x="150" y="651" type="curve" smooth="yes"/>
      <point x="150" y="442" type="line" smooth="yes"/>
      <point x="150" y="372"/>
      <point x="167" y="331"/>
      <point x="235" y="323" type="curve"/>
      <point x="167" y="316"/>
      <point x="150" y="275"/>
      <point x="150" y="205" type="curve" smooth="yes"/>
      <point x="150" y="-5" type="line" smooth="yes"/>
      <point x="150" y="-47"/>
      <point x="128" y="-76"/>
      <point x="61" y="-76" type="curve" smooth="yes"/>
      <point x="51" y="-76" type="line"/>
      <point x="51" y="-125" type="line"/>
      <point x="63" y="-125" type="line" smooth="yes"/>
      <point x="152" y="-125"/>
      <point x="201" y="-79"/>
      <point x="201" y="-4" type="curve" smooth="yes"/>
      <point x="201" y="226" type="line" smooth="yes"/>
      <point x="201" y="270"/>
      <point x="227" y="299"/>
      <point x="279" y="299" type="curve" smooth="yes"/>
      <point x="281" y="299" type="line"/>
      <point x="281" y="347" type="line"/>
    </contour>
  </outline>
</glyph>
<glyph name="asciitilde" format="1">
  <advance width="394"/>
  <unicode hex="007E"/>
  <outline>
    <contour>
      <point x="324" y="387" type="line"/>
      <point x="334" y="329"/>
      <point x="294" y="317"/>
      <point x="240" y="343" type="curve" smooth="yes"/>
      <point x="161" y="380" type="line" smooth="yes"/>
      <point x="96" y="411"/>
      <point x="23" y="387"/>
      <point x="23" y="311" type="curve"/>
      <point x="23" y="298"/>
      <point x="25" y="287"/>
      <point x="25" y="287" type="curve"/>
      <point x="70" y="287" type="line"/>
      <point x="60" y="345"/>
      <point x="103" y="354"/>
      <point x="154" y="330" type="curve"/>
      <point x="233" y="293" type="line"/>
      <point x="299" y="263"/>
      <point x="371" y="286"/>
      <point x="371" y="363" type="curve"/>
      <point x="371" y="375"/>
      <point x="368" y="387"/>
      <point x="368" y="387" type="curve"/>
    </contour>
  </outline>
</glyph>
<glyph name="cent" format="1">
  <advance width="403"/>
  <unicode hex="00A2"/>
  <outline>
    <contour>
      <point x="208" y="14" type="line"/>
      <point x="208" y="-79" type="line"/>
      <point x="260" y="-79" type="line"/>
      <point x="260" y="14" type="line"/>
    </contour>
    <contour>
      <point x="207" y="653" type="line"/>
      <point x="207" y="561" type="line"/>
      <point x="259" y="561" type="line"/>
      <point x="259" y="653" type="line"/>
    </contour>
    <component base="c" xOffset="9"/>
  </outline>
</glyph>
<glyph name="sterling" format="1">
  <advance width="449"/>
  <unicode hex="00A3"/>
  <outline>
    <contour>
      <point x="120" y="520" type="curve" smooth="yes"/>
      <point x="120" y="150" type="line" smooth="yes"/>
      <point x="120" y="49"/>
      <point x="47" y="55"/>
      <point x="44" y="54" type="curve"/>
      <point x="44" y="0" type="line"/>
      <point x="414" y="0" type="line"/>
      <point x="414" y="54" type="line"/>
      <point x="131" y="54" type="line"/>
      <point x="138" y="57"/>
      <point x="177" y="73"/>
      <point x="177" y="154" type="curve"/>
      <point x="177" y="519" type="line" smooth="yes"/>
      <point x="177" y="574"/>
      <point x="194" y="615"/>
      <point x="284" y="615" type="curve" smooth="yes"/>
      <point x="332" y="615"/>
      <point x="377" y="603"/>
      <point x="408" y="592" type="curve"/>
      <point x="408" y="649" type="line"/>
      <point x="380" y="658"/>
      <point x="335" y="669"/>
      <point x="283" y="669" type="curve" smooth="yes"/>
      <point x="165" y="669"/>
      <point x="120" y="608"/>
    </contour>
    <contour>
      <point x="59" y="370" type="line"/>
      <point x="59" y="321" type="line"/>
      <point x="354" y="321" type="line"/>
      <point x="354" y="370" type="line"/>
    </contour>
  </outline>
</glyph>
<glyph name="currency" format="1">
  <advance width="460"/>
  <unicode hex="00A4"/>
  <outline>
    <contour>
      <point x="81" y="371" type="curve" smooth="yes"/>
      <point x="81" y="297" type="line" smooth="yes"/>
      <point x="81" y="210"/>
      <point x="118" y="152"/>
      <point x="230" y="152" type="curve" smooth="yes"/>
      <point x="343" y="152"/>
      <point x="380" y="210"/>
      <point x="380" y="297" type="curve" smooth="yes"/>
      <point x="380" y="371" type="line" smooth="yes"/>
      <point x="380" y="458"/>
      <point x="343" y="516"/>
      <point x="230" y="516" type="curve" smooth="yes"/>
      <point x="118" y="516"/>
      <point x="81" y="458"/>
    </contour>
    <contour>
      <point x="49" y="181" type="line"/>
      <point x="88" y="142" type="line"/>
      <point x="161" y="213" type="line"/>
      <point x="119" y="249" type="line"/>
    </contour>
    <contour>
      <point x="312" y="200" type="line"/>
      <point x="373" y="142" type="line"/>
      <point x="411" y="181" type="line"/>
      <point x="348" y="242" type="line"/>
    </contour>
    <contour>
      <point x="323" y="370" type="curve" smooth="yes"/>
      <point x="323" y="298" type="line" smooth="yes"/>
      <point x="323" y="236"/>
      <point x="306" y="202"/>
      <point x="230" y="202" type="curve" smooth="yes"/>
      <point x="154" y="202"/>
      <point x="137" y="236"/>
      <point x="137" y="298" type="curve" smooth="yes"/>
      <point x="137" y="370" type="line" smooth="yes"/>
      <point x="137" y="432"/>
      <point x="154" y="466"/>
      <point x="230" y="466" type="curve" smooth="yes"/>
      <point x="306" y="466"/>
      <point x="323" y="432"/>
    </contour>
    <contour>
      <point x="49" y="487" type="line"/>
      <point x="119" y="419" type="line"/>
      <point x="158" y="458" type="line"/>
      <point x="88" y="526" type="line"/>
    </contour>
    <contour>
      <point x="310" y="466" type="line"/>
      <point x="342" y="420" type="line"/>
      <point x="411" y="487" type="line"/>
      <point x="373" y="526" type="line"/>
    </contour>
  </outline>
</glyph>
<glyph name="yen" format="1">
  <advance width="458"/>
  <unicode hex="00A5"/>
  <outline>
    <contour>
      <point x="379" y="648" type="line"/>
      <point x="268" y="356" type="line"/>
      <point x="239" y="279" type="line"/>
      <point x="209" y="356" type="line"/>
      <point x="96" y="648" type="line"/>
      <point x="40" y="648" type="line"/>
      <point x="135" y="408" type="line"/>
      <point x="40" y="408" type="line"/>
      <point x="40" y="362" type="line"/>
      <point x="153" y="362" type="line"/>
      <point x="196" y="255" type="line"/>
      <point x="40" y="255" type="line"/>
      <point x="40" y="210" type="line"/>
      <point x="211" y="210" type="line"/>
      <point x="211" y="0" type="line"/>
      <point x="265" y="0" type="line"/>
      <point x="265" y="210" type="line"/>
      <point x="434" y="210" type="line"/>
      <point x="434" y="255" type="line"/>
      <point x="279" y="255" type="line"/>
      <point x="322" y="362" type="line"/>
      <point x="434" y="362" type="line"/>
      <point x="434" y="408" type="line"/>
      <point x="340" y="408" type="line"/>
      <point x="435" y="648" type="line"/>
    </contour>
  </outline>
</glyph>
<glyph name="section" format="1">
  <advance width="358"/>
  <unicode hex="00A7"/>
  <outline>
    <contour>
      <point x="30" y="533" type="curve" smooth="yes"/>
      <point x="30" y="518" type="line" smooth="yes"/>
      <point x="30" y="453"/>
      <point x="60" y="416"/>
      <point x="116" y="392" type="curve" smooth="yes"/>
      <point x="205" y="352" type="line" smooth="yes"/>
      <point x="258" y="328"/>
      <point x="271" y="311"/>
      <point x="271" y="271" type="curve" smooth="yes"/>
      <point x="271" y="258" type="line"/>
      <point x="328" y="258" type="line"/>
      <point x="328" y="276" type="line" smooth="yes"/>
      <point x="328" y="337"/>
      <point x="292" y="370"/>
      <point x="236" y="396" type="curve" smooth="yes"/>
      <point x="150" y="436" type="line" smooth="yes"/>
      <point x="104" y="456"/>
      <point x="87" y="469"/>
      <point x="87" y="527" type="curve" smooth="yes"/>
      <point x="87" y="587"/>
      <point x="105" y="616"/>
      <point x="195" y="616" type="curve" smooth="yes"/>
      <point x="236" y="616"/>
      <point x="274" y="610"/>
      <point x="304" y="599" type="curve"/>
      <point x="304" y="654" type="line"/>
      <point x="275" y="663"/>
      <point x="235" y="669"/>
      <point x="194" y="669" type="curve" smooth="yes"/>
      <point x="75" y="669"/>
      <point x="30" y="622"/>
    </contour>
    <contour>
      <point x="95" y="260" type="line"/>
      <point x="38" y="260" type="line"/>
      <point x="38" y="242" type="line" smooth="yes"/>
      <point x="38" y="177"/>
      <point x="68" y="140"/>
      <point x="124" y="116" type="curve" smooth="yes"/>
      <point x="213" y="76" type="line" smooth="yes"/>
      <point x="266" y="52"/>
      <point x="278" y="35"/>
      <point x="278" y="-10" type="curve" smooth="yes"/>
      <point x="278" y="-70"/>
      <point x="251" y="-96"/>
      <point x="159" y="-96" type="curve" smooth="yes"/>
      <point x="111" y="-96"/>
      <point x="73" y="-90"/>
      <point x="43" y="-80" type="curve"/>
      <point x="43" y="-134" type="line"/>
      <point x="71" y="-143"/>
      <point x="109" y="-149"/>
      <point x="161" y="-149" type="curve" smooth="yes"/>
      <point x="280" y="-149"/>
      <point x="336" y="-101"/>
      <point x="336" y="-14" type="curve" smooth="yes"/>
      <point x="336" y="0" type="line" smooth="yes"/>
      <point x="336" y="61"/>
      <point x="300" y="94"/>
      <point x="244" y="121" type="curve" smooth="yes"/>
      <point x="158" y="161" type="line" smooth="yes"/>
      <point x="112" y="181"/>
      <point x="95" y="199"/>
      <point x="95" y="248" type="curve" smooth="yes"/>
    </contour>
  </outline>
</glyph>
<glyph name="dieresis" format="1">
  <advance width="350"/>
  <unicode hex="00A8"/>
  <outline>
    <contour>
      <point x="75" y="661" type="curve" smooth="yes"/>
      <point x="75" y="641"/>
      <point x="85" y="627"/>
      <point x="110" y="627" type="curve" smooth="yes"/>
      <point x="136" y="627"/>
      <point x="145" y="641"/>
      <point x="145" y="661" type="curve" smooth="yes"/>
      <point x="145" y="681"/>
      <point x="136" y="696"/>
      <point x="110" y="696" type="curve" smooth="yes"/>
      <point x="85" y="696"/>
      <point x="75" y="681"/>
    </contour>
    <contour>
      <point x="204" y="661" type="curve" smooth="yes"/>
      <point x="204" y="641"/>
      <point x="213" y="627"/>
      <point x="239" y="627" type="curve" smooth="yes"/>
      <point x="264" y="627"/>
      <point x="274" y="641"/>
      <point x="274" y="661" type="curve" smooth="yes"/>
      <point x="274" y="681"/>
      <point x="264" y="696"/>
      <point x="239" y="696" type="curve" smooth="yes"/>
      <point x="213" y="696"/>
      <point x="204" y="681"/>
    </contour>
  </outline>
</glyph>
<glyph name="copyright" format="1">
  <advance width="683"/>
  <unicode hex="00A9"/>
  <outline>
    <contour>
      <point x="49" y="322" type="curve" smooth="yes"/>
      <point x="49" y="135"/>
      <point x="111" y="0"/>
      <point x="343" y="0" type="curve" smooth="yes"/>
      <point x="570" y="0"/>
      <point x="634" y="138"/>
      <point x="634" y="322" type="curve" smooth="yes"/>
      <point x="634" y="512"/>
      <point x="583" y="646"/>
      <point x="343" y="646" type="curve" smooth="yes"/>
      <point x="105" y="646"/>
      <point x="49" y="509"/>
    </contour>
    <contour>
      <point x="226" y="376" type="curve" smooth="yes"/>
      <point x="226" y="269" type="line" smooth="yes"/>
      <point x="226" y="192"/>
      <point x="258" y="143"/>
      <point x="356" y="143" type="curve" smooth="yes"/>
      <point x="381" y="143"/>
      <point x="410" y="147"/>
      <point x="431" y="150" type="curve"/>
      <point x="431" y="201" type="line"/>
      <point x="410" y="195"/>
      <point x="392" y="191"/>
      <point x="357" y="191" type="curve" smooth="yes"/>
      <point x="282" y="191"/>
      <point x="277" y="225"/>
      <point x="277" y="270" type="curve" smooth="yes"/>
      <point x="277" y="376" type="line" smooth="yes"/>
      <point x="277" y="420"/>
      <point x="282" y="455"/>
      <point x="357" y="455" type="curve" smooth="yes"/>
      <point x="391" y="455"/>
      <point x="409" y="452"/>
      <point x="430" y="445" type="curve"/>
      <point x="430" y="495" type="line"/>
      <point x="410" y="499"/>
      <point x="381" y="502"/>
      <point x="356" y="502" type="curve" smooth="yes"/>
      <point x="258" y="502"/>
      <point x="226" y="454"/>
    </contour>
    <contour>
      <point x="583" y="322" type="curve" smooth="yes"/>
      <point x="583" y="165"/>
      <point x="546" y="48"/>
      <point x="343" y="48" type="curve" smooth="yes"/>
      <point x="135" y="48"/>
      <point x="100" y="162"/>
      <point x="100" y="322" type="curve" smooth="yes"/>
      <point x="100" y="482"/>
      <point x="132" y="598"/>
      <point x="343" y="598" type="curve" smooth="yes"/>
      <point x="553" y="598"/>
      <point x="583" y="484"/>
    </contour>
  </outline>
</glyph>
<glyph name="ordfeminine" format="1">
  <advance width="339"/>
  <unicode hex="00AA"/>
  <outline>
    <contour>
      <point x="51" y="726" type="curve"/>
      <point x="51" y="683" type="line"/>
      <point x="77" y="692"/>
      <point x="134" y="703"/>
      <point x="169" y="703" type="curve" smooth="yes"/>
      <point x="229" y="703"/>
      <point x="247" y="683"/>
      <point x="249" y="646" type="curve"/>
      <point x="249" y="557" type="line"/>
      <point x="146" y="540" type="line" smooth="yes"/>
      <point x="80" y="527"/>
      <point x="34" y="500"/>
      <point x="34" y="435" type="curve" smooth="yes"/>
      <point x="34" y="398" type="line" smooth="yes"/>
      <point x="34" y="327"/>
      <point x="66" y="288"/>
      <point x="150" y="288" type="curve" smooth="yes"/>
      <point x="186" y="288"/>
      <point x="230" y="300"/>
      <point x="249" y="324" type="curve"/>
      <point x="249" y="289" type="line"/>
      <point x="293" y="289" type="line"/>
      <point x="293" y="642" type="line" smooth="yes"/>
      <point x="293" y="707"/>
      <point x="254" y="745"/>
      <point x="170" y="745" type="curve" smooth="yes"/>
      <point x="134" y="745"/>
      <point x="81" y="736"/>
    </contour>
    <contour>
      <point x="249" y="365" type="line"/>
      <point x="231" y="340"/>
      <point x="191" y="326"/>
      <point x="159" y="326" type="curve" smooth="yes"/>
      <point x="92" y="326"/>
      <point x="78" y="351"/>
      <point x="78" y="398" type="curve" smooth="yes"/>
      <point x="78" y="434" type="line" smooth="yes"/>
      <point x="78" y="474"/>
      <point x="107" y="492"/>
      <point x="154" y="500" type="curve" smooth="yes"/>
      <point x="249" y="515" type="line"/>
    </contour>
  </outline>
</glyph>
<glyph name="guillemotleft" format="1">
  <advance width="435"/>
  <unicode hex="00AB"/>
  <outline>
    <contour>
      <point x="351" y="505" type="line"/>
      <point x="230" y="322" type="line"/>
      <point x="351" y="139" type="line"/>
      <point x="412" y="139" type="line"/>
      <point x="290" y="322" type="line"/>
      <point x="412" y="505" type="line"/>
    </contour>
    <contour>
      <point x="182" y="505" type="line"/>
      <point x="61" y="322" type="line"/>
      <point x="182" y="139" type="line"/>
      <point x="242" y="139" type="line"/>
      <point x="120" y="322" type="line"/>
      <point x="242" y="505" type="line"/>
    </contour>
  </outline>
</glyph>
<glyph name="logicalnot" format="1">
  <advance width="442"/>
  <unicode hex="00AC"/>
  <outline>
    <contour>
      <point x="73" y="353" type="line"/>
      <point x="73" y="302" type="line"/>
      <point x="311" y="302" type="line"/>
      <point x="311" y="204" type="line"/>
      <point x="370" y="204" type="line"/>
      <point x="370" y="353" type="line"/>
    </contour>
  </outline>
</glyph>
<glyph name="softhyphen" format="1">
  <advance width="214"/>
  <unicode hex="00AD"/>
  <outline>
    <contour>
      <point x="40" y="347" type="line"/>
      <point x="40" y="300" type="line"/>
      <point x="179" y="300" type="line"/>
      <point x="179" y="347" type="line"/>
    </contour>
  </outline>
</glyph>
<glyph name="registered" format="1">
  <advance width="495"/>
  <unicode hex="00AE"/>
  <outline>
    <contour>
      <point x="66" y="516" type="curve" smooth="yes"/>
      <point x="66" y="379"/>
      <point x="108" y="312"/>
      <point x="257" y="312" type="curve" smooth="yes"/>
      <point x="414" y="312"/>
      <point x="453" y="382"/>
      <point x="453" y="516" type="curve" smooth="yes"/>
      <point x="453" y="656"/>
      <point x="411" y="724"/>
      <point x="259" y="724" type="curve" smooth="yes"/>
      <point x="110" y="724"/>
      <point x="66" y="655"/>
    </contour>
    <contour>
      <point x="264" y="505" type="line"/>
      <point x="310" y="392" type="line"/>
      <point x="354" y="392" type="line"/>
      <point x="304" y="505" type="line"/>
    </contour>
    <contour>
      <point x="411" y="516" type="curve" smooth="yes"/>
      <point x="411" y="395"/>
      <point x="391" y="349"/>
      <point x="257" y="349" type="curve" smooth="yes"/>
      <point x="128" y="349"/>
      <point x="108" y="395"/>
      <point x="108" y="516" type="curve" smooth="yes"/>
      <point x="108" y="643"/>
      <point x="129" y="688"/>
      <point x="259" y="688" type="curve" smooth="yes"/>
      <point x="388" y="688"/>
      <point x="411" y="643"/>
    </contour>
    <contour>
      <point x="187" y="646" type="line"/>
      <point x="187" y="392" type="line"/>
      <point x="228" y="392" type="line"/>
      <point x="228" y="487" type="line"/>
      <point x="256" y="487" type="line"/>
      <point x="315" y="487"/>
      <point x="343" y="511"/>
      <point x="343" y="569" type="curve" smooth="yes"/>
      <point x="343" y="622"/>
      <point x="315" y="646"/>
      <point x="257" y="646" type="curve" smooth="yes"/>
    </contour>
    <contour>
      <point x="307" y="569" type="curve" smooth="yes"/>
      <point x="307" y="530"/>
      <point x="290" y="521"/>
      <point x="253" y="521" type="curve" smooth="yes"/>
      <point x="228" y="521" type="line"/>
      <point x="228" y="611" type="line"/>
      <point x="259" y="611" type="line" smooth="yes"/>
      <point x="289" y="611"/>
      <point x="307" y="608"/>
    </contour>
  </outline>
</glyph>
<glyph name="macron" format="1">
  <advance width="350"/>
  <unicode hex="00AF"/>
  <outline>
    <contour>
      <point x="68" y="684" type="line"/>
      <point x="68" y="642" type="line"/>
      <point x="282" y="642" type="line"/>
      <point x="282" y="684" type="line"/>
    </contour>
  </outline>
</glyph>
<glyph name="degree" format="1">
  <advance width="359"/>
  <unicode hex="00B0"/>
  <outline>
    <contour>
      <point x="54" y="646" type="curve" smooth="yes"/>
      <point x="54" y="569"/>
      <point x="86" y="509"/>
      <point x="182" y="509" type="curve" smooth="yes"/>
      <point x="278" y="509"/>
      <point x="311" y="569"/>
      <point x="311" y="646" type="curve" smooth="yes"/>
      <point x="311" y="724"/>
      <point x="278" y="785"/>
      <point x="182" y="785" type="curve" smooth="yes"/>
      <point x="86" y="785"/>
      <point x="54" y="724"/>
    </contour>
    <contour>
      <point x="265" y="645" type="curve" smooth="yes"/>
      <point x="265" y="594"/>
      <point x="253" y="553"/>
      <point x="182" y="553" type="curve" smooth="yes"/>
      <point x="112" y="553"/>
      <point x="100" y="594"/>
      <point x="100" y="645" type="curve" smooth="yes"/>
      <point x="100" y="697"/>
      <point x="112" y="738"/>
      <point x="182" y="738" type="curve" smooth="yes"/>
      <point x="253" y="738"/>
      <point x="265" y="697"/>
    </contour>
  </outline>
</glyph>
<glyph name="plusminus" format="1">
  <advance width="427"/>
  <unicode hex="00B1"/>
  <outline>
    <contour>
      <point x="40" y="96" type="line"/>
      <point x="41" y="49" type="line"/>
      <point x="387" y="49" type="line"/>
      <point x="387" y="96" type="line"/>
    </contour>
    <contour>
      <point x="40" y="347" type="line"/>
      <point x="40" y="300" type="line"/>
      <point x="387" y="300" type="line"/>
      <point x="387" y="347" type="line"/>
    </contour>
    <contour>
      <point x="188" y="493" type="line"/>
      <point x="188" y="154" type="line"/>
      <point x="240" y="154" type="line"/>
      <point x="240" y="493" type="line"/>
    </contour>
  </outline>
</glyph>
<glyph name="twosuperior" format="1">
  <advance width="291"/>
  <unicode hex="00B2"/>
  <outline>
    <contour>
      <point x="41" y="736" type="curve"/>
      <point x="41" y="693" type="line"/>
      <point x="52" y="696"/>
      <point x="91" y="703"/>
      <point x="139" y="703" type="curve" smooth="yes"/>
      <point x="201" y="703"/>
      <point x="217" y="682"/>
      <point x="217" y="642" type="curve" smooth="yes"/>
      <point x="217" y="624" type="line" smooth="yes"/>
      <point x="217" y="589"/>
      <point x="213" y="564"/>
      <point x="177" y="540" type="curve" smooth="yes"/>
      <point x="112" y="498" type="line" smooth="yes"/>
      <point x="49" y="457"/>
      <point x="28" y="432"/>
      <point x="28" y="366" type="curve" smooth="yes"/>
      <point x="28" y="289" type="line"/>
      <point x="264" y="289" type="line"/>
      <point x="264" y="331" type="line"/>
      <point x="72" y="331" type="line"/>
      <point x="72" y="367" type="line" smooth="yes"/>
      <point x="72" y="414"/>
      <point x="76" y="422"/>
      <point x="137" y="464" type="curve" smooth="yes"/>
      <point x="199" y="506" type="line" smooth="yes"/>
      <point x="247" y="539"/>
      <point x="261" y="569"/>
      <point x="261" y="623" type="curve" smooth="yes"/>
      <point x="261" y="642" type="line" smooth="yes"/>
      <point x="261" y="708"/>
      <point x="222" y="745"/>
      <point x="139" y="745" type="curve" smooth="yes"/>
      <point x="98" y="745"/>
      <point x="52" y="738"/>
    </contour>
  </outline>
</glyph>
<glyph name="threesuperior" format="1">
  <advance width="308"/>
  <unicode hex="00B3"/>
  <outline>
    <contour>
      <point x="44" y="738" type="curve"/>
      <point x="44" y="695" type="line"/>
      <point x="64" y="698"/>
      <point x="86" y="703"/>
      <point x="134" y="703" type="curve" smooth="yes"/>
      <point x="196" y="703"/>
      <point x="214" y="682"/>
      <point x="214" y="642" type="curve" smooth="yes"/>
      <point x="214" y="606" type="line" smooth="yes"/>
      <point x="214" y="572"/>
      <point x="206" y="540"/>
      <point x="144" y="540" type="curve" smooth="yes"/>
      <point x="101" y="540" type="line"/>
      <point x="101" y="499" type="line"/>
      <point x="144" y="499" type="line" smooth="yes"/>
      <point x="206" y="498"/>
      <point x="214" y="470"/>
      <point x="214" y="436" type="curve" smooth="yes"/>
      <point x="214" y="388" type="line" smooth="yes"/>
      <point x="214" y="348"/>
      <point x="195" y="327"/>
      <point x="133" y="327" type="curve" smooth="yes"/>
      <point x="85" y="327"/>
      <point x="65" y="331"/>
      <point x="33" y="339" type="curve"/>
      <point x="33" y="296" type="line"/>
      <point x="60" y="289"/>
      <point x="92" y="285"/>
      <point x="133" y="285" type="curve" smooth="yes"/>
      <point x="216" y="285"/>
      <point x="258" y="322"/>
      <point x="258" y="388" type="curve" smooth="yes"/>
      <point x="258" y="436" type="line" smooth="yes"/>
      <point x="258" y="472"/>
      <point x="245" y="507"/>
      <point x="212" y="520" type="curve"/>
      <point x="244" y="533"/>
      <point x="258" y="571"/>
      <point x="258" y="606" type="curve" smooth="yes"/>
      <point x="258" y="647" type="line" smooth="yes"/>
      <point x="256" y="710"/>
      <point x="215" y="745"/>
      <point x="134" y="745" type="curve" smooth="yes"/>
      <point x="87" y="745"/>
      <point x="61" y="741"/>
    </contour>
  </outline>
</glyph>
<glyph name="acute" format="1">
  <advance width="350"/>
  <unicode hex="00B4"/>
  <outline>
    <contour>
      <point x="164" y="716" type="line"/>
      <point x="127" y="610" type="line"/>
      <point x="167" y="610" type="line"/>
      <point x="223" y="716" type="line"/>
    </contour>
  </outline>
</glyph>
<glyph name="mu.math" format="1">
  <advance width="454"/>
  <unicode hex="00B5"/>
  <outline>
    <contour>
      <point x="324" y="565" type="line"/>
      <point x="324" y="86" type="line"/>
      <point x="323" y="86"/>
      <point x="281" y="50"/>
      <point x="219" y="50" type="curve" smooth="yes"/>
      <point x="158" y="50"/>
      <point x="130" y="70"/>
      <point x="130" y="71" type="curve"/>
      <point x="130" y="565" type="line"/>
      <point x="72" y="565" type="line"/>
      <point x="72" y="-151" type="line"/>
      <point x="130" y="-151" type="line"/>
      <point x="130" y="13" type="line"/>
      <point x="148" y="6"/>
      <point x="182" y="-2"/>
      <point x="218" y="-2" type="curve" smooth="yes"/>
      <point x="280" y="-1"/>
      <point x="324" y="26"/>
      <point x="325" y="27" type="curve"/>
      <point x="325" y="0" type="line"/>
      <point x="381" y="0" type="line"/>
      <point x="381" y="565" type="line"/>
    </contour>
  </outline>
</glyph>
<glyph name="paragraph" format="1">
  <advance width="394"/>
  <unicode hex="00B6"/>
  <outline>
    <contour>
      <point x="225" y="669" type="line"/>
      <point x="116" y="669"/>
      <point x="65" y="606"/>
      <point x="65" y="519" type="curve"/>
      <point x="65" y="431"/>
      <point x="116" y="368"/>
      <point x="225" y="368" type="curve" smooth="yes"/>
      <point x="262" y="368" type="line"/>
      <point x="262" y="1" type="line"/>
      <point x="319" y="1" type="line"/>
      <point x="319" y="669" type="line"/>
    </contour>
  </outline>
</glyph>
<glyph name="periodcentered" format="1">
  <advance width="203"/>
  <unicode hex="00B7"/>
  <outline>
    <contour>
      <point x="67" y="344" type="curve" smooth="yes"/>
      <point x="67" y="323"/>
      <point x="77" y="308"/>
      <point x="103" y="308" type="curve" smooth="yes"/>
      <point x="130" y="308"/>
      <point x="139" y="323"/>
      <point x="139" y="344" type="curve" smooth="yes"/>
      <point x="139" y="365"/>
      <point x="130" y="380"/>
      <point x="103" y="380" type="curve" smooth="yes"/>
      <point x="77" y="380"/>
      <point x="67" y="365"/>
    </contour>
  </outline>
</glyph>
<glyph name="cedilla" format="1">
  <advance width="350"/>
  <unicode hex="00B8"/>
  <outline>
    <contour>
      <point x="150" y="6" type="line"/>
      <point x="135" y="-68" type="line"/>
      <point x="149" y="-68" type="line" smooth="yes"/>
      <point x="186" y="-68"/>
      <point x="205" y="-80"/>
      <point x="205" y="-107" type="curve" smooth="yes"/>
      <point x="205" y="-133"/>
      <point x="182" y="-145"/>
      <point x="150" y="-145" type="curve" smooth="yes"/>
      <point x="134" y="-145"/>
      <point x="117" y="-142"/>
      <point x="106" y="-137" type="curve"/>
      <point x="106" y="-173" type="line"/>
      <point x="120" y="-178"/>
      <point x="139" y="-180"/>
      <point x="156" y="-180" type="curve" smooth="yes"/>
      <point x="204" y="-180"/>
      <point x="243" y="-155"/>
      <point x="243" y="-107" type="curve" smooth="yes"/>
      <point x="243" y="-65"/>
      <point x="214" y="-42"/>
      <point x="174" y="-40" type="curve"/>
      <point x="184" y="6" type="line"/>
    </contour>
  </outline>
</glyph>
<glyph name="onesuperior" format="1">
  <advance width="225"/>
  <unicode hex="00B9"/>
  <outline>
    <contour>
      <point x="114" y="741" type="line"/>
      <point x="25" y="672" type="line"/>
      <point x="25" y="619" type="line"/>
      <point x="125" y="698" type="line"/>
      <point x="125" y="289" type="line"/>
      <point x="169" y="289" type="line"/>
      <point x="169" y="741" type="line"/>
    </contour>
  </outline>
</glyph>
<glyph name="ordmasculine" format="1">
  <advance width="338"/>
  <unicode hex="00BA"/>
  <outline>
    <contour>
      <point x="48" y="642" type="curve" smooth="yes"/>
      <point x="48" y="388" type="line" smooth="yes"/>
      <point x="48" y="322"/>
      <point x="87" y="285"/>
      <point x="170" y="285" type="curve" smooth="yes"/>
      <point x="254" y="285"/>
      <point x="293" y="322"/>
      <point x="293" y="388" type="curve" smooth="yes"/>
      <point x="293" y="642" type="line" smooth="yes"/>
      <point x="293" y="708"/>
      <point x="254" y="745"/>
      <point x="170" y="745" type="curve" smooth="yes"/>
      <point x="87" y="745"/>
      <point x="48" y="708"/>
    </contour>
    <contour>
      <point x="249" y="647" type="curve" smooth="yes"/>
      <point x="249" y="388" type="line" smooth="yes"/>
      <point x="249" y="348"/>
      <point x="232" y="327"/>
      <point x="170" y="327" type="curve" smooth="yes"/>
      <point x="108" y="327"/>
      <point x="92" y="348"/>
      <point x="92" y="388" type="curve" smooth="yes"/>
      <point x="92" y="647" type="line" smooth="yes"/>
      <point x="92" y="683"/>
      <point x="110" y="703"/>
      <point x="170" y="703" type="curve" smooth="yes"/>
      <point x="229" y="703"/>
      <point x="247" y="683"/>
    </contour>
  </outline>
</glyph>
<glyph name="guillemotright" format="1">
  <advance width="435"/>
  <unicode hex="00BB"/>
  <outline>
    <contour>
      <point x="191" y="505" type="line"/>
      <point x="313" y="322" type="line"/>
      <point x="191" y="139" type="line"/>
      <point x="252" y="139" type="line"/>
      <point x="373" y="322" type="line"/>
      <point x="252" y="505" type="line"/>
    </contour>
    <contour>
      <point x="22" y="505" type="line"/>
      <point x="144" y="322" type="line"/>
      <point x="22" y="139" type="line"/>
      <point x="82" y="139" type="line"/>
      <point x="203" y="322" type="line"/>
      <point x="82" y="505" type="line"/>
    </contour>
  </outline>
</glyph>
<glyph name="onequarter" format="1">
  <advance width="780"/>
  <unicode hex="00BC"/>
  <outline>
    <contour>
      <point x="130" y="668" type="line"/>
      <point x="40" y="599" type="line"/>
      <point x="40" y="546" type="line"/>
      <point x="140" y="625" type="line"/>
      <point x="140" y="216" type="line"/>
      <point x="184" y="216" type="line"/>
      <point x="184" y="668" type="line"/>
    </contour>
    <contour>
      <point x="603" y="452" type="line"/>
      <point x="440" y="143" type="line"/>
      <point x="440" y="102" type="line"/>
      <point x="628" y="102" type="line"/>
      <point x="628" y="0" type="line"/>
      <point x="670" y="0" type="line"/>
      <point x="670" y="102" type="line"/>
      <point x="721" y="102" type="line"/>
      <point x="721" y="142" type="line"/>
      <point x="670" y="142" type="line"/>
      <point x="670" y="452" type="line"/>
    </contour>
    <contour>
      <point x="628" y="142" type="line"/>
      <point x="483" y="142" type="line"/>
      <point x="628" y="418" type="line"/>
    </contour>
    <contour>
      <point x="480" y="668" type="line"/>
      <point x="158" y="0" type="line"/>
      <point x="204" y="0" type="line"/>
      <point x="526" y="668" type="line"/>
    </contour>
  </outline>
</glyph>
<glyph name="threequarters" format="1">
  <advance width="822"/>
  <unicode hex="00BE"/>
  <outline>
    <contour>
      <point x="645" y="452" type="line"/>
      <point x="482" y="143" type="line"/>
      <point x="482" y="102" type="line"/>
      <point x="671" y="102" type="line"/>
      <point x="671" y="0" type="line"/>
      <point x="713" y="0" type="line"/>
      <point x="713" y="102" type="line"/>
      <point x="763" y="102" type="line"/>
      <point x="763" y="142" type="line"/>
      <point x="713" y="142" type="line"/>
      <point x="713" y="452" type="line"/>
    </contour>
    <contour>
      <point x="671" y="142" type="line"/>
      <point x="526" y="142" type="line"/>
      <point x="671" y="418" type="line"/>
    </contour>
    <contour>
      <point x="541" y="668" type="line"/>
      <point x="219" y="0" type="line"/>
      <point x="265" y="0" type="line"/>
      <point x="587" y="668" type="line"/>
    </contour>
    <contour>
      <point x="51" y="666" type="curve"/>
      <point x="51" y="623" type="line"/>
      <point x="71" y="627"/>
      <point x="93" y="631"/>
      <point x="141" y="631" type="curve" smooth="yes"/>
      <point x="202" y="631"/>
      <point x="220" y="610"/>
      <point x="220" y="570" type="curve" smooth="yes"/>
      <point x="220" y="534" type="line" smooth="yes"/>
      <point x="220" y="500"/>
      <point x="213" y="469"/>
      <point x="151" y="469" type="curve" smooth="yes"/>
      <point x="107" y="469" type="line"/>
      <point x="107" y="427" type="line"/>
      <point x="151" y="427" type="line" smooth="yes"/>
      <point x="213" y="426"/>
      <point x="220" y="398"/>
      <point x="220" y="364" type="curve" smooth="yes"/>
      <point x="220" y="316" type="line" smooth="yes"/>
      <point x="220" y="276"/>
      <point x="201" y="255"/>
      <point x="140" y="255" type="curve" smooth="yes"/>
      <point x="92" y="255"/>
      <point x="71" y="260"/>
      <point x="40" y="267" type="curve"/>
      <point x="40" y="224" type="line"/>
      <point x="67" y="217"/>
      <point x="99" y="213"/>
      <point x="140" y="213" type="curve" smooth="yes"/>
      <point x="223" y="213"/>
      <point x="265" y="250"/>
      <point x="265" y="316" type="curve" smooth="yes"/>
      <point x="265" y="364" type="line" smooth="yes"/>
      <point x="265" y="400"/>
      <point x="252" y="435"/>
      <point x="219" y="448" type="curve"/>
      <point x="251" y="461"/>
      <point x="265" y="499"/>
      <point x="265" y="534" type="curve" smooth="yes"/>
      <point x="265" y="575" type="line" smooth="yes"/>
      <point x="263" y="638"/>
      <point x="222" y="673"/>
      <point x="141" y="673" type="curve" smooth="yes"/>
      <point x="94" y="673"/>
      <point x="68" y="669"/>
    </contour>
  </outline>
</glyph>
<glyph name="AE" format="1">
  <advance width="648"/>
  <unicode hex="00C6"/>
  <outline>
    <contour>
      <point x="319" y="668" type="line"/>
      <point x="9" y="0" type="line"/>
      <point x="71" y="0" type="line"/>
      <point x="374" y="668" type="line"/>
    </contour>
    <contour>
      <point x="140" y="244" type="line"/>
      <point x="140" y="192" type="line"/>
      <point x="395" y="192" type="line"/>
      <point x="395" y="244" type="line"/>
    </contour>
    <contour>
      <point x="354" y="668" type="line"/>
      <point x="354" y="0" type="line"/>
      <point x="635" y="0" type="line"/>
      <point x="635" y="51" type="line"/>
      <point x="411" y="51" type="line"/>
      <point x="411" y="311" type="line"/>
      <point x="606" y="311" type="line"/>
      <point x="606" y="362" type="line"/>
      <point x="411" y="362" type="line"/>
      <point x="411" y="617" type="line"/>
      <point x="635" y="617" type="line"/>
      <point x="635" y="668" type="line"/>
    </contour>
  </outline>
</glyph>
<glyph name="Eth" format="1">
  <advance width="461"/>
  <unicode hex="00D0"/>
  <outline>
    <contour>
      <point x="-2" y="353" type="line"/>
      <point x="-2" y="302" type="line"/>
      <point x="248" y="302" type="line"/>
      <point x="248" y="353" type="line"/>
    </contour>
    <component base="D" xOffset="1"/>
  </outline>
</glyph>
<glyph name="multiply" format="1">
  <advance width="354"/>
  <unicode hex="00D7"/>
  <outline>
    <contour>
      <point x="28" y="439" type="line"/>
      <point x="293" y="174" type="line"/>
      <point x="326" y="207" type="line"/>
      <point x="61" y="472" type="line"/>
    </contour>
    <contour>
      <point x="28" y="207" type="line"/>
      <point x="61" y="174" type="line"/>
      <point x="326" y="439" type="line"/>
      <point x="293" y="472" type="line"/>
    </contour>
  </outline>
</glyph>
<glyph name="Oslash" format="1">
  <advance width="451"/>
  <unicode hex="00D8"/>
  <outline>
    <contour>
      <point x="341" y="668" type="line"/>
      <point x="62" y="0" type="line"/>
      <point x="110" y="0" type="line"/>
      <point x="389" y="668" type="line"/>
    </contour>
    <component base="O"/>
  </outline>
</glyph>
<glyph name="Thorn" format="1">
  <advance width="425"/>
  <unicode hex="00DE"/>
  <outline>
    <contour>
      <point x="124" y="544" type="line"/>
      <point x="124" y="492" type="line"/>
      <point x="234" y="492" type="line" smooth="yes"/>
      <point x="309" y="492"/>
      <point x="338" y="454"/>
      <point x="338" y="392" type="curve" smooth="yes"/>
      <point x="338" y="276" type="line" smooth="yes"/>
      <point x="338" y="214"/>
      <point x="309" y="177"/>
      <point x="234" y="177" type="curve" smooth="yes"/>
      <point x="128" y="177" type="line"/>
      <point x="128" y="124" type="line"/>
      <point x="235" y="124" type="line" smooth="yes"/>
      <point x="345" y="124"/>
      <point x="395" y="187"/>
      <point x="395" y="275" type="curve" smooth="yes"/>
      <point x="395" y="393" type="line" smooth="yes"/>
      <point x="395" y="481"/>
      <point x="345" y="544"/>
      <point x="235" y="544" type="curve" smooth="yes"/>
    </contour>
    <contour>
      <point x="83" y="668" type="line"/>
      <point x="83" y="0" type="line"/>
      <point x="140" y="0" type="line"/>
      <point x="140" y="668" type="line"/>
    </contour>
  </outline>
</glyph>
<glyph name="germandbls" format="1">
  <advance width="531"/>
  <unicode hex="00DF"/>
  <outline>
    <contour>
      <point x="73" y="554" type="curve" smooth="yes"/>
      <point x="73" y="0" type="line"/>
      <point x="130" y="0" type="line"/>
      <point x="130" y="553" type="line" smooth="yes"/>
      <point x="130" y="626"/>
      <point x="166" y="662"/>
      <point x="253" y="662" type="curve" smooth="yes"/>
      <point x="330" y="662"/>
      <point x="362" y="627"/>
      <point x="362" y="568" type="curve" smooth="yes"/>
      <point x="362" y="479"/>
      <point x="270" y="465"/>
      <point x="270" y="379" type="curve" smooth="yes"/>
      <point x="270" y="367" type="line" smooth="yes"/>
      <point x="270" y="310"/>
      <point x="297" y="285"/>
      <point x="386" y="240" type="curve" smooth="yes"/>
      <point x="439" y="213"/>
      <point x="452" y="194"/>
      <point x="452" y="155" type="curve" smooth="yes"/>
      <point x="452" y="135" type="line" smooth="yes"/>
      <point x="452" y="85"/>
      <point x="425" y="49"/>
      <point x="334" y="49" type="curve" smooth="yes"/>
      <point x="286" y="49"/>
      <point x="249" y="57"/>
      <point x="219" y="68" type="curve"/>
      <point x="219" y="12" type="line"/>
      <point x="247" y="3"/>
      <point x="284" y="-5"/>
      <point x="335" y="-5" type="curve" smooth="yes"/>
      <point x="454" y="-5"/>
      <point x="509" y="50"/>
      <point x="509" y="134" type="curve" smooth="yes"/>
      <point x="509" y="159" type="line" smooth="yes"/>
      <point x="509" y="218"/>
      <point x="476" y="248"/>
      <point x="411" y="282" type="curve" smooth="yes"/>
      <point x="335" y="321"/>
      <point x="327" y="343"/>
      <point x="327" y="371" type="curve" smooth="yes"/>
      <point x="327" y="381" type="line" smooth="yes"/>
      <point x="327" y="439"/>
      <point x="420" y="465"/>
      <point x="420" y="568" type="curve" smooth="yes"/>
      <point x="420" y="660"/>
      <point x="355" y="714"/>
      <point x="253" y="714" type="curve" smooth="yes"/>
      <point x="136" y="714"/>
      <point x="73" y="660"/>
    </contour>
  </outline>
</glyph>
<glyph name="ae" format="1">
  <advance width="649"/>
  <unicode hex="00E6"/>
  <outline>
    <contour>
      <point x="330" y="517" type="curve"/>
      <point x="305" y="551"/>
      <point x="259" y="570"/>
      <point x="189" y="570" type="curve" smooth="yes"/>
      <point x="138" y="570"/>
      <point x="88" y="561"/>
      <point x="60" y="552" type="curve"/>
      <point x="60" y="496" type="line"/>
      <point x="90" y="506"/>
      <point x="141" y="516"/>
      <point x="188" y="516" type="curve" smooth="yes"/>
      <point x="278" y="516"/>
      <point x="299" y="485"/>
      <point x="299" y="432" type="curve" smooth="yes"/>
      <point x="299" y="339" type="line"/>
      <point x="154" y="298" type="line" smooth="yes"/>
      <point x="70" y="274"/>
      <point x="34" y="229"/>
      <point x="34" y="163" type="curve" smooth="yes"/>
      <point x="34" y="131" type="line" smooth="yes"/>
      <point x="34" y="48"/>
      <point x="76" y="-4"/>
      <point x="175" y="-4" type="curve" smooth="yes"/>
      <point x="236" y="-4"/>
      <point x="297" y="16"/>
      <point x="332" y="46" type="curve"/>
      <point x="361" y="12"/>
      <point x="413" y="-5"/>
      <point x="487" y="-5" type="curve" smooth="yes"/>
      <point x="536" y="-5"/>
      <point x="573" y="2"/>
      <point x="601" y="10" type="curve"/>
      <point x="601" y="66" type="line"/>
      <point x="571" y="57"/>
      <point x="532" y="48"/>
      <point x="488" y="48" type="curve" smooth="yes"/>
      <point x="395" y="48"/>
      <point x="356" y="81"/>
      <point x="356" y="142" type="curve" smooth="yes"/>
      <point x="356" y="251" type="line"/>
      <point x="618" y="251" type="line"/>
      <point x="618" y="421" type="line" smooth="yes"/>
      <point x="618" y="507"/>
      <point x="572" y="575"/>
      <point x="460" y="575" type="curve" smooth="yes"/>
      <point x="397" y="575"/>
      <point x="353" y="547"/>
    </contour>
    <contour>
      <point x="299" y="84" type="line"/>
      <point x="273" y="61"/>
      <point x="230" y="45"/>
      <point x="180" y="45" type="curve" smooth="yes"/>
      <point x="114" y="45"/>
      <point x="90" y="74"/>
      <point x="90" y="130" type="curve"/>
      <point x="90" y="161" type="line" smooth="yes"/>
      <point x="90" y="206"/>
      <point x="108" y="232"/>
      <point x="174" y="251" type="curve" smooth="yes"/>
      <point x="299" y="286" type="line"/>
    </contour>
    <contour>
      <point x="562" y="420" type="curve" smooth="yes"/>
      <point x="562" y="301" type="line"/>
      <point x="356" y="301" type="line"/>
      <point x="356" y="420" type="line"/>
      <point x="356" y="481"/>
      <point x="385" y="524"/>
      <point x="460" y="524" type="curve" smooth="yes"/>
      <point x="535" y="524"/>
      <point x="562" y="481"/>
    </contour>
  </outline>
</glyph>
<glyph name="igrave" format="1">
  <advance width="203"/>
  <unicode hex="00EC"/>
  <outline>
    <contour>
      <point x="73" y="564" type="line"/>
      <point x="73" y="0" type="line"/>
      <point x="130" y="0" type="line"/>
      <point x="130" y="564" type="line"/>
    </contour>
    <component base="grave" xOffset="-102"/>
  </outline>
</glyph>
<glyph name="iacute" format="1">
  <advance width="203"/>
  <unicode hex="00ED"/>
  <outline>
    <contour>
      <point x="73" y="564" type="line"/>
      <point x="73" y="0" type="line"/>
      <point x="130" y="0" type="line"/>
      <point x="130" y="564" type="line"/>
    </contour>
    <component base="acute" xOffset="-45"/>
  </outline>
</glyph>
<glyph name="icircumflex" format="1">
  <advance width="203"/>
  <unicode hex="00EE"/>
  <outline>
    <contour>
      <point x="73" y="564" type="line"/>
      <point x="73" y="0" type="line"/>
      <point x="130" y="0" type="line"/>
      <point x="130" y="564" type="line"/>
    </contour>
    <component base="circumflex" xOffset="-72"/>
  </outline>
</glyph>
<glyph name="idieresis" format="1">
  <advance width="203"/>
  <unicode hex="00EF"/>
  <outline>
    <contour>
      <point x="73" y="564" type="line"/>
      <point x="73" y="0" type="line"/>
      <point x="130" y="0" type="line"/>
      <point x="130" y="564" type="line"/>
    </contour>
    <component base="dieresis" xOffset="-73"/>
  </outline>
</glyph>
<glyph name="divide" format="1">
  <advance width="427"/>
  <unicode hex="00F7"/>
  <outline>
    <contour>
      <point x="40" y="345" type="line"/>
      <point x="40" y="298" type="line"/>
      <point x="387" y="298" type="line"/>
      <point x="387" y="345" type="line"/>
    </contour>
    <contour>
      <point x="180" y="149" type="curve" smooth="yes"/>
      <point x="180" y="128"/>
      <point x="190" y="113"/>
      <point x="217" y="113" type="curve" smooth="yes"/>
      <point x="243" y="113"/>
      <point x="253" y="128"/>
      <point x="253" y="149" type="curve" smooth="yes"/>
      <point x="253" y="170"/>
      <point x="243" y="185"/>
      <point x="217" y="185" type="curve" smooth="yes"/>
      <point x="190" y="185"/>
      <point x="180" y="170"/>
    </contour>
    <contour>
      <point x="180" y="492" type="curve" smooth="yes"/>
      <point x="180" y="471"/>
      <point x="190" y="456"/>
      <point x="217" y="456" type="curve" smooth="yes"/>
      <point x="243" y="456"/>
      <point x="253" y="471"/>
      <point x="253" y="492" type="curve" smooth="yes"/>
      <point x="253" y="513"/>
      <point x="243" y="528"/>
      <point x="217" y="528" type="curve" smooth="yes"/>
      <point x="190" y="528"/>
      <point x="180" y="513"/>
    </contour>
  </outline>
</glyph>
<glyph name="oslash" format="1">
  <advance width="441"/>
  <unicode hex="00F8"/>
  <outline>
    <contour>
      <point x="334" y="565" type="line"/>
      <point x="70" y="0" type="line"/>
      <point x="116" y="0" type="line"/>
      <point x="380" y="565" type="line"/>
    </contour>
    <component base="o"/>
  </outline>
</glyph>
<glyph name="dcaron" format="1">
  <advance width="447"/>
  <unicode hex="010F"/>
  <outline>
    <contour>
      <point x="314" y="716" type="line"/>
      <point x="314" y="565" type="line"/>
      <point x="212" y="565" type="line"/>
      <point x="126" y="565"/>
      <point x="63" y="515"/>
      <point x="63" y="420" type="curve"/>
      <point x="63" y="141" type="line" smooth="yes"/>
      <point x="63" y="49"/>
      <point x="111" y="-3"/>
      <point x="206" y="-3" type="curve"/>
      <point x="263" y="-3"/>
      <point x="294" y="15"/>
      <point x="315" y="32" type="curve"/>
      <point x="315" y="0" type="line"/>
      <point x="372" y="0" type="line"/>
      <point x="372" y="716" type="line"/>
    </contour>
    <contour>
      <point x="314" y="87" type="line"/>
      <point x="295" y="68"/>
      <point x="260" y="49"/>
      <point x="210" y="49" type="curve"/>
      <point x="151" y="49"/>
      <point x="120" y="79"/>
      <point x="120" y="142" type="curve" smooth="yes"/>
      <point x="120" y="420" type="line" smooth="yes"/>
      <point x="120" y="482"/>
      <point x="157" y="512"/>
      <point x="224" y="512" type="curve" smooth="yes"/>
      <point x="314" y="512" type="line"/>
    </contour>
    <contour>
      <point x="439" y="714" type="line"/>
      <point x="412" y="598" type="line"/>
      <point x="445" y="598" type="line"/>
      <point x="458" y="618"/>
      <point x="490" y="669"/>
      <point x="490" y="689" type="curve" smooth="yes"/>
      <point x="490" y="706"/>
      <point x="478" y="714"/>
      <point x="464" y="714" type="curve" smooth="yes"/>
    </contour>
  </outline>
</glyph>
<glyph name="Dcroat" format="1">
  <advance width="461"/>
  <unicode hex="0110"/>
  <outline>
    <contour>
      <point x="13" y="360" type="line"/>
      <point x="13" y="309" type="line"/>
      <point x="240" y="309" type="line"/>
      <point x="240" y="360" type="line"/>
    </contour>
    <component base="D" xOffset="1"/>
  </outline>
</glyph>
<glyph name="dcroat" format="1">
  <advance width="445"/>
  <unicode hex="0111"/>
  <outline>
    <contour>
      <point x="191" y="669" type="line"/>
      <point x="191" y="626" type="line"/>
      <point x="412" y="626" type="line"/>
      <point x="412" y="669" type="line"/>
    </contour>
    <component base="d"/>
  </outline>
</glyph>
<glyph name="gcommaaccent" format="1">
  <advance width="445"/>
  <unicode hex="0123"/>
  <outline>
    <contour>
      <point x="96" y="151" type="curve" smooth="yes"/>
      <point x="96" y="135" type="line" smooth="yes"/>
      <point x="96" y="80"/>
      <point x="139" y="50"/>
      <point x="216" y="50" type="curve" smooth="yes"/>
      <point x="276" y="50" type="line" smooth="yes"/>
      <point x="345" y="50"/>
      <point x="355" y="22"/>
      <point x="355" y="-16" type="curve" smooth="yes"/>
      <point x="355" y="-26" type="line" smooth="yes"/>
      <point x="355" y="-70"/>
      <point x="324" y="-98"/>
      <point x="233" y="-98" type="curve" smooth="yes"/>
      <point x="194" y="-98" type="line" smooth="yes"/>
      <point x="126" y="-98"/>
      <point x="83" y="-86"/>
      <point x="43" y="-63" type="curve"/>
      <point x="43" y="-120" type="line"/>
      <point x="73" y="-136"/>
      <point x="124" y="-149"/>
      <point x="195" y="-149" type="curve" smooth="yes"/>
      <point x="235" y="-149" type="line" smooth="yes"/>
      <point x="364" y="-149"/>
      <point x="412" y="-101"/>
      <point x="412" y="-26" type="curve" smooth="yes"/>
      <point x="412" y="-14" type="line" smooth="yes"/>
      <point x="412" y="59"/>
      <point x="374" y="100"/>
      <point x="277" y="100" type="curve" smooth="yes"/>
      <point x="218" y="100" type="line" smooth="yes"/>
      <point x="166" y="100"/>
      <point x="148" y="117"/>
      <point x="148" y="150" type="curve" smooth="yes"/>
      <point x="148" y="190"/>
      <point x="169" y="208"/>
      <point x="210" y="208" type="curve"/>
      <point x="198" y="213"/>
      <point x="186" y="219"/>
      <point x="171" y="219" type="curve"/>
      <point x="134" y="220"/>
      <point x="96" y="197"/>
    </contour>
    <contour>
      <point x="47" y="431" type="curve" smooth="yes"/>
      <point x="47" y="352" type="line" smooth="yes"/>
      <point x="47" y="265"/>
      <point x="98" y="208"/>
      <point x="210" y="208" type="curve" smooth="yes"/>
      <point x="322" y="208"/>
      <point x="372" y="265"/>
      <point x="372" y="352" type="curve" smooth="yes"/>
      <point x="372" y="431" type="line" smooth="yes"/>
      <point x="372" y="518"/>
      <point x="322" y="575"/>
      <point x="210" y="575" type="curve" smooth="yes"/>
      <point x="98" y="575"/>
      <point x="47" y="518"/>
    </contour>
    <contour>
      <point x="315" y="431" type="curve" smooth="yes"/>
      <point x="315" y="352" type="line" smooth="yes"/>
      <point x="315" y="291"/>
      <point x="285" y="259"/>
      <point x="210" y="259" type="curve" smooth="yes"/>
      <point x="134" y="259"/>
      <point x="105" y="291"/>
      <point x="105" y="352" type="curve" smooth="yes"/>
      <point x="105" y="431" type="line" smooth="yes"/>
      <point x="105" y="492"/>
      <point x="134" y="524"/>
      <point x="210" y="524" type="curve" smooth="yes"/>
      <point x="285" y="524"/>
      <point x="315" y="492"/>
    </contour>
    <contour>
      <point x="406" y="604" type="line"/>
      <point x="358" y="604"/>
      <point x="323" y="580"/>
      <point x="315" y="531" type="curve"/>
      <point x="328" y="517" type="line"/>
      <point x="340" y="534"/>
      <point x="360" y="546"/>
      <point x="388" y="546" type="curve" smooth="yes"/>
      <point x="421" y="546" type="line"/>
      <point x="421" y="604" type="line"/>
    </contour>
    <contour>
      <point x="235" y="610" type="line"/>
      <point x="261" y="726" type="line"/>
      <point x="229" y="726" type="line"/>
      <point x="216" y="706"/>
      <point x="184" y="655"/>
      <point x="184" y="634" type="curve" smooth="yes"/>
      <point x="184" y="617"/>
      <point x="196" y="610"/>
      <point x="210" y="610" type="curve" smooth="yes"/>
    </contour>
  </outline>
</glyph>
<glyph name="imacron" format="1">
  <advance width="203"/>
  <unicode hex="012B"/>
  <outline>
    <contour>
      <point x="73" y="564" type="line"/>
      <point x="73" y="0" type="line"/>
      <point x="130" y="0" type="line"/>
      <point x="130" y="564" type="line"/>
    </contour>
    <component base="macron" xOffset="-73"/>
  </outline>
</glyph>
<glyph name="dotlessi" format="1">
  <advance width="203"/>
  <unicode hex="0131"/>
  <outline>
    <contour>
      <point x="73" y="564" type="line"/>
      <point x="73" y="0" type="line"/>
      <point x="130" y="0" type="line"/>
      <point x="130" y="564" type="line"/>
    </contour>
  </outline>
</glyph>
<glyph name="Kcommaaccent" format="1">
  <advance width="424"/>
  <unicode hex="0136"/>
  <outline>
    <contour>
      <point x="335" y="668" type="line"/>
      <point x="192" y="332" type="line"/>
      <point x="341" y="0" type="line"/>
      <point x="405" y="0" type="line"/>
      <point x="254" y="334" type="line"/>
      <point x="398" y="668" type="line"/>
    </contour>
    <contour>
      <point x="73" y="668" type="line"/>
      <point x="73" y="0" type="line"/>
      <point x="130" y="0" type="line"/>
      <point x="130" y="668" type="line"/>
    </contour>
    <contour>
      <point x="204" y="-61" type="line"/>
      <point x="178" y="-177" type="line"/>
      <point x="210" y="-177" type="line"/>
      <point x="223" y="-157"/>
      <point x="255" y="-106"/>
      <point x="255" y="-86" type="curve" smooth="yes"/>
      <point x="255" y="-68"/>
      <point x="243" y="-61"/>
      <point x="229" y="-61" type="curve" smooth="yes"/>
    </contour>
  </outline>
</glyph>
<glyph name="kcommaaccent" format="1">
  <advance width="397"/>
  <unicode hex="0137"/>
  <outline>
    <contour>
      <point x="307" y="565" type="line"/>
      <point x="174" y="291" type="line"/>
      <point x="314" y="0" type="line"/>
      <point x="378" y="0" type="line"/>
      <point x="238" y="293" type="line"/>
      <point x="370" y="565" type="line"/>
    </contour>
    <contour>
      <point x="73" y="716" type="line"/>
      <point x="73" y="0" type="line"/>
      <point x="130" y="0" type="line"/>
      <point x="130" y="716" type="line"/>
    </contour>
    <contour>
      <point x="188" y="-61" type="line"/>
      <point x="161" y="-177" type="line"/>
      <point x="193" y="-177" type="line"/>
      <point x="207" y="-157"/>
      <point x="238" y="-106"/>
      <point x="238" y="-86" type="curve" smooth="yes"/>
      <point x="238" y="-68"/>
      <point x="226" y="-61"/>
      <point x="212" y="-61" type="curve" smooth="yes"/>
    </contour>
  </outline>
</glyph>
<glyph name="Lcommaaccent" format="1">
  <advance width="343"/>
  <unicode hex="013B"/>
  <outline>
    <contour>
      <point x="73" y="668" type="line"/>
      <point x="73" y="0" type="line"/>
      <point x="338" y="0" type="line"/>
      <point x="338" y="51" type="line"/>
      <point x="130" y="51" type="line"/>
      <point x="130" y="668" type="line"/>
    </contour>
    <contour>
      <point x="182" y="-61" type="line"/>
      <point x="155" y="-177" type="line"/>
      <point x="187" y="-177" type="line"/>
      <point x="201" y="-157"/>
      <point x="232" y="-106"/>
      <point x="232" y="-86" type="curve" smooth="yes"/>
      <point x="232" y="-68"/>
      <point x="220" y="-61"/>
      <point x="207" y="-61" type="curve" smooth="yes"/>
    </contour>
  </outline>
</glyph>
<glyph name="lcommaaccent" format="1">
  <advance width="203"/>
  <unicode hex="013C"/>
  <outline>
    <contour>
      <point x="73" y="716" type="line"/>
      <point x="73" y="0" type="line"/>
      <point x="130" y="0" type="line"/>
      <point x="130" y="716" type="line"/>
    </contour>
    <contour>
      <point x="79" y="-61" type="line"/>
      <point x="52" y="-177" type="line"/>
      <point x="85" y="-177" type="line"/>
      <point x="98" y="-157"/>
      <point x="130" y="-106"/>
      <point x="130" y="-86" type="curve" smooth="yes"/>
      <point x="130" y="-68"/>
      <point x="118" y="-61"/>
      <point x="104" y="-61" type="curve" smooth="yes"/>
    </contour>
  </outline>
</glyph>
<glyph name="Lcaron" format="1">
  <advance width="343"/>
  <unicode hex="013D"/>
  <outline>
    <contour>
      <point x="199" y="714" type="line"/>
      <point x="172" y="598" type="line"/>
      <point x="204" y="598" type="line"/>
      <point x="218" y="618"/>
      <point x="249" y="669"/>
      <point x="249" y="689" type="curve" smooth="yes"/>
      <point x="249" y="706"/>
      <point x="237" y="714"/>
      <point x="224" y="714" type="curve" smooth="yes"/>
    </contour>
    <component base="L"/>
  </outline>
</glyph>
<glyph name="lcaron" format="1">
  <advance width="203"/>
  <unicode hex="013E"/>
  <outline>
    <contour>
      <point x="73" y="716" type="line"/>
      <point x="73" y="0" type="line"/>
      <point x="130" y="0" type="line"/>
      <point x="130" y="716" type="line"/>
    </contour>
    <contour>
      <point x="199" y="714" type="line"/>
      <point x="172" y="598" type="line"/>
      <point x="204" y="598" type="line"/>
      <point x="218" y="618"/>
      <point x="249" y="669"/>
      <point x="249" y="689" type="curve" smooth="yes"/>
      <point x="249" y="706"/>
      <point x="237" y="714"/>
      <point x="224" y="714" type="curve" smooth="yes"/>
    </contour>
  </outline>
</glyph>
<glyph name="Lslash" format="1">
  <advance width="343"/>
  <unicode hex="0141"/>
  <outline>
    <contour>
      <point x="18" y="301" type="line"/>
      <point x="18" y="252" type="line"/>
      <point x="230" y="367" type="line"/>
      <point x="230" y="416" type="line"/>
    </contour>
    <component base="L" xOffset="1"/>
  </outline>
</glyph>
<glyph name="lslash" format="1">
  <advance width="203"/>
  <unicode hex="0142"/>
  <outline>
    <contour>
      <point x="16" y="462" type="line"/>
      <point x="16" y="413" type="line"/>
      <point x="188" y="516" type="line"/>
      <point x="188" y="565" type="line"/>
    </contour>
    <component base="l"/>
  </outline>
</glyph>
<glyph name="Ncommaaccent" format="1">
  <advance width="494"/>
  <unicode hex="0145"/>
  <outline>
    <contour>
      <point x="364" y="668" type="line"/>
      <point x="364" y="304" type="line"/>
      <point x="365" y="226"/>
      <point x="367" y="157"/>
      <point x="368" y="95" type="curve"/>
      <point x="344" y="158"/>
      <point x="317" y="226"/>
      <point x="289" y="300" type="curve"/>
      <point x="144" y="668" type="line"/>
      <point x="73" y="668" type="line"/>
      <point x="73" y="0" type="line"/>
      <point x="129" y="0" type="line"/>
      <point x="129" y="363" type="line"/>
      <point x="128" y="441"/>
      <point x="126" y="510"/>
      <point x="125" y="572" type="curve"/>
      <point x="150" y="509"/>
      <point x="176" y="441"/>
      <point x="205" y="366" type="curve"/>
      <point x="349" y="0" type="line"/>
      <point x="421" y="0" type="line"/>
      <point x="421" y="668" type="line"/>
    </contour>
    <contour>
      <point x="212" y="-61" type="line"/>
      <point x="185" y="-177" type="line"/>
      <point x="217" y="-177" type="line"/>
      <point x="231" y="-157"/>
      <point x="262" y="-106"/>
      <point x="262" y="-86" type="curve" smooth="yes"/>
      <point x="262" y="-68"/>
      <point x="251" y="-61"/>
      <point x="237" y="-61" type="curve" smooth="yes"/>
    </contour>
  </outline>
</glyph>
<glyph name="ncommaaccent" format="1">
  <advance width="449"/>
  <unicode hex="0146"/>
  <outline>
    <contour>
      <point x="129" y="539" type="curve"/>
      <point x="129" y="565" type="line"/>
      <point x="73" y="565" type="line"/>
      <point x="73" y="0" type="line"/>
      <point x="130" y="0" type="line"/>
      <point x="130" y="485" type="line"/>
      <point x="166" y="502"/>
      <point x="202" y="514"/>
      <point x="242" y="514" type="curve"/>
      <point x="293" y="514"/>
      <point x="324" y="489"/>
      <point x="324" y="432" type="curve" smooth="yes"/>
      <point x="324" y="0" type="line"/>
      <point x="381" y="0" type="line"/>
      <point x="381" y="435" type="line" smooth="yes"/>
      <point x="381" y="520"/>
      <point x="328" y="567"/>
      <point x="246" y="567" type="curve"/>
      <point x="200" y="567"/>
      <point x="153" y="549"/>
    </contour>
    <contour>
      <point x="195" y="-61" type="line"/>
      <point x="168" y="-177" type="line"/>
      <point x="201" y="-177" type="line"/>
      <point x="214" y="-157"/>
      <point x="246" y="-106"/>
      <point x="246" y="-86" type="curve" smooth="yes"/>
      <point x="246" y="-68"/>
      <point x="234" y="-61"/>
      <point x="220" y="-61" type="curve" smooth="yes"/>
    </contour>
  </outline>
</glyph>
<glyph name="OE" format="1">
  <advance width="663"/>
  <unicode hex="0152"/>
  <outline>
    <contour>
      <point x="243" y="668" type="line"/>
      <point x="133" y="668"/>
      <point x="83" y="605"/>
      <point x="83" y="518" type="curve" smooth="yes"/>
      <point x="83" y="151" type="line" smooth="yes"/>
      <point x="83" y="64"/>
      <point x="131" y="0"/>
      <point x="242" y="0" type="curve" smooth="yes"/>
      <point x="364" y="0" type="line"/>
      <point x="364" y="51" type="line"/>
      <point x="244" y="51" type="line" smooth="yes"/>
      <point x="168" y="51"/>
      <point x="140" y="91"/>
      <point x="140" y="152" type="curve" smooth="yes"/>
      <point x="140" y="517" type="line" smooth="yes"/>
      <point x="140" y="578"/>
      <point x="168" y="617"/>
      <point x="244" y="617" type="curve" smooth="yes"/>
      <point x="374" y="617" type="line"/>
      <point x="374" y="668" type="line"/>
    </contour>
    <component base="E" xOffset="279"/>
  </outline>
</glyph>
<glyph name="oe" format="1">
  <advance width="708"/>
  <unicode hex="0153"/>
  <outline>
    <contour>
      <point x="72" y="421" type="curve" smooth="yes"/>
      <point x="72" y="144" type="line" smooth="yes"/>
      <point x="72" y="57"/>
      <point x="118" y="-10"/>
      <point x="230" y="-10" type="curve" smooth="yes"/>
      <point x="341" y="-10"/>
      <point x="387" y="57"/>
      <point x="387" y="144" type="curve" smooth="yes"/>
      <point x="387" y="421" type="line" smooth="yes"/>
      <point x="387" y="508"/>
      <point x="341" y="575"/>
      <point x="230" y="575" type="curve" smooth="yes"/>
      <point x="118" y="575"/>
      <point x="72" y="508"/>
    </contour>
    <contour>
      <point x="330" y="421" type="curve" smooth="yes"/>
      <point x="330" y="144" type="line" smooth="yes"/>
      <point x="330" y="83"/>
      <point x="305" y="41"/>
      <point x="230" y="41" type="curve" smooth="yes"/>
      <point x="155" y="41"/>
      <point x="129" y="83"/>
      <point x="129" y="144" type="curve" smooth="yes"/>
      <point x="129" y="421" type="line" smooth="yes"/>
      <point x="129" y="482"/>
      <point x="155" y="524"/>
      <point x="230" y="524" type="curve" smooth="yes"/>
      <point x="305" y="524"/>
      <point x="330" y="482"/>
    </contour>
    <component base="e" xOffset="267"/>
  </outline>
</glyph>
<glyph name="Rcommaaccent" format="1">
  <advance width="452"/>
  <unicode hex="0156"/>
  <outline>
    <contour>
      <point x="73" y="668" type="line"/>
      <point x="73" y="0" type="line"/>
      <point x="130" y="0" type="line"/>
      <point x="130" y="273" type="line"/>
      <point x="227" y="273" type="line" smooth="yes"/>
      <point x="337" y="273"/>
      <point x="386" y="336"/>
      <point x="386" y="424" type="curve" smooth="yes"/>
      <point x="386" y="518" type="line" smooth="yes"/>
      <point x="386" y="605"/>
      <point x="335" y="668"/>
      <point x="226" y="668" type="curve" smooth="yes"/>
    </contour>
    <contour>
      <point x="235" y="297" type="line"/>
      <point x="342" y="0" type="line"/>
      <point x="405" y="0" type="line"/>
      <point x="295" y="297" type="line"/>
    </contour>
    <contour>
      <point x="328" y="517" type="curve" smooth="yes"/>
      <point x="328" y="424" type="line" smooth="yes"/>
      <point x="328" y="362"/>
      <point x="300" y="326"/>
      <point x="224" y="326" type="curve" smooth="yes"/>
      <point x="130" y="326" type="line"/>
      <point x="130" y="617" type="line"/>
      <point x="224" y="617" type="line" smooth="yes"/>
      <point x="299" y="617"/>
      <point x="328" y="578"/>
    </contour>
    <contour>
      <point x="201" y="-61" type="line"/>
      <point x="174" y="-177" type="line"/>
      <point x="206" y="-177" type="line"/>
      <point x="220" y="-157"/>
      <point x="251" y="-106"/>
      <point x="251" y="-86" type="curve" smooth="yes"/>
      <point x="251" y="-68"/>
      <point x="240" y="-61"/>
      <point x="226" y="-61" type="curve" smooth="yes"/>
    </contour>
  </outline>
</glyph>
<glyph name="rcommaaccent" format="1">
  <advance width="276"/>
  <unicode hex="0157"/>
  <outline>
    <contour>
      <point x="245" y="568" type="line"/>
      <point x="186" y="568"/>
      <point x="166" y="549"/>
      <point x="129" y="521" type="curve"/>
      <point x="129" y="565" type="line"/>
      <point x="73" y="565" type="line"/>
      <point x="73" y="0" type="line"/>
      <point x="130" y="0" type="line"/>
      <point x="130" y="463" type="line"/>
      <point x="178" y="497"/>
      <point x="194" y="512"/>
      <point x="236" y="512" type="curve"/>
      <point x="271" y="512" type="line"/>
      <point x="271" y="568" type="line"/>
    </contour>
    <contour>
      <point x="79" y="-61" type="line"/>
      <point x="52" y="-177" type="line"/>
      <point x="85" y="-177" type="line"/>
      <point x="98" y="-157"/>
      <point x="130" y="-106"/>
      <point x="130" y="-86" type="curve" smooth="yes"/>
      <point x="130" y="-68"/>
      <point x="118" y="-61"/>
      <point x="104" y="-61" type="curve" smooth="yes"/>
    </contour>
  </outline>
</glyph>
<glyph name="scedilla" format="1">
  <advance width="357"/>
  <unicode hex="015F"/>
  <outline>
    <contour>
      <point x="29" y="435" type="curve" smooth="yes"/>
      <point x="29" y="400" type="line" smooth="yes"/>
      <point x="29" y="335"/>
      <point x="59" y="298"/>
      <point x="115" y="274" type="curve" smooth="yes"/>
      <point x="204" y="233" type="line" smooth="yes"/>
      <point x="257" y="210"/>
      <point x="270" y="192"/>
      <point x="270" y="153" type="curve" smooth="yes"/>
      <point x="270" y="131" type="line" smooth="yes"/>
      <point x="270" y="78"/>
      <point x="242" y="48"/>
      <point x="150" y="48" type="curve" smooth="yes"/>
      <point x="103" y="48"/>
      <point x="64" y="56"/>
      <point x="34" y="66" type="curve"/>
      <point x="34" y="12" type="line"/>
      <point x="62" y="3"/>
      <point x="100" y="-5"/>
      <point x="152" y="-5" type="curve" smooth="yes"/>
      <point x="271" y="-5"/>
      <point x="327" y="43"/>
      <point x="327" y="131" type="curve" smooth="yes"/>
      <point x="327" y="157" type="line"/>
      <point x="327" y="219"/>
      <point x="292" y="252"/>
      <point x="235" y="278" type="curve" smooth="yes"/>
      <point x="149" y="318" type="line" smooth="yes"/>
      <point x="103" y="338"/>
      <point x="87" y="357"/>
      <point x="87" y="406" type="curve" smooth="yes"/>
      <point x="87" y="434" type="line" smooth="yes"/>
      <point x="87" y="490"/>
      <point x="104" y="517"/>
      <point x="195" y="517" type="curve" smooth="yes"/>
      <point x="236" y="517"/>
      <point x="273" y="509"/>
      <point x="303" y="499" type="curve"/>
      <point x="303" y="553" type="line"/>
      <point x="275" y="562"/>
      <point x="235" y="570"/>
      <point x="194" y="570" type="curve" smooth="yes"/>
      <point x="74" y="570"/>
      <point x="29" y="523"/>
    </contour>
    <contour>
      <point x="149" y="-61" type="line"/>
      <point x="122" y="-177" type="line"/>
      <point x="155" y="-177" type="line"/>
      <point x="168" y="-157"/>
      <point x="200" y="-106"/>
      <point x="200" y="-86" type="curve" smooth="yes"/>
      <point x="200" y="-68"/>
      <point x="188" y="-61"/>
      <point x="174" y="-61" type="curve" smooth="yes"/>
    </contour>
  </outline>
</glyph>
<glyph name="Tcedilla" format="1">
  <advance width="340"/>
  <unicode hex="0162"/>
  <outline>
    <contour>
      <point x="141" y="668" type="line"/>
      <point x="141" y="0" type="line"/>
      <point x="199" y="0" type="line"/>
      <point x="199" y="668" type="line"/>
    </contour>
    <contour>
      <point x="10" y="668" type="line"/>
      <point x="10" y="617" type="line"/>
      <point x="330" y="617" type="line"/>
      <point x="330" y="668" type="line"/>
    </contour>
    <contour>
      <point x="149" y="-61" type="line"/>
      <point x="122" y="-177" type="line"/>
      <point x="154" y="-177" type="line"/>
      <point x="167" y="-157"/>
      <point x="199" y="-106"/>
      <point x="199" y="-86" type="curve" smooth="yes"/>
      <point x="199" y="-68"/>
      <point x="187" y="-61"/>
      <point x="173" y="-61" type="curve" smooth="yes"/>
    </contour>
  </outline>
</glyph>
<glyph name="florin" format="1">
  <advance width="291"/>
  <unicode hex="0192"/>
  <outline>
    <contour>
      <point x="144" y="587" type="curve" smooth="yes"/>
      <point x="66" y="126" type="line" smooth="yes"/>
      <point x="57" y="69"/>
      <point x="37" y="47"/>
      <point x="-10" y="47" type="curve" smooth="yes"/>
      <point x="-17" y="47"/>
      <point x="-23" y="48"/>
      <point x="-30" y="48" type="curve"/>
      <point x="-30" y="-3" type="line"/>
      <point x="-23" y="-3"/>
      <point x="-15" y="-4"/>
      <point x="-8" y="-4" type="curve" smooth="yes"/>
      <point x="79" y="-4"/>
      <point x="110" y="44"/>
      <point x="124" y="126" type="curve" smooth="yes"/>
      <point x="202" y="587" type="line" smooth="yes"/>
      <point x="212" y="644"/>
      <point x="231" y="667"/>
      <point x="278" y="667" type="curve" smooth="yes"/>
      <point x="287" y="667"/>
      <point x="295" y="667"/>
      <point x="303" y="666" type="curve"/>
      <point x="303" y="716" type="line"/>
      <point x="294" y="717"/>
      <point x="285" y="717"/>
      <point x="276" y="717" type="curve" smooth="yes"/>
      <point x="189" y="717"/>
      <point x="158" y="669"/>
    </contour>
    <contour>
      <point x="38" y="477" type="line"/>
      <point x="38" y="427" type="line"/>
      <point x="259" y="427" type="line"/>
      <point x="259" y="477" type="line"/>
    </contour>
  </outline>
</glyph>
<glyph name="Tcommaaccent" format="1">
  <advance width="340"/>
  <unicode hex="021A"/>
  <outline>
    <contour>
      <point x="141" y="668" type="line"/>
      <point x="141" y="0" type="line"/>
      <point x="199" y="0" type="line"/>
      <point x="199" y="668" type="line"/>
    </contour>
    <contour>
      <point x="10" y="668" type="line"/>
      <point x="10" y="617" type="line"/>
      <point x="330" y="617" type="line"/>
      <point x="330" y="668" type="line"/>
    </contour>
    <contour>
      <point x="144" y="-61" type="line"/>
      <point x="117" y="-177" type="line"/>
      <point x="149" y="-177" type="line"/>
      <point x="163" y="-157"/>
      <point x="195" y="-106"/>
      <point x="195" y="-86" type="curve" smooth="yes"/>
      <point x="195" y="-68"/>
      <point x="183" y="-61"/>
      <point x="169" y="-61" type="curve" smooth="yes"/>
    </contour>
  </outline>
</glyph>
<glyph name="tcommaaccent" format="1">
  <advance width="286"/>
  <unicode hex="021B"/>
  <outline>
    <contour>
      <point x="87" y="669" type="line"/>
      <point x="71" y="565" type="line"/>
      <point x="5" y="565" type="line"/>
      <point x="5" y="514" type="line"/>
      <point x="69" y="514" type="line"/>
      <point x="69" y="118" type="line" smooth="yes"/>
      <point x="69" y="39"/>
      <point x="114" y="-3"/>
      <point x="198" y="-3" type="curve" smooth="yes"/>
      <point x="227" y="-3"/>
      <point x="261" y="3"/>
      <point x="271" y="6" type="curve"/>
      <point x="271" y="59" type="line"/>
      <point x="261" y="55"/>
      <point x="228" y="48"/>
      <point x="201" y="48" type="curve" smooth="yes"/>
      <point x="153" y="48"/>
      <point x="127" y="67"/>
      <point x="127" y="120" type="curve" smooth="yes"/>
      <point x="127" y="514" type="line"/>
      <point x="260" y="514" type="line"/>
      <point x="260" y="565" type="line"/>
      <point x="127" y="565" type="line"/>
      <point x="127" y="669" type="line"/>
    </contour>
    <contour>
      <point x="152" y="-61" type="line"/>
      <point x="125" y="-177" type="line"/>
      <point x="157" y="-177" type="line"/>
      <point x="171" y="-157"/>
      <point x="203" y="-106"/>
      <point x="203" y="-86" type="curve" smooth="yes"/>
      <point x="203" y="-68"/>
      <point x="191" y="-61"/>
      <point x="177" y="-61" type="curve" smooth="yes"/>
    </contour>
  </outline>
</glyph>
<glyph name="circumflex" format="1">
  <advance width="350"/>
  <unicode hex="02C6"/>
  <outline>
    <contour>
      <point x="154" y="716" type="line"/>
      <point x="210" y="610" type="line"/>
      <point x="249" y="610" type="line"/>
      <point x="200" y="716" type="line"/>
    </contour>
    <contour>
      <point x="150" y="716" type="line"/>
      <point x="101" y="610" type="line"/>
      <point x="140" y="610" type="line"/>
      <point x="196" y="716" type="line"/>
    </contour>
  </outline>
</glyph>
<glyph name="caron" format="1">
  <advance width="350"/>
  <unicode hex="02C7"/>
  <outline>
    <contour>
      <point x="210" y="716" type="line"/>
      <point x="154" y="610" type="line"/>
      <point x="200" y="610" type="line"/>
      <point x="249" y="716" type="line"/>
    </contour>
    <contour>
      <point x="101" y="716" type="line"/>
      <point x="150" y="610" type="line"/>
      <point x="196" y="610" type="line"/>
      <point x="140" y="716" type="line"/>
    </contour>
  </outline>
</glyph>
<glyph name="breve" format="1">
  <advance width="350"/>
  <unicode hex="02D8"/>
  <outline>
    <contour>
      <point x="237" y="716" type="line"/>
      <point x="236" y="677"/>
      <point x="214" y="652"/>
      <point x="175" y="652" type="curve" smooth="yes"/>
      <point x="136" y="652"/>
      <point x="114" y="677"/>
      <point x="113" y="716" type="curve"/>
      <point x="67" y="716" type="line"/>
      <point x="69" y="657"/>
      <point x="106" y="610"/>
      <point x="175" y="610" type="curve" smooth="yes"/>
      <point x="244" y="610"/>
      <point x="281" y="657"/>
      <point x="283" y="716" type="curve"/>
    </contour>
  </outline>
</glyph>
<glyph name="dotaccent" format="1">
  <advance width="350"/>
  <unicode hex="02D9"/>
  <outline>
    <contour>
      <point x="138" y="688" type="curve" smooth="yes"/>
      <point x="138" y="668"/>
      <point x="148" y="653"/>
      <point x="173" y="653" type="curve" smooth="yes"/>
      <point x="199" y="653"/>
      <point x="208" y="668"/>
      <point x="208" y="688" type="curve" smooth="yes"/>
      <point x="208" y="708"/>
      <point x="199" y="723"/>
      <point x="173" y="723" type="curve" smooth="yes"/>
      <point x="148" y="723"/>
      <point x="138" y="708"/>
    </contour>
  </outline>
</glyph>
<glyph name="ring" format="1">
  <advance width="350"/>
  <unicode hex="02DA"/>
  <outline>
    <contour>
      <point x="102" y="663" type="curve" smooth="yes"/>
      <point x="102" y="624"/>
      <point x="129" y="591"/>
      <point x="175" y="591" type="curve" smooth="yes"/>
      <point x="222" y="591"/>
      <point x="248" y="624"/>
      <point x="248" y="663" type="curve" smooth="yes"/>
      <point x="248" y="703"/>
      <point x="222" y="734"/>
      <point x="175" y="734" type="curve" smooth="yes"/>
      <point x="129" y="734"/>
      <point x="102" y="703"/>
    </contour>
    <contour>
      <point x="211" y="663" type="curve" smooth="yes"/>
      <point x="211" y="641"/>
      <point x="198" y="626"/>
      <point x="175" y="626" type="curve" smooth="yes"/>
      <point x="152" y="626"/>
      <point x="139" y="641"/>
      <point x="139" y="663" type="curve" smooth="yes"/>
      <point x="139" y="685"/>
      <point x="152" y="699"/>
      <point x="175" y="699" type="curve" smooth="yes"/>
      <point x="198" y="699"/>
      <point x="211" y="685"/>
    </contour>
  </outline>
</glyph>
<glyph name="ogonek" format="1">
  <advance width="350"/>
  <unicode hex="02DB"/>
  <outline>
    <contour>
      <point x="188" y="0" type="line"/>
      <point x="153" y="-26"/>
      <point x="129" y="-67"/>
      <point x="129" y="-106" type="curve" smooth="yes"/>
      <point x="129" y="-150"/>
      <point x="156" y="-172"/>
      <point x="208" y="-172" type="curve" smooth="yes"/>
      <point x="221" y="-172" type="line"/>
      <point x="221" y="-128" type="line"/>
      <point x="209" y="-128" type="line" smooth="yes"/>
      <point x="184" y="-128"/>
      <point x="171" y="-119"/>
      <point x="171" y="-92" type="curve" smooth="yes"/>
      <point x="171" y="-60"/>
      <point x="190" y="-24"/>
      <point x="221" y="0" type="curve"/>
    </contour>
  </outline>
</glyph>
<glyph name="tilde" format="1">
  <advance width="350"/>
  <unicode hex="02DC"/>
  <outline>
    <contour>
      <point x="248" y="706" type="line"/>
      <point x="248" y="694" type="line" smooth="yes"/>
      <point x="248" y="674"/>
      <point x="243" y="663"/>
      <point x="227" y="663" type="curve" smooth="yes"/>
      <point x="198" y="664"/>
      <point x="165" y="704"/>
      <point x="119" y="704" type="curve" smooth="yes"/>
      <point x="74" y="704"/>
      <point x="55" y="673"/>
      <point x="55" y="635" type="curve" smooth="yes"/>
      <point x="55" y="620" type="line"/>
      <point x="101" y="620" type="line"/>
      <point x="101" y="632" type="line" smooth="yes"/>
      <point x="101" y="652"/>
      <point x="107" y="663"/>
      <point x="123" y="663" type="curve" smooth="yes"/>
      <point x="158" y="663"/>
      <point x="186" y="622"/>
      <point x="232" y="622" type="curve" smooth="yes"/>
      <point x="272" y="622"/>
      <point x="294" y="647"/>
      <point x="294" y="691" type="curve" smooth="yes"/>
      <point x="294" y="706" type="line"/>
    </contour>
  </outline>
</glyph>
<glyph name="hungarumlaut" format="1">
  <advance width="350"/>
  <unicode hex="02DD"/>
  <outline>
    <contour>
      <point x="205" y="716" type="line"/>
      <point x="167" y="610" type="line"/>
      <point x="205" y="610" type="line"/>
      <point x="262" y="716" type="line"/>
    </contour>
    <contour>
      <point x="125" y="716" type="line"/>
      <point x="87" y="610" type="line"/>
      <point x="125" y="610" type="line"/>
      <point x="182" y="716" type="line"/>
    </contour>
  </outline>
</glyph>
<glyph name="pi" format="1">
  <advance width="444"/>
  <unicode hex="03C0"/>
  <outline>
    <contour>
      <point x="-2" y="565" type="line"/>
      <point x="-2" y="514" type="line"/>
      <point x="68" y="514" type="line"/>
      <point x="68" y="0" type="line"/>
      <point x="125" y="0" type="line"/>
      <point x="125" y="514" type="line"/>
      <point x="319" y="514" type="line"/>
      <point x="319" y="0" type="line"/>
      <point x="376" y="0" type="line"/>
      <point x="376" y="514" type="line"/>
      <point x="446" y="514" type="line"/>
      <point x="446" y="565" type="line"/>
    </contour>
  </outline>
</glyph>
<glyph name="dvCandrabindu" format="1">
  <advance width="0"/>
  <unicode hex="0901"/>
  <outline>
    <contour>
      <point x="-77" y="646" type="move" name="_abvm.bindu"/>
    </contour>
    <contour>
      <point x="-139" y="856" type="curve" smooth="yes"/>
      <point x="-139" y="836"/>
      <point x="-130" y="820"/>
      <point x="-104" y="820" type="curve" smooth="yes"/>
      <point x="-77" y="820"/>
      <point x="-68" y="836"/>
      <point x="-68" y="856" type="curve" smooth="yes"/>
      <point x="-68" y="877"/>
      <point x="-77" y="892"/>
      <point x="-104" y="892" type="curve" smooth="yes"/>
      <point x="-130" y="892"/>
      <point x="-139" y="877"/>
    </contour>
    <contour>
      <point x="-1" y="826" type="line"/>
      <point x="-1" y="772"/>
      <point x="-31" y="757"/>
      <point x="-104" y="757" type="curve" smooth="yes"/>
      <point x="-177" y="757"/>
      <point x="-206" y="772"/>
      <point x="-206" y="826" type="curve"/>
      <point x="-255" y="826" type="line"/>
      <point x="-255" y="824" type="line"/>
      <point x="-255" y="738"/>
      <point x="-202" y="711"/>
      <point x="-104" y="711" type="curve" smooth="yes"/>
      <point x="-6" y="711"/>
      <point x="48" y="738"/>
      <point x="48" y="824" type="curve"/>
      <point x="48" y="826" type="line"/>
    </contour>
  </outline>
</glyph>
<glyph name="dvAnusvara" format="1">
  <advance width="0"/>
  <unicode hex="0902"/>
  <outline>
    <contour>
      <point x="-77" y="646" type="move" name="_abvm.bindu"/>
    </contour>
    <contour>
      <point x="-140" y="763" type="curve" smooth="yes"/>
      <point x="-140" y="742"/>
      <point x="-130" y="727"/>
      <point x="-104" y="727" type="curve" smooth="yes"/>
      <point x="-77" y="727"/>
      <point x="-68" y="742"/>
      <point x="-68" y="763" type="curve" smooth="yes"/>
      <point x="-68" y="784"/>
      <point x="-77" y="799"/>
      <point x="-104" y="799" type="curve" smooth="yes"/>
      <point x="-130" y="799"/>
      <point x="-140" y="784"/>
    </contour>
  </outline>
</glyph>
<glyph name="dvVisarga" format="1">
  <advance width="193"/>
  <unicode hex="0903"/>
  <outline>
    <contour>
      <point x="43" y="379" type="curve" smooth="yes"/>
      <point x="43" y="358"/>
      <point x="52" y="343"/>
      <point x="79" y="343" type="curve" smooth="yes"/>
      <point x="105" y="343"/>
      <point x="115" y="358"/>
      <point x="115" y="379" type="curve" smooth="yes"/>
      <point x="115" y="400"/>
      <point x="105" y="415"/>
      <point x="79" y="415" type="curve" smooth="yes"/>
      <point x="52" y="415"/>
      <point x="43" y="400"/>
    </contour>
    <contour>
      <point x="43" y="36" type="curve" smooth="yes"/>
      <point x="43" y="15"/>
      <point x="52" y="0"/>
      <point x="79" y="0" type="curve" smooth="yes"/>
      <point x="105" y="0"/>
      <point x="115" y="15"/>
      <point x="115" y="36" type="curve" smooth="yes"/>
      <point x="115" y="57"/>
      <point x="105" y="72"/>
      <point x="79" y="72" type="curve" smooth="yes"/>
      <point x="52" y="72"/>
      <point x="43" y="57"/>
    </contour>
  </outline>
</glyph>
<glyph name="dvA" format="1">
  <advance width="554"/>
  <unicode hex="0905"/>
  <outline>
    <contour>
      <point x="248" y="164" type="line"/>
      <point x="248" y="116"/>
      <point x="220" y="83"/>
      <point x="149" y="83" type="curve" smooth="yes"/>
      <point x="108" y="83"/>
      <point x="68" y="90"/>
      <point x="36" y="99" type="curve"/>
      <point x="36" y="49" type="line"/>
      <point x="70" y="40"/>
      <point x="107" y="34"/>
      <point x="149" y="34" type="curve" smooth="yes"/>
      <point x="248" y="34"/>
      <point x="300" y="84"/>
      <point x="300" y="164" type="curve"/>
      <point x="300" y="241" type="line" smooth="yes"/>
      <point x="300" y="287"/>
      <point x="289" y="331"/>
      <point x="246" y="348" type="curve"/>
      <point x="289" y="363"/>
      <point x="300" y="409"/>
      <point x="300" y="454" type="curve" smooth="yes"/>
      <point x="300" y="522" type="line" smooth="yes"/>
      <point x="300" y="602"/>
      <point x="248" y="651"/>
      <point x="149" y="651" type="curve" smooth="yes"/>
      <point x="104" y="651"/>
      <point x="71" y="644"/>
      <point x="46" y="636" type="curve"/>
      <point x="46" y="584" type="line"/>
      <point x="74" y="594"/>
      <point x="107" y="603"/>
      <point x="149" y="603" type="curve" smooth="yes"/>
      <point x="220" y="603"/>
      <point x="248" y="569"/>
      <point x="248" y="521" type="curve" smooth="yes"/>
      <point x="248" y="454" type="line" smooth="yes"/>
      <point x="248" y="410"/>
      <point x="237" y="373"/>
      <point x="160" y="372" type="curve" smooth="yes"/>
      <point x="99" y="372" type="line"/>
      <point x="99" y="323" type="line"/>
      <point x="160" y="323" type="line" smooth="yes"/>
      <point x="237" y="322"/>
      <point x="248" y="285"/>
      <point x="248" y="241" type="curve" smooth="yes"/>
    </contour>
    <contour>
      <point x="425" y="646" type="line"/>
      <point x="425" y="0" type="line"/>
      <point x="477" y="0" type="line"/>
      <point x="477" y="600" type="line"/>
      <point x="576" y="600" type="line"/>
      <point x="576" y="646" type="line"/>
    </contour>
    <contour>
      <point x="271" y="213" type="line"/>
      <point x="431" y="213" type="line"/>
      <point x="431" y="259" type="line"/>
      <point x="271" y="259" type="line"/>
    </contour>
  </outline>
</glyph>
<glyph name="dvI" format="1">
  <advance width="395"/>
  <unicode hex="0907"/>
  <outline>
    <contour>
      <point x="322" y="646" type="move" name="abvm.bindu"/>
    </contour>
    <contour>
      <point x="103" y="171" type="line"/>
      <point x="53" y="171" type="line"/>
      <point x="53" y="-63" type="line"/>
      <point x="103" y="-63" type="line"/>
      <point x="103" y="41" type="line"/>
      <point x="129" y="35"/>
      <point x="160" y="32"/>
      <point x="198" y="32" type="curve" smooth="yes"/>
      <point x="305" y="32"/>
      <point x="351" y="71"/>
      <point x="351" y="151" type="curve" smooth="yes"/>
      <point x="351" y="192" type="line" smooth="yes"/>
      <point x="351" y="269"/>
      <point x="305" y="310"/>
      <point x="208" y="310" type="curve" smooth="yes"/>
      <point x="186" y="310" type="line" smooth="yes"/>
      <point x="115" y="310"/>
      <point x="96" y="338"/>
      <point x="96" y="381" type="curve" smooth="yes"/>
      <point x="96" y="387" type="line" smooth="yes"/>
      <point x="96" y="430"/>
      <point x="115" y="456"/>
      <point x="186" y="456" type="curve" smooth="yes"/>
      <point x="322" y="456" type="line"/>
      <point x="322" y="600" type="line"/>
      <point x="416" y="600" type="line"/>
      <point x="416" y="646" type="line"/>
      <point x="-22" y="646" type="line"/>
      <point x="-22" y="600" type="line"/>
      <point x="270" y="600" type="line"/>
      <point x="270" y="504" type="line"/>
      <point x="186" y="504" type="line" smooth="yes"/>
      <point x="89" y="504"/>
      <point x="44" y="464"/>
      <point x="44" y="387" type="curve" smooth="yes"/>
      <point x="44" y="381" type="line" smooth="yes"/>
      <point x="44" y="304"/>
      <point x="90" y="263"/>
      <point x="186" y="263" type="curve" smooth="yes"/>
      <point x="208" y="263" type="line" smooth="yes"/>
      <point x="280" y="263"/>
      <point x="299" y="235"/>
      <point x="299" y="192" type="curve" smooth="yes"/>
      <point x="299" y="151" type="line" smooth="yes"/>
      <point x="299" y="105"/>
      <point x="269" y="80"/>
      <point x="197" y="80" type="curve" smooth="yes"/>
      <point x="159" y="80"/>
      <point x="130" y="82"/>
      <point x="103" y="88" type="curve"/>
    </contour>
  </outline>
</glyph>
<glyph name="dvII" format="1">
  <advance width="395"/>
  <unicode hex="0908"/>
  <outline>
    <contour>
      <point x="317" y="646" type="line"/>
      <point x="301" y="679"/>
      <point x="281" y="726"/>
      <point x="281" y="760" type="curve" smooth="yes"/>
      <point x="281" y="815"/>
      <point x="319" y="832"/>
      <point x="364" y="832" type="curve" smooth="yes"/>
      <point x="376" y="832"/>
      <point x="389" y="831"/>
      <point x="401" y="829" type="curve"/>
      <point x="401" y="875" type="line"/>
      <point x="388" y="877"/>
      <point x="374" y="879"/>
      <point x="356" y="879" type="curve" smooth="yes"/>
      <point x="290" y="879"/>
      <point x="228" y="848"/>
      <point x="228" y="762" type="curve" smooth="yes"/>
      <point x="228" y="720"/>
      <point x="246" y="679"/>
      <point x="264" y="646" type="curve"/>
    </contour>
    <contour>
      <point x="103" y="171" type="line"/>
      <point x="53" y="171" type="line"/>
      <point x="53" y="-63" type="line"/>
      <point x="103" y="-63" type="line"/>
      <point x="103" y="41" type="line"/>
      <point x="129" y="35"/>
      <point x="160" y="32"/>
      <point x="198" y="32" type="curve" smooth="yes"/>
      <point x="305" y="32"/>
      <point x="351" y="71"/>
      <point x="351" y="151" type="curve" smooth="yes"/>
      <point x="351" y="192" type="line" smooth="yes"/>
      <point x="351" y="269"/>
      <point x="305" y="310"/>
      <point x="208" y="310" type="curve" smooth="yes"/>
      <point x="186" y="310" type="line" smooth="yes"/>
      <point x="115" y="310"/>
      <point x="96" y="338"/>
      <point x="96" y="381" type="curve" smooth="yes"/>
      <point x="96" y="387" type="line" smooth="yes"/>
      <point x="96" y="430"/>
      <point x="115" y="456"/>
      <point x="186" y="456" type="curve" smooth="yes"/>
      <point x="322" y="456" type="line"/>
      <point x="322" y="600" type="line"/>
      <point x="416" y="600" type="line"/>
      <point x="416" y="646" type="line"/>
      <point x="-22" y="646" type="line"/>
      <point x="-22" y="600" type="line"/>
      <point x="270" y="600" type="line"/>
      <point x="270" y="504" type="line"/>
      <point x="186" y="504" type="line" smooth="yes"/>
      <point x="89" y="504"/>
      <point x="44" y="464"/>
      <point x="44" y="387" type="curve" smooth="yes"/>
      <point x="44" y="381" type="line" smooth="yes"/>
      <point x="44" y="304"/>
      <point x="90" y="263"/>
      <point x="186" y="263" type="curve" smooth="yes"/>
      <point x="208" y="263" type="line" smooth="yes"/>
      <point x="280" y="263"/>
      <point x="299" y="235"/>
      <point x="299" y="192" type="curve" smooth="yes"/>
      <point x="299" y="151" type="line" smooth="yes"/>
      <point x="299" y="105"/>
      <point x="269" y="80"/>
      <point x="197" y="80" type="curve" smooth="yes"/>
      <point x="159" y="80"/>
      <point x="130" y="82"/>
      <point x="103" y="88" type="curve"/>
    </contour>
  </outline>
</glyph>
<glyph name="dvU" format="1">
  <advance width="399"/>
  <unicode hex="0909"/>
  <outline>
    <contour>
      <point x="289" y="646" type="move" name="abvm.bindu"/>
    </contour>
    <contour>
      <point x="326" y="232" type="line"/>
      <point x="326" y="277"/>
      <point x="314" y="324"/>
      <point x="273" y="337" type="curve"/>
      <point x="313" y="349"/>
      <point x="326" y="397"/>
      <point x="326" y="443" type="curve" smooth="yes"/>
      <point x="326" y="529" type="line" smooth="yes"/>
      <point x="326" y="580"/>
      <point x="315" y="600"/>
      <point x="315" y="600" type="curve"/>
      <point x="421" y="600" type="line"/>
      <point x="421" y="646" type="line"/>
      <point x="-22" y="646" type="line"/>
      <point x="-22" y="600" type="line"/>
      <point x="260" y="600" type="line"/>
      <point x="260" y="600"/>
      <point x="274" y="576"/>
      <point x="274" y="528" type="curve" smooth="yes"/>
      <point x="274" y="443" type="line" smooth="yes"/>
      <point x="274" y="400"/>
      <point x="264" y="363"/>
      <point x="187" y="362" type="curve" smooth="yes"/>
      <point x="125" y="362" type="line"/>
      <point x="125" y="313" type="line"/>
      <point x="186" y="313" type="line" smooth="yes"/>
      <point x="264" y="312"/>
      <point x="274" y="275"/>
      <point x="274" y="231" type="curve" smooth="yes"/>
      <point x="274" y="127" type="line" smooth="yes"/>
      <point x="274" y="76"/>
      <point x="243" y="45"/>
      <point x="154" y="45" type="curve" smooth="yes"/>
      <point x="116" y="45"/>
      <point x="83" y="53"/>
      <point x="49" y="65" type="curve"/>
      <point x="49" y="13" type="line"/>
      <point x="83" y="3"/>
      <point x="113" y="-3"/>
      <point x="154" y="-3" type="curve" smooth="yes"/>
      <point x="271" y="-3"/>
      <point x="326" y="43"/>
      <point x="326" y="126" type="curve"/>
    </contour>
  </outline>
</glyph>
<glyph name="dvUU" format="1">
  <advance width="560"/>
  <unicode hex="090A"/>
  <outline>
    <contour>
      <point x="289" y="646" type="move" name="abvm.bindu"/>
    </contour>
    <contour>
      <point x="379" y="-1" type="line"/>
      <point x="379" y="-1"/>
      <point x="397" y="-1"/>
      <point x="398" y="-1" type="curve" smooth="yes"/>
      <point x="481" y="-1"/>
      <point x="522" y="46"/>
      <point x="522" y="119" type="curve" smooth="yes"/>
      <point x="522" y="220" type="line" smooth="yes"/>
      <point x="522" y="297"/>
      <point x="476" y="348"/>
      <point x="381" y="348" type="curve" smooth="yes"/>
      <point x="326" y="348"/>
      <point x="259" y="335"/>
      <point x="259" y="335" type="curve"/>
      <point x="261" y="299" type="line"/>
      <point x="261" y="299"/>
      <point x="376" y="299"/>
      <point x="379" y="299" type="curve" smooth="yes"/>
      <point x="449" y="299"/>
      <point x="470" y="262"/>
      <point x="470" y="218" type="curve" smooth="yes"/>
      <point x="470" y="119" type="line" smooth="yes"/>
      <point x="470" y="76"/>
      <point x="452" y="48"/>
      <point x="386" y="48" type="curve"/>
      <point x="379" y="48" type="line"/>
    </contour>
    <contour>
      <point x="326" y="232" type="line"/>
      <point x="326" y="277"/>
      <point x="314" y="324"/>
      <point x="273" y="337" type="curve"/>
      <point x="313" y="349"/>
      <point x="326" y="397"/>
      <point x="326" y="443" type="curve" smooth="yes"/>
      <point x="326" y="529" type="line" smooth="yes"/>
      <point x="326" y="580"/>
      <point x="315" y="600"/>
      <point x="315" y="600" type="curve"/>
      <point x="582" y="600" type="line"/>
      <point x="582" y="646" type="line"/>
      <point x="-22" y="646" type="line"/>
      <point x="-22" y="600" type="line"/>
      <point x="260" y="600" type="line"/>
      <point x="260" y="600"/>
      <point x="274" y="576"/>
      <point x="274" y="528" type="curve" smooth="yes"/>
      <point x="274" y="443" type="line" smooth="yes"/>
      <point x="274" y="400"/>
      <point x="264" y="363"/>
      <point x="187" y="362" type="curve" smooth="yes"/>
      <point x="125" y="362" type="line"/>
      <point x="125" y="313" type="line"/>
      <point x="186" y="313" type="line" smooth="yes"/>
      <point x="264" y="312"/>
      <point x="274" y="275"/>
      <point x="274" y="231" type="curve" smooth="yes"/>
      <point x="274" y="127" type="line" smooth="yes"/>
      <point x="274" y="76"/>
      <point x="243" y="45"/>
      <point x="154" y="45" type="curve" smooth="yes"/>
      <point x="116" y="45"/>
      <point x="83" y="53"/>
      <point x="49" y="65" type="curve"/>
      <point x="49" y="13" type="line"/>
      <point x="83" y="3"/>
      <point x="113" y="-3"/>
      <point x="154" y="-3" type="curve" smooth="yes"/>
      <point x="271" y="-3"/>
      <point x="326" y="43"/>
      <point x="326" y="126" type="curve" smooth="yes"/>
    </contour>
  </outline>
</glyph>
<glyph name="dvvR" format="1">
  <advance width="665"/>
  <unicode hex="090B"/>
  <outline>
    <contour>
      <point x="440" y="141" type="curve" smooth="yes"/>
      <point x="440" y="45"/>
      <point x="507" y="5"/>
      <point x="585" y="5" type="curve" smooth="yes"/>
      <point x="605" y="5"/>
      <point x="624" y="7"/>
      <point x="642" y="11" type="curve"/>
      <point x="642" y="58" type="line"/>
      <point x="620" y="53"/>
      <point x="604" y="52"/>
      <point x="586" y="52" type="curve" smooth="yes"/>
      <point x="542" y="52"/>
      <point x="492" y="70"/>
      <point x="492" y="142" type="curve" smooth="yes"/>
      <point x="492" y="213"/>
      <point x="518" y="238"/>
      <point x="571" y="238" type="curve" smooth="yes"/>
      <point x="612" y="238" type="line"/>
      <point x="612" y="506" type="line"/>
      <point x="562" y="506" type="line"/>
      <point x="562" y="497" type="line" smooth="yes"/>
      <point x="562" y="447"/>
      <point x="533" y="418"/>
      <point x="461" y="418" type="curve" smooth="yes"/>
      <point x="424" y="418"/>
      <point x="384" y="422"/>
      <point x="341" y="433" type="curve"/>
      <point x="341" y="383" type="line"/>
      <point x="381" y="374"/>
      <point x="423" y="369"/>
      <point x="460" y="369" type="curve" smooth="yes"/>
      <point x="507" y="369"/>
      <point x="543" y="381"/>
      <point x="562" y="403" type="curve"/>
      <point x="562" y="281" type="line"/>
      <point x="481" y="280"/>
      <point x="440" y="234"/>
    </contour>
    <contour>
      <point x="314" y="275" type="curve"/>
      <point x="318" y="275" type="line"/>
      <point x="317" y="272"/>
      <point x="313" y="213"/>
      <point x="313" y="105" type="curve"/>
      <point x="313" y="0" type="line"/>
      <point x="365" y="0" type="line"/>
      <point x="365" y="600" type="line"/>
      <point x="687" y="600" type="line"/>
      <point x="687" y="646" type="line"/>
      <point x="-22" y="646" type="line"/>
      <point x="-22" y="600" type="line"/>
      <point x="313" y="600" type="line"/>
      <point x="313" y="483" type="line"/>
      <point x="284" y="492"/>
      <point x="251" y="498"/>
      <point x="210" y="498" type="curve" smooth="yes"/>
      <point x="102" y="498"/>
      <point x="46" y="449"/>
      <point x="46" y="362" type="curve" smooth="yes"/>
      <point x="46" y="303" type="line"/>
      <point x="98" y="303" type="line"/>
      <point x="98" y="361" type="line" smooth="yes"/>
      <point x="98" y="415"/>
      <point x="129" y="449"/>
      <point x="212" y="449" type="curve" smooth="yes"/>
      <point x="251" y="449"/>
      <point x="284" y="444"/>
      <point x="313" y="435" type="curve"/>
      <point x="313" y="338" type="line"/>
      <point x="42" y="59" type="line"/>
      <point x="42" y="55" type="line"/>
      <point x="108" y="55" type="line"/>
      <point x="247" y="198" type="line" smooth="yes"/>
      <point x="297" y="249"/>
      <point x="313" y="272"/>
    </contour>
  </outline>
</glyph>
<glyph name="dvvL" format="1">
  <advance width="613"/>
  <unicode hex="090C"/>
  <outline>
    <contour>
      <point x="536" y="146" type="curve"/>
      <point x="536" y="193" type="line"/>
      <point x="536" y="193"/>
      <point x="483" y="194"/>
      <point x="480" y="194" type="curve" smooth="yes"/>
      <point x="398" y="194"/>
      <point x="357" y="154"/>
      <point x="357" y="65" type="curve" smooth="yes"/>
      <point x="357" y="-23"/>
      <point x="408" y="-61"/>
      <point x="487" y="-61" type="curve" smooth="yes"/>
      <point x="516" y="-61"/>
      <point x="537" y="-53"/>
      <point x="540" y="-53" type="curve"/>
      <point x="540" y="-3" type="line"/>
      <point x="536" y="-3"/>
      <point x="521" y="-11"/>
      <point x="487" y="-11" type="curve" smooth="yes"/>
      <point x="444" y="-11"/>
      <point x="409" y="-1"/>
      <point x="409" y="65" type="curve" smooth="yes"/>
      <point x="409" y="124"/>
      <point x="428" y="147"/>
      <point x="486" y="147" type="curve" smooth="yes"/>
      <point x="488" y="147"/>
      <point x="533" y="147"/>
    </contour>
    <contour>
      <point x="53" y="149" type="line"/>
      <point x="53" y="56"/>
      <point x="99" y="0"/>
      <point x="211" y="0" type="curve" smooth="yes"/>
      <point x="234" y="0"/>
      <point x="252" y="2"/>
      <point x="267" y="5" type="curve"/>
      <point x="267" y="52" type="line"/>
      <point x="254" y="50"/>
      <point x="232" y="47"/>
      <point x="212" y="47" type="curve" smooth="yes"/>
      <point x="125" y="47"/>
      <point x="105" y="91"/>
      <point x="105" y="149" type="curve" smooth="yes"/>
      <point x="105" y="352" type="line" smooth="yes"/>
      <point x="105" y="395"/>
      <point x="120" y="429"/>
      <point x="187" y="429" type="curve" smooth="yes"/>
      <point x="251" y="429"/>
      <point x="268" y="396"/>
      <point x="268" y="355" type="curve" smooth="yes"/>
      <point x="268" y="207" type="line"/>
      <point x="321" y="207" type="line"/>
      <point x="321" y="355" type="line" smooth="yes"/>
      <point x="321" y="396"/>
      <point x="343" y="429"/>
      <point x="407" y="429" type="curve" smooth="yes"/>
      <point x="434" y="429"/>
      <point x="461" y="424"/>
      <point x="484" y="414" type="curve"/>
      <point x="484" y="159" type="line"/>
      <point x="536" y="159" type="line"/>
      <point x="536" y="600" type="line"/>
      <point x="634" y="600" type="line"/>
      <point x="634" y="646" type="line"/>
      <point x="-22" y="646" type="line"/>
      <point x="-22" y="600" type="line"/>
      <point x="484" y="600" type="line"/>
      <point x="484" y="462" type="line"/>
      <point x="458" y="473"/>
      <point x="437" y="477"/>
      <point x="406" y="477" type="curve" smooth="yes"/>
      <point x="354" y="477"/>
      <point x="315" y="461"/>
      <point x="294" y="433" type="curve"/>
      <point x="274" y="460"/>
      <point x="239" y="477"/>
      <point x="186" y="477" type="curve" smooth="yes"/>
      <point x="95" y="477"/>
      <point x="53" y="429"/>
      <point x="53" y="352" type="curve" smooth="yes"/>
    </contour>
  </outline>
</glyph>
<glyph name="dvEcandra" format="1">
  <advance width="424"/>
  <unicode hex="090D"/>
  <outline>
    <contour>
      <point x="322" y="837" type="line"/>
      <point x="322" y="784"/>
      <point x="292" y="769"/>
      <point x="219" y="769" type="curve" smooth="yes"/>
      <point x="146" y="769"/>
      <point x="117" y="784"/>
      <point x="117" y="837" type="curve"/>
      <point x="68" y="837" type="line"/>
      <point x="68" y="836" type="line"/>
      <point x="68" y="750"/>
      <point x="121" y="723"/>
      <point x="219" y="723" type="curve" smooth="yes"/>
      <point x="317" y="723"/>
      <point x="371" y="750"/>
      <point x="371" y="836" type="curve"/>
      <point x="371" y="837" type="line"/>
    </contour>
    <contour>
      <point x="344" y="63" type="line"/>
      <point x="320" y="55"/>
      <point x="272" y="44"/>
      <point x="223" y="44" type="curve" smooth="yes"/>
      <point x="152" y="44"/>
      <point x="125" y="73"/>
      <point x="125" y="118" type="curve" smooth="yes"/>
      <point x="125" y="600" type="line"/>
      <point x="307" y="600" type="line"/>
      <point x="307" y="396" type="line" smooth="yes"/>
      <point x="307" y="356"/>
      <point x="293" y="324"/>
      <point x="235" y="324" type="curve" smooth="yes"/>
      <point x="230" y="324"/>
      <point x="222" y="324"/>
      <point x="216" y="325" type="curve"/>
      <point x="216" y="277" type="line"/>
      <point x="224" y="276"/>
      <point x="232" y="276"/>
      <point x="240" y="276" type="curve" smooth="yes"/>
      <point x="325" y="276"/>
      <point x="359" y="329"/>
      <point x="359" y="396" type="curve" smooth="yes"/>
      <point x="359" y="600" type="line"/>
      <point x="446" y="600" type="line"/>
      <point x="446" y="646" type="line"/>
      <point x="-22" y="646" type="line"/>
      <point x="-22" y="600" type="line"/>
      <point x="72" y="600" type="line"/>
      <point x="72" y="117" type="line" smooth="yes"/>
      <point x="72" y="39"/>
      <point x="123" y="-5"/>
      <point x="222" y="-5" type="curve" smooth="yes"/>
      <point x="274" y="-5"/>
      <point x="321" y="5"/>
      <point x="344" y="15" type="curve"/>
    </contour>
  </outline>
</glyph>
<glyph name="dvE" format="1">
  <advance width="424"/>
  <unicode hex="090F"/>
  <outline>
    <contour>
      <point x="349" y="63" type="line"/>
      <point x="324" y="55"/>
      <point x="277" y="44"/>
      <point x="228" y="44" type="curve" smooth="yes"/>
      <point x="150" y="44"/>
      <point x="125" y="74"/>
      <point x="125" y="123" type="curve" smooth="yes"/>
      <point x="125" y="600" type="line"/>
      <point x="307" y="600" type="line"/>
      <point x="307" y="396" type="line" smooth="yes"/>
      <point x="307" y="356"/>
      <point x="293" y="324"/>
      <point x="235" y="324" type="curve" smooth="yes"/>
      <point x="230" y="324"/>
      <point x="222" y="324"/>
      <point x="216" y="325" type="curve"/>
      <point x="216" y="277" type="line"/>
      <point x="224" y="276"/>
      <point x="232" y="276"/>
      <point x="240" y="276" type="curve" smooth="yes"/>
      <point x="325" y="276"/>
      <point x="359" y="329"/>
      <point x="359" y="396" type="curve" smooth="yes"/>
      <point x="359" y="600" type="line"/>
      <point x="446" y="600" type="line"/>
      <point x="446" y="646" type="line"/>
      <point x="-22" y="646" type="line"/>
      <point x="-22" y="600" type="line"/>
      <point x="72" y="600" type="line"/>
      <point x="72" y="124" type="line" smooth="yes"/>
      <point x="72" y="36"/>
      <point x="126" y="-5"/>
      <point x="228" y="-5" type="curve" smooth="yes"/>
      <point x="279" y="-5"/>
      <point x="326" y="5"/>
      <point x="349" y="15" type="curve"/>
    </contour>
  </outline>
</glyph>
<glyph name="dvAI" format="1">
  <advance width="424"/>
  <unicode hex="0910"/>
  <outline>
    <contour>
      <point x="303" y="646" type="line"/>
      <point x="357" y="646" type="line"/>
      <point x="198" y="875" type="line"/>
      <point x="139" y="875" type="line"/>
    </contour>
    <contour>
      <point x="344" y="63" type="line"/>
      <point x="320" y="55"/>
      <point x="272" y="44"/>
      <point x="223" y="44" type="curve" smooth="yes"/>
      <point x="152" y="44"/>
      <point x="125" y="73"/>
      <point x="125" y="118" type="curve" smooth="yes"/>
      <point x="125" y="600" type="line"/>
      <point x="307" y="600" type="line"/>
      <point x="307" y="396" type="line" smooth="yes"/>
      <point x="307" y="356"/>
      <point x="293" y="324"/>
      <point x="235" y="324" type="curve" smooth="yes"/>
      <point x="230" y="324"/>
      <point x="222" y="324"/>
      <point x="216" y="325" type="curve"/>
      <point x="216" y="277" type="line"/>
      <point x="224" y="276"/>
      <point x="232" y="276"/>
      <point x="240" y="276" type="curve" smooth="yes"/>
      <point x="325" y="276"/>
      <point x="359" y="329"/>
      <point x="359" y="396" type="curve" smooth="yes"/>
      <point x="359" y="600" type="line"/>
      <point x="446" y="600" type="line"/>
      <point x="446" y="646" type="line"/>
      <point x="-22" y="646" type="line"/>
      <point x="-22" y="600" type="line"/>
      <point x="72" y="600" type="line"/>
      <point x="72" y="117" type="line" smooth="yes"/>
      <point x="72" y="39"/>
      <point x="123" y="-5"/>
      <point x="222" y="-5" type="curve" smooth="yes"/>
      <point x="274" y="-5"/>
      <point x="321" y="5"/>
      <point x="344" y="15" type="curve"/>
    </contour>
  </outline>
</glyph>
<glyph name="dvOcandra" format="1">
  <advance width="789"/>
  <unicode hex="0911"/>
  <outline>
    <contour>
      <point x="659" y="600" type="line"/>
      <point x="659" y="0" type="line"/>
      <point x="712" y="0" type="line"/>
      <point x="712" y="600" type="line"/>
      <point x="810" y="600" type="line"/>
      <point x="810" y="646" type="line"/>
      <point x="561" y="646" type="line"/>
      <point x="561" y="600" type="line"/>
    </contour>
    <contour>
      <point x="687" y="831" type="line"/>
      <point x="687" y="777"/>
      <point x="658" y="762"/>
      <point x="585" y="762" type="curve" smooth="yes"/>
      <point x="511" y="762"/>
      <point x="482" y="777"/>
      <point x="482" y="831" type="curve"/>
      <point x="433" y="831" type="line"/>
      <point x="433" y="829" type="line"/>
      <point x="433" y="742"/>
      <point x="486" y="716"/>
      <point x="585" y="716" type="curve" smooth="yes"/>
      <point x="683" y="716"/>
      <point x="736" y="741"/>
      <point x="736" y="829" type="curve"/>
      <point x="736" y="831" type="line"/>
    </contour>
    <component base="dvA" xOffset="28"/>
  </outline>
</glyph>
<glyph name="dvKA" format="1">
  <advance width="574"/>
  <unicode hex="0915"/>
  <outline>
    <contour>
      <point x="316" y="646" type="move" name="abvm.bindu"/>
    </contour>
    <contour>
      <point x="316" y="0" type="move" name="blwm.virama"/>
    </contour>
    <contour>
      <point x="316" y="646" type="move" name="abvm.e"/>
    </contour>
    <contour>
      <point x="316" y="0" type="move" name="blwm.u"/>
    </contour>
    <contour>
      <point x="264" y="600" type="line"/>
      <point x="-22" y="600" type="line"/>
      <point x="-22" y="646" type="line"/>
      <point x="595" y="646" type="line"/>
      <point x="595" y="600" type="line"/>
      <point x="316" y="600" type="line"/>
      <point x="316" y="494" type="line"/>
      <point x="335" y="501"/>
      <point x="358" y="505"/>
      <point x="387" y="505" type="curve" smooth="yes"/>
      <point x="478" y="505"/>
      <point x="525" y="462"/>
      <point x="525" y="385" type="curve" smooth="yes"/>
      <point x="525" y="196" type="line" smooth="yes"/>
      <point x="525" y="129"/>
      <point x="491" y="76"/>
      <point x="406" y="76" type="curve" smooth="yes"/>
      <point x="398" y="76"/>
      <point x="390" y="76"/>
      <point x="383" y="77" type="curve"/>
      <point x="383" y="125" type="line"/>
      <point x="389" y="125"/>
      <point x="396" y="124"/>
      <point x="402" y="124" type="curve" smooth="yes"/>
      <point x="460" y="125"/>
      <point x="473" y="157"/>
      <point x="473" y="197" type="curve" smooth="yes"/>
      <point x="473" y="385" type="line" smooth="yes"/>
      <point x="473" y="428"/>
      <point x="453" y="457"/>
      <point x="385" y="457" type="curve" smooth="yes"/>
      <point x="360" y="457"/>
      <point x="340" y="455"/>
      <point x="316" y="447" type="curve"/>
      <point x="316" y="0" type="line"/>
      <point x="264" y="0" type="line"/>
      <point x="264" y="81" type="line"/>
      <point x="245" y="77"/>
      <point x="217" y="71"/>
      <point x="187" y="71" type="curve" smooth="yes"/>
      <point x="95" y="71"/>
      <point x="48" y="114"/>
      <point x="48" y="191" type="curve" smooth="yes"/>
      <point x="48" y="384" type="line" smooth="yes"/>
      <point x="48" y="461"/>
      <point x="95" y="504"/>
      <point x="187" y="504" type="curve" smooth="yes"/>
      <point x="196" y="504"/>
      <point x="209" y="503"/>
      <point x="217" y="501" type="curve"/>
      <point x="217" y="454" type="line"/>
      <point x="209" y="455"/>
      <point x="197" y="456"/>
      <point x="188" y="456" type="curve" smooth="yes"/>
      <point x="121" y="456"/>
      <point x="100" y="427"/>
      <point x="100" y="384" type="curve" smooth="yes"/>
      <point x="100" y="191" type="line" smooth="yes"/>
      <point x="100" y="148"/>
      <point x="121" y="119"/>
      <point x="188" y="119" type="curve" smooth="yes"/>
      <point x="218" y="119"/>
      <point x="245" y="123"/>
      <point x="264" y="129" type="curve"/>
    </contour>
  </outline>
</glyph>
<glyph name="dvGA" format="1">
  <advance width="477"/>
  <unicode hex="0917"/>
  <outline>
    <contour>
      <point x="301" y="600" type="line"/>
      <point x="348" y="600" type="line"/>
      <point x="348" y="0" type="line"/>
      <point x="400" y="0" type="line"/>
      <point x="400" y="600" type="line"/>
      <point x="499" y="600" type="line"/>
      <point x="499" y="646" type="line"/>
      <point x="301" y="646" type="line"/>
    </contour>
    <contour>
      <point x="185" y="600" type="line"/>
      <point x="301" y="600" type="line"/>
      <point x="301" y="646" type="line"/>
      <point x="-22" y="646" type="line"/>
      <point x="-22" y="600" type="line"/>
      <point x="133" y="600" type="line"/>
      <point x="133" y="317" type="line" smooth="yes"/>
      <point x="133" y="277"/>
      <point x="118" y="245"/>
      <point x="60" y="245" type="curve" smooth="yes"/>
      <point x="53" y="245"/>
      <point x="40" y="246"/>
      <point x="32" y="247" type="curve"/>
      <point x="32" y="199" type="line"/>
      <point x="40" y="197"/>
      <point x="56" y="196"/>
      <point x="65" y="196" type="curve" smooth="yes"/>
      <point x="149" y="196"/>
      <point x="185" y="249"/>
      <point x="185" y="317" type="curve"/>
    </contour>
  </outline>
</glyph>
<glyph name="dvNGA" format="1">
  <advance width="430"/>
  <unicode hex="0919"/>
  <outline>
    <contour>
      <point x="327" y="646" type="move" name="abvm.bindu"/>
    </contour>
    <contour>
      <point x="229" y="-5" type="move" name="blwm.virama"/>
    </contour>
    <contour>
      <point x="327" y="646" type="move" name="abvm.e"/>
    </contour>
    <contour>
      <point x="230" y="-61" type="move" name="blwm.u"/>
    </contour>
    <contour>
      <point x="356" y="169" type="line"/>
      <point x="356" y="246"/>
      <point x="310" y="287"/>
      <point x="213" y="287" type="curve" smooth="yes"/>
      <point x="196" y="287" type="line" smooth="yes"/>
      <point x="125" y="287"/>
      <point x="106" y="315"/>
      <point x="106" y="358" type="curve" smooth="yes"/>
      <point x="106" y="387" type="line" smooth="yes"/>
      <point x="106" y="430"/>
      <point x="125" y="457"/>
      <point x="196" y="457" type="curve" smooth="yes"/>
      <point x="327" y="457" type="line"/>
      <point x="327" y="600" type="line"/>
      <point x="452" y="600" type="line"/>
      <point x="452" y="646" type="line"/>
      <point x="-22" y="646" type="line"/>
      <point x="-22" y="600" type="line"/>
      <point x="275" y="600" type="line"/>
      <point x="275" y="505" type="line"/>
      <point x="196" y="505" type="line" smooth="yes"/>
      <point x="99" y="505"/>
      <point x="53" y="465"/>
      <point x="53" y="388" type="curve" smooth="yes"/>
      <point x="53" y="357" type="line" smooth="yes"/>
      <point x="53" y="280"/>
      <point x="100" y="239"/>
      <point x="196" y="239" type="curve" smooth="yes"/>
      <point x="213" y="239" type="line" smooth="yes"/>
      <point x="285" y="239"/>
      <point x="304" y="211"/>
      <point x="304" y="168" type="curve" smooth="yes"/>
      <point x="304" y="119" type="line" smooth="yes"/>
      <point x="304" y="66"/>
      <point x="266" y="43"/>
      <point x="193" y="43" type="curve" smooth="yes"/>
      <point x="142" y="43"/>
      <point x="92" y="49"/>
      <point x="56" y="58" type="curve"/>
      <point x="56" y="10" type="line"/>
      <point x="95" y="1"/>
      <point x="139" y="-5"/>
      <point x="193" y="-5" type="curve" smooth="yes"/>
      <point x="302" y="-5"/>
      <point x="356" y="38"/>
      <point x="356" y="119" type="curve"/>
    </contour>
    <contour>
      <point x="362" y="361" type="curve" smooth="yes"/>
      <point x="362" y="340"/>
      <point x="371" y="324"/>
      <point x="398" y="324" type="curve" smooth="yes"/>
      <point x="425" y="324"/>
      <point x="434" y="340"/>
      <point x="434" y="361" type="curve" smooth="yes"/>
      <point x="434" y="381"/>
      <point x="425" y="397"/>
      <point x="398" y="397" type="curve" smooth="yes"/>
      <point x="371" y="397"/>
      <point x="362" y="381"/>
    </contour>
  </outline>
</glyph>
<glyph name="dvCA" format="1">
  <advance width="458"/>
  <unicode hex="091A"/>
  <outline>
    <contour>
      <point x="145" y="342" type="line"/>
      <point x="145" y="402"/>
      <point x="155" y="434"/>
      <point x="155" y="434" type="curve"/>
      <point x="271" y="434" type="line"/>
      <point x="271" y="480" type="line"/>
      <point x="12" y="480" type="line"/>
      <point x="12" y="433" type="line"/>
      <point x="103" y="433" type="line"/>
      <point x="103" y="433"/>
      <point x="93" y="402"/>
      <point x="93" y="342" type="curve"/>
      <point x="93" y="189" type="line"/>
      <point x="93" y="111"/>
      <point x="137" y="63"/>
      <point x="237" y="63" type="curve"/>
      <point x="274" y="63"/>
      <point x="304" y="69"/>
      <point x="328" y="78" type="curve"/>
      <point x="328" y="0" type="line"/>
      <point x="380" y="0" type="line"/>
      <point x="380" y="600" type="line"/>
      <point x="479" y="600" type="line"/>
      <point x="479" y="646" type="line"/>
      <point x="-22" y="646" type="line"/>
      <point x="-22" y="600" type="line"/>
      <point x="328" y="600" type="line"/>
      <point x="328" y="126" type="line"/>
      <point x="297" y="115"/>
      <point x="273" y="111"/>
      <point x="239" y="111" type="curve"/>
      <point x="169" y="111"/>
      <point x="145" y="139"/>
      <point x="145" y="190" type="curve" smooth="yes"/>
    </contour>
  </outline>
</glyph>
